<mxfile host="app.diagrams.net" modified="2023-12-10T17:37:56.764Z" agent="Mozilla/5.0 (Windows NT 10.0; Win64; x64) AppleWebKit/537.36 (KHTML, like Gecko) Chrome/119.0.0.0 Safari/537.36 OPR/105.0.0.0" etag="zVWeqbJ1fBn1RFCiwA0-" version="22.1.7" type="github">
  <diagram name="Página-1" id="44kaRgDa5pvyj0i5NGTn">
    <mxGraphModel dx="3752" dy="1307" grid="1" gridSize="10" guides="1" tooltips="1" connect="1" arrows="1" fold="1" page="1" pageScale="1" pageWidth="1169" pageHeight="1654" background="none" math="0" shadow="0">
      <root>
        <mxCell id="0" />
        <mxCell id="1" parent="0" />
        <mxCell id="yPODJ5ue4MWIPqrNUil7-4" value="" style="edgeStyle=orthogonalEdgeStyle;rounded=0;orthogonalLoop=1;jettySize=auto;html=1;endArrow=none;endFill=0;" parent="1" source="yPODJ5ue4MWIPqrNUil7-1" target="yPODJ5ue4MWIPqrNUil7-3" edge="1">
          <mxGeometry relative="1" as="geometry" />
        </mxCell>
        <mxCell id="yPODJ5ue4MWIPqrNUil7-1" value="ESTUDIANTE" style="rounded=0;whiteSpace=wrap;html=1;fillColor=#dae8fc;strokeColor=#6c8ebf;" parent="1" vertex="1">
          <mxGeometry x="180" y="110" width="120" height="60" as="geometry" />
        </mxCell>
        <mxCell id="VDzh7EiB1U5KI5voId9q-119" style="edgeStyle=orthogonalEdgeStyle;rounded=0;orthogonalLoop=1;jettySize=auto;html=1;entryX=0.5;entryY=1;entryDx=0;entryDy=0;endArrow=none;endFill=0;" parent="1" source="yPODJ5ue4MWIPqrNUil7-2" target="VDzh7EiB1U5KI5voId9q-118" edge="1">
          <mxGeometry relative="1" as="geometry" />
        </mxCell>
        <mxCell id="yPODJ5ue4MWIPqrNUil7-2" value="PROGRAMA ACADÉMICO" style="rounded=0;whiteSpace=wrap;html=1;fillColor=#dae8fc;strokeColor=#6c8ebf;" parent="1" vertex="1">
          <mxGeometry x="480" y="110" width="120" height="60" as="geometry" />
        </mxCell>
        <mxCell id="yPODJ5ue4MWIPqrNUil7-5" value="" style="edgeStyle=orthogonalEdgeStyle;rounded=0;orthogonalLoop=1;jettySize=auto;html=1;endArrow=none;endFill=0;" parent="1" source="yPODJ5ue4MWIPqrNUil7-3" target="yPODJ5ue4MWIPqrNUil7-2" edge="1">
          <mxGeometry relative="1" as="geometry" />
        </mxCell>
        <mxCell id="yPODJ5ue4MWIPqrNUil7-3" value="asociado" style="rhombus;whiteSpace=wrap;html=1;fillColor=#d5e8d4;strokeColor=#82b366;" parent="1" vertex="1">
          <mxGeometry x="350" y="100" width="80" height="80" as="geometry" />
        </mxCell>
        <mxCell id="yPODJ5ue4MWIPqrNUil7-6" value="1:1" style="text;html=1;strokeColor=none;fillColor=none;align=center;verticalAlign=middle;whiteSpace=wrap;rounded=0;" parent="1" vertex="1">
          <mxGeometry x="420" y="110" width="60" height="30" as="geometry" />
        </mxCell>
        <mxCell id="yPODJ5ue4MWIPqrNUil7-7" value="1:N" style="text;html=1;strokeColor=none;fillColor=none;align=center;verticalAlign=middle;whiteSpace=wrap;rounded=0;" parent="1" vertex="1">
          <mxGeometry x="300" y="110" width="60" height="30" as="geometry" />
        </mxCell>
        <mxCell id="yPODJ5ue4MWIPqrNUil7-8" value="1:N" style="text;html=1;strokeColor=none;fillColor=none;align=center;verticalAlign=middle;whiteSpace=wrap;rounded=0;" parent="1" vertex="1">
          <mxGeometry x="360" y="80" width="60" height="30" as="geometry" />
        </mxCell>
        <mxCell id="yPODJ5ue4MWIPqrNUil7-9" value="" style="edgeStyle=orthogonalEdgeStyle;rounded=0;orthogonalLoop=1;jettySize=auto;html=1;endArrow=none;endFill=0;" parent="1" source="yPODJ5ue4MWIPqrNUil7-10" edge="1">
          <mxGeometry relative="1" as="geometry">
            <mxPoint x="357.5" y="550" as="targetPoint" />
          </mxGeometry>
        </mxCell>
        <mxCell id="VDzh7EiB1U5KI5voId9q-273" style="edgeStyle=orthogonalEdgeStyle;rounded=0;orthogonalLoop=1;jettySize=auto;html=1;entryX=1;entryY=0.5;entryDx=0;entryDy=0;endArrow=none;endFill=0;" parent="1" source="yPODJ5ue4MWIPqrNUil7-10" target="VDzh7EiB1U5KI5voId9q-272" edge="1">
          <mxGeometry relative="1" as="geometry" />
        </mxCell>
        <mxCell id="yPODJ5ue4MWIPqrNUil7-10" value="CURSO" style="rounded=0;whiteSpace=wrap;html=1;fillColor=#dae8fc;strokeColor=#6c8ebf;" parent="1" vertex="1">
          <mxGeometry x="187.5" y="520" width="120" height="60" as="geometry" />
        </mxCell>
        <mxCell id="yPODJ5ue4MWIPqrNUil7-11" value="PROGRAMA ACADÉMICO" style="rounded=0;whiteSpace=wrap;html=1;fillColor=#dae8fc;strokeColor=#6c8ebf;" parent="1" vertex="1">
          <mxGeometry x="487.5" y="520" width="120" height="60" as="geometry" />
        </mxCell>
        <mxCell id="yPODJ5ue4MWIPqrNUil7-12" value="" style="edgeStyle=orthogonalEdgeStyle;rounded=0;orthogonalLoop=1;jettySize=auto;html=1;endArrow=none;endFill=0;" parent="1" target="yPODJ5ue4MWIPqrNUil7-11" edge="1">
          <mxGeometry relative="1" as="geometry">
            <mxPoint x="437.5" y="550" as="sourcePoint" />
          </mxGeometry>
        </mxCell>
        <mxCell id="yPODJ5ue4MWIPqrNUil7-13" value="pertenece" style="rhombus;whiteSpace=wrap;html=1;fillColor=#d5e8d4;strokeColor=#82b366;" parent="1" vertex="1">
          <mxGeometry x="357.5" y="510" width="80" height="80" as="geometry" />
        </mxCell>
        <mxCell id="yPODJ5ue4MWIPqrNUil7-14" value="1:1" style="text;html=1;strokeColor=none;fillColor=none;align=center;verticalAlign=middle;whiteSpace=wrap;rounded=0;" parent="1" vertex="1">
          <mxGeometry x="427.5" y="520" width="60" height="30" as="geometry" />
        </mxCell>
        <mxCell id="yPODJ5ue4MWIPqrNUil7-15" value="1:N" style="text;html=1;strokeColor=none;fillColor=none;align=center;verticalAlign=middle;whiteSpace=wrap;rounded=0;" parent="1" vertex="1">
          <mxGeometry x="307.5" y="520" width="60" height="30" as="geometry" />
        </mxCell>
        <mxCell id="yPODJ5ue4MWIPqrNUil7-16" value="1:N" style="text;html=1;strokeColor=none;fillColor=none;align=center;verticalAlign=middle;whiteSpace=wrap;rounded=0;" parent="1" vertex="1">
          <mxGeometry x="367.5" y="490" width="60" height="30" as="geometry" />
        </mxCell>
        <mxCell id="yPODJ5ue4MWIPqrNUil7-17" value="" style="edgeStyle=orthogonalEdgeStyle;rounded=0;orthogonalLoop=1;jettySize=auto;html=1;endArrow=none;endFill=0;" parent="1" source="yPODJ5ue4MWIPqrNUil7-18" target="yPODJ5ue4MWIPqrNUil7-21" edge="1">
          <mxGeometry relative="1" as="geometry" />
        </mxCell>
        <mxCell id="VDzh7EiB1U5KI5voId9q-110" style="edgeStyle=orthogonalEdgeStyle;rounded=0;orthogonalLoop=1;jettySize=auto;html=1;entryX=0.5;entryY=1;entryDx=0;entryDy=0;endArrow=none;endFill=0;" parent="1" source="yPODJ5ue4MWIPqrNUil7-18" target="VDzh7EiB1U5KI5voId9q-109" edge="1">
          <mxGeometry relative="1" as="geometry" />
        </mxCell>
        <mxCell id="yPODJ5ue4MWIPqrNUil7-18" value="PROFESOR" style="rounded=0;whiteSpace=wrap;html=1;fillColor=#dae8fc;strokeColor=#6c8ebf;" parent="1" vertex="1">
          <mxGeometry x="202.5" y="878" width="120" height="60" as="geometry" />
        </mxCell>
        <mxCell id="yPODJ5ue4MWIPqrNUil7-19" value="CURSO" style="rounded=0;whiteSpace=wrap;html=1;fillColor=#dae8fc;strokeColor=#6c8ebf;" parent="1" vertex="1">
          <mxGeometry x="502.5" y="878" width="120" height="60" as="geometry" />
        </mxCell>
        <mxCell id="yPODJ5ue4MWIPqrNUil7-20" value="" style="edgeStyle=orthogonalEdgeStyle;rounded=0;orthogonalLoop=1;jettySize=auto;html=1;endArrow=none;endFill=0;" parent="1" source="yPODJ5ue4MWIPqrNUil7-21" target="yPODJ5ue4MWIPqrNUil7-19" edge="1">
          <mxGeometry relative="1" as="geometry" />
        </mxCell>
        <mxCell id="yPODJ5ue4MWIPqrNUil7-21" value="imparte" style="rhombus;whiteSpace=wrap;html=1;fillColor=#d5e8d4;strokeColor=#82b366;" parent="1" vertex="1">
          <mxGeometry x="372.5" y="868" width="80" height="80" as="geometry" />
        </mxCell>
        <mxCell id="yPODJ5ue4MWIPqrNUil7-22" value="1:N" style="text;html=1;strokeColor=none;fillColor=none;align=center;verticalAlign=middle;whiteSpace=wrap;rounded=0;" parent="1" vertex="1">
          <mxGeometry x="442.5" y="878" width="60" height="30" as="geometry" />
        </mxCell>
        <mxCell id="yPODJ5ue4MWIPqrNUil7-23" value="1:N" style="text;html=1;strokeColor=none;fillColor=none;align=center;verticalAlign=middle;whiteSpace=wrap;rounded=0;" parent="1" vertex="1">
          <mxGeometry x="322.5" y="878" width="60" height="30" as="geometry" />
        </mxCell>
        <mxCell id="yPODJ5ue4MWIPqrNUil7-24" value="N:M" style="text;html=1;strokeColor=none;fillColor=none;align=center;verticalAlign=middle;whiteSpace=wrap;rounded=0;" parent="1" vertex="1">
          <mxGeometry x="377.5" y="844" width="60" height="30" as="geometry" />
        </mxCell>
        <mxCell id="yPODJ5ue4MWIPqrNUil7-25" value="" style="edgeStyle=orthogonalEdgeStyle;rounded=0;orthogonalLoop=1;jettySize=auto;html=1;endArrow=none;endFill=0;" parent="1" source="yPODJ5ue4MWIPqrNUil7-26" target="yPODJ5ue4MWIPqrNUil7-29" edge="1">
          <mxGeometry relative="1" as="geometry" />
        </mxCell>
        <mxCell id="yPODJ5ue4MWIPqrNUil7-26" value="ASIGNATURA" style="rounded=0;whiteSpace=wrap;html=1;fillColor=#dae8fc;strokeColor=#6c8ebf;" parent="1" vertex="1">
          <mxGeometry x="100" y="1330" width="120" height="60" as="geometry" />
        </mxCell>
        <mxCell id="yPODJ5ue4MWIPqrNUil7-27" value="CURSO" style="rounded=0;whiteSpace=wrap;html=1;fillColor=#dae8fc;strokeColor=#6c8ebf;" parent="1" vertex="1">
          <mxGeometry x="400" y="1330" width="120" height="60" as="geometry" />
        </mxCell>
        <mxCell id="yPODJ5ue4MWIPqrNUil7-28" value="" style="edgeStyle=orthogonalEdgeStyle;rounded=0;orthogonalLoop=1;jettySize=auto;html=1;endArrow=none;endFill=0;" parent="1" source="yPODJ5ue4MWIPqrNUil7-29" target="yPODJ5ue4MWIPqrNUil7-27" edge="1">
          <mxGeometry relative="1" as="geometry" />
        </mxCell>
        <mxCell id="yPODJ5ue4MWIPqrNUil7-29" value="relacionada" style="rhombus;whiteSpace=wrap;html=1;fillColor=#d5e8d4;strokeColor=#82b366;" parent="1" vertex="1">
          <mxGeometry x="270" y="1320" width="80" height="80" as="geometry" />
        </mxCell>
        <mxCell id="yPODJ5ue4MWIPqrNUil7-30" value="1:N" style="text;html=1;strokeColor=none;fillColor=none;align=center;verticalAlign=middle;whiteSpace=wrap;rounded=0;" parent="1" vertex="1">
          <mxGeometry x="340" y="1330" width="60" height="30" as="geometry" />
        </mxCell>
        <mxCell id="yPODJ5ue4MWIPqrNUil7-31" value="1:N" style="text;html=1;strokeColor=none;fillColor=none;align=center;verticalAlign=middle;whiteSpace=wrap;rounded=0;" parent="1" vertex="1">
          <mxGeometry x="220" y="1330" width="60" height="30" as="geometry" />
        </mxCell>
        <mxCell id="yPODJ5ue4MWIPqrNUil7-32" value="N:M" style="text;html=1;strokeColor=none;fillColor=none;align=center;verticalAlign=middle;whiteSpace=wrap;rounded=0;" parent="1" vertex="1">
          <mxGeometry x="280" y="1298" width="60" height="30" as="geometry" />
        </mxCell>
        <mxCell id="yPODJ5ue4MWIPqrNUil7-50" value="" style="edgeStyle=orthogonalEdgeStyle;rounded=0;orthogonalLoop=1;jettySize=auto;html=1;endArrow=none;endFill=0;" parent="1" source="yPODJ5ue4MWIPqrNUil7-51" target="yPODJ5ue4MWIPqrNUil7-54" edge="1">
          <mxGeometry relative="1" as="geometry" />
        </mxCell>
        <mxCell id="yPODJ5ue4MWIPqrNUil7-51" value="AULA" style="rounded=0;whiteSpace=wrap;html=1;fillColor=#dae8fc;strokeColor=#6c8ebf;" parent="1" vertex="1">
          <mxGeometry x="100" y="1664" width="120" height="60" as="geometry" />
        </mxCell>
        <mxCell id="yPODJ5ue4MWIPqrNUil7-52" value="CURSO" style="rounded=0;whiteSpace=wrap;html=1;fillColor=#dae8fc;strokeColor=#6c8ebf;" parent="1" vertex="1">
          <mxGeometry x="400" y="1664" width="120" height="60" as="geometry" />
        </mxCell>
        <mxCell id="yPODJ5ue4MWIPqrNUil7-53" value="" style="edgeStyle=orthogonalEdgeStyle;rounded=0;orthogonalLoop=1;jettySize=auto;html=1;endArrow=none;endFill=0;" parent="1" source="yPODJ5ue4MWIPqrNUil7-54" target="yPODJ5ue4MWIPqrNUil7-52" edge="1">
          <mxGeometry relative="1" as="geometry" />
        </mxCell>
        <mxCell id="yPODJ5ue4MWIPqrNUil7-54" value="lleva a cabo" style="rhombus;whiteSpace=wrap;html=1;fillColor=#d5e8d4;strokeColor=#82b366;" parent="1" vertex="1">
          <mxGeometry x="270" y="1654" width="80" height="80" as="geometry" />
        </mxCell>
        <mxCell id="yPODJ5ue4MWIPqrNUil7-55" value="1:N" style="text;html=1;strokeColor=none;fillColor=none;align=center;verticalAlign=middle;whiteSpace=wrap;rounded=0;" parent="1" vertex="1">
          <mxGeometry x="340" y="1664" width="60" height="30" as="geometry" />
        </mxCell>
        <mxCell id="yPODJ5ue4MWIPqrNUil7-56" value="1:N" style="text;html=1;strokeColor=none;fillColor=none;align=center;verticalAlign=middle;whiteSpace=wrap;rounded=0;" parent="1" vertex="1">
          <mxGeometry x="220" y="1664" width="60" height="30" as="geometry" />
        </mxCell>
        <mxCell id="yPODJ5ue4MWIPqrNUil7-57" value="N:M" style="text;html=1;strokeColor=none;fillColor=none;align=center;verticalAlign=middle;whiteSpace=wrap;rounded=0;" parent="1" vertex="1">
          <mxGeometry x="280" y="1632" width="60" height="30" as="geometry" />
        </mxCell>
        <mxCell id="yPODJ5ue4MWIPqrNUil7-58" value="" style="edgeStyle=orthogonalEdgeStyle;rounded=0;orthogonalLoop=1;jettySize=auto;html=1;endArrow=none;endFill=0;" parent="1" source="yPODJ5ue4MWIPqrNUil7-59" target="yPODJ5ue4MWIPqrNUil7-62" edge="1">
          <mxGeometry relative="1" as="geometry" />
        </mxCell>
        <mxCell id="yPODJ5ue4MWIPqrNUil7-59" value="DEPARTAMENTO" style="rounded=0;whiteSpace=wrap;html=1;fillColor=#dae8fc;strokeColor=#6c8ebf;" parent="1" vertex="1">
          <mxGeometry x="100" y="2000" width="120" height="60" as="geometry" />
        </mxCell>
        <mxCell id="yPODJ5ue4MWIPqrNUil7-60" value="PROGRAMA ACADÉMICO" style="rounded=0;whiteSpace=wrap;html=1;fillColor=#dae8fc;strokeColor=#6c8ebf;" parent="1" vertex="1">
          <mxGeometry x="400" y="2000" width="120" height="60" as="geometry" />
        </mxCell>
        <mxCell id="yPODJ5ue4MWIPqrNUil7-61" value="" style="edgeStyle=orthogonalEdgeStyle;rounded=0;orthogonalLoop=1;jettySize=auto;html=1;endArrow=none;endFill=0;" parent="1" source="yPODJ5ue4MWIPqrNUil7-62" target="yPODJ5ue4MWIPqrNUil7-60" edge="1">
          <mxGeometry relative="1" as="geometry" />
        </mxCell>
        <mxCell id="yPODJ5ue4MWIPqrNUil7-62" value="asociado" style="rhombus;whiteSpace=wrap;html=1;fillColor=#d5e8d4;strokeColor=#82b366;" parent="1" vertex="1">
          <mxGeometry x="270" y="1990" width="80" height="80" as="geometry" />
        </mxCell>
        <mxCell id="yPODJ5ue4MWIPqrNUil7-63" value="1:N" style="text;html=1;strokeColor=none;fillColor=none;align=center;verticalAlign=middle;whiteSpace=wrap;rounded=0;" parent="1" vertex="1">
          <mxGeometry x="340" y="2000" width="60" height="30" as="geometry" />
        </mxCell>
        <mxCell id="yPODJ5ue4MWIPqrNUil7-64" value="1:N" style="text;html=1;strokeColor=none;fillColor=none;align=center;verticalAlign=middle;whiteSpace=wrap;rounded=0;" parent="1" vertex="1">
          <mxGeometry x="220" y="2000" width="60" height="30" as="geometry" />
        </mxCell>
        <mxCell id="yPODJ5ue4MWIPqrNUil7-65" value="N:M" style="text;html=1;strokeColor=none;fillColor=none;align=center;verticalAlign=middle;whiteSpace=wrap;rounded=0;" parent="1" vertex="1">
          <mxGeometry x="280" y="1968" width="60" height="30" as="geometry" />
        </mxCell>
        <mxCell id="yPODJ5ue4MWIPqrNUil7-66" value="" style="edgeStyle=orthogonalEdgeStyle;rounded=0;orthogonalLoop=1;jettySize=auto;html=1;endArrow=none;endFill=0;exitX=1;exitY=0.5;exitDx=0;exitDy=0;" parent="1" source="VDzh7EiB1U5KI5voId9q-88" target="yPODJ5ue4MWIPqrNUil7-70" edge="1">
          <mxGeometry relative="1" as="geometry">
            <mxPoint x="257.5" y="2340" as="sourcePoint" />
          </mxGeometry>
        </mxCell>
        <mxCell id="yPODJ5ue4MWIPqrNUil7-68" value="CURSO" style="rounded=0;whiteSpace=wrap;html=1;fillColor=#dae8fc;strokeColor=#6c8ebf;" parent="1" vertex="1">
          <mxGeometry x="437.5" y="2310" width="120" height="60" as="geometry" />
        </mxCell>
        <mxCell id="yPODJ5ue4MWIPqrNUil7-69" value="" style="edgeStyle=orthogonalEdgeStyle;rounded=0;orthogonalLoop=1;jettySize=auto;html=1;endArrow=none;endFill=0;" parent="1" source="yPODJ5ue4MWIPqrNUil7-70" target="yPODJ5ue4MWIPqrNUil7-68" edge="1">
          <mxGeometry relative="1" as="geometry" />
        </mxCell>
        <mxCell id="yPODJ5ue4MWIPqrNUil7-70" value="matriculado" style="rhombus;whiteSpace=wrap;html=1;fillColor=#d5e8d4;strokeColor=#82b366;" parent="1" vertex="1">
          <mxGeometry x="307.5" y="2300" width="80" height="80" as="geometry" />
        </mxCell>
        <mxCell id="yPODJ5ue4MWIPqrNUil7-71" value="1:N" style="text;html=1;strokeColor=none;fillColor=none;align=center;verticalAlign=middle;whiteSpace=wrap;rounded=0;" parent="1" vertex="1">
          <mxGeometry x="377.5" y="2310" width="60" height="30" as="geometry" />
        </mxCell>
        <mxCell id="yPODJ5ue4MWIPqrNUil7-72" value="1:N" style="text;html=1;strokeColor=none;fillColor=none;align=center;verticalAlign=middle;whiteSpace=wrap;rounded=0;" parent="1" vertex="1">
          <mxGeometry x="257.5" y="2300" width="60" height="30" as="geometry" />
        </mxCell>
        <mxCell id="yPODJ5ue4MWIPqrNUil7-73" value="N:M" style="text;html=1;strokeColor=none;fillColor=none;align=center;verticalAlign=middle;whiteSpace=wrap;rounded=0;" parent="1" vertex="1">
          <mxGeometry x="317.5" y="2278" width="60" height="30" as="geometry" />
        </mxCell>
        <mxCell id="yPODJ5ue4MWIPqrNUil7-83" value="" style="edgeStyle=orthogonalEdgeStyle;rounded=0;orthogonalLoop=1;jettySize=auto;html=1;endArrow=none;endFill=0;" parent="1" target="yPODJ5ue4MWIPqrNUil7-87" edge="1">
          <mxGeometry relative="1" as="geometry">
            <mxPoint x="235" y="2765" as="sourcePoint" />
          </mxGeometry>
        </mxCell>
        <mxCell id="yPODJ5ue4MWIPqrNUil7-85" value="ASIGNATURA" style="rounded=0;whiteSpace=wrap;html=1;fillColor=#dae8fc;strokeColor=#6c8ebf;" parent="1" vertex="1">
          <mxGeometry x="415" y="2735" width="120" height="60" as="geometry" />
        </mxCell>
        <mxCell id="yPODJ5ue4MWIPqrNUil7-86" value="" style="edgeStyle=orthogonalEdgeStyle;rounded=0;orthogonalLoop=1;jettySize=auto;html=1;endArrow=none;endFill=0;" parent="1" source="yPODJ5ue4MWIPqrNUil7-87" target="yPODJ5ue4MWIPqrNUil7-85" edge="1">
          <mxGeometry relative="1" as="geometry" />
        </mxCell>
        <mxCell id="yPODJ5ue4MWIPqrNUil7-87" value="cursa" style="rhombus;whiteSpace=wrap;html=1;fillColor=#d5e8d4;strokeColor=#82b366;" parent="1" vertex="1">
          <mxGeometry x="285" y="2725" width="80" height="80" as="geometry" />
        </mxCell>
        <mxCell id="yPODJ5ue4MWIPqrNUil7-88" value="1:N" style="text;html=1;strokeColor=none;fillColor=none;align=center;verticalAlign=middle;whiteSpace=wrap;rounded=0;" parent="1" vertex="1">
          <mxGeometry x="355" y="2735" width="60" height="30" as="geometry" />
        </mxCell>
        <mxCell id="yPODJ5ue4MWIPqrNUil7-89" value="1:N" style="text;html=1;strokeColor=none;fillColor=none;align=center;verticalAlign=middle;whiteSpace=wrap;rounded=0;" parent="1" vertex="1">
          <mxGeometry x="235" y="2735" width="60" height="30" as="geometry" />
        </mxCell>
        <mxCell id="yPODJ5ue4MWIPqrNUil7-90" value="N:M" style="text;html=1;strokeColor=none;fillColor=none;align=center;verticalAlign=middle;whiteSpace=wrap;rounded=0;" parent="1" vertex="1">
          <mxGeometry x="295" y="2705" width="60" height="30" as="geometry" />
        </mxCell>
        <mxCell id="VDzh7EiB1U5KI5voId9q-13" style="edgeStyle=orthogonalEdgeStyle;rounded=0;orthogonalLoop=1;jettySize=auto;html=1;exitX=0.5;exitY=0;exitDx=0;exitDy=0;entryX=0.5;entryY=1;entryDx=0;entryDy=0;endArrow=none;endFill=0;" parent="1" source="yPODJ5ue4MWIPqrNUil7-92" target="yPODJ5ue4MWIPqrNUil7-87" edge="1">
          <mxGeometry relative="1" as="geometry" />
        </mxCell>
        <mxCell id="yPODJ5ue4MWIPqrNUil7-92" value="Notas" style="ellipse;whiteSpace=wrap;html=1;align=center;fillColor=#fff2cc;strokeColor=#d6b656;" parent="1" vertex="1">
          <mxGeometry x="275" y="2823" width="100" height="40" as="geometry" />
        </mxCell>
        <mxCell id="yPODJ5ue4MWIPqrNUil7-111" style="edgeStyle=orthogonalEdgeStyle;rounded=0;orthogonalLoop=1;jettySize=auto;html=1;endArrow=none;endFill=0;entryX=0.5;entryY=0;entryDx=0;entryDy=0;" parent="1" edge="1">
          <mxGeometry relative="1" as="geometry">
            <mxPoint x="1900" y="348.89" as="targetPoint" />
            <mxPoint x="1690" y="351.89" as="sourcePoint" />
            <Array as="points">
              <mxPoint x="1690" y="321.96000000000004" />
              <mxPoint x="1900" y="321.96000000000004" />
            </Array>
          </mxGeometry>
        </mxCell>
        <mxCell id="yPODJ5ue4MWIPqrNUil7-100" value="ASIGNATURA" style="rounded=0;whiteSpace=wrap;html=1;fillColor=#dae8fc;strokeColor=#6c8ebf;" parent="1" vertex="1">
          <mxGeometry x="1640" y="353.89" width="120" height="60" as="geometry" />
        </mxCell>
        <mxCell id="yPODJ5ue4MWIPqrNUil7-103" style="edgeStyle=orthogonalEdgeStyle;rounded=0;orthogonalLoop=1;jettySize=auto;html=1;entryX=0.44;entryY=1.023;entryDx=0;entryDy=0;entryPerimeter=0;endArrow=none;endFill=0;exitX=0.5;exitY=1;exitDx=0;exitDy=0;" parent="1" target="yPODJ5ue4MWIPqrNUil7-100" edge="1">
          <mxGeometry relative="1" as="geometry">
            <mxPoint x="1900" y="428.89" as="sourcePoint" />
            <Array as="points">
              <mxPoint x="1900" y="451.96000000000004" />
              <mxPoint x="1693" y="451.96000000000004" />
            </Array>
          </mxGeometry>
        </mxCell>
        <mxCell id="yPODJ5ue4MWIPqrNUil7-105" value="1:N" style="text;html=1;strokeColor=none;fillColor=none;align=center;verticalAlign=middle;whiteSpace=wrap;rounded=0;" parent="1" vertex="1">
          <mxGeometry x="1940" y="373.89" width="60" height="30" as="geometry" />
        </mxCell>
        <mxCell id="VDzh7EiB1U5KI5voId9q-2" value="EVENTO" style="rounded=0;whiteSpace=wrap;html=1;fillColor=#dae8fc;strokeColor=#6c8ebf;" parent="1" vertex="1">
          <mxGeometry x="1172.5" y="1590" width="120" height="60" as="geometry" />
        </mxCell>
        <mxCell id="VDzh7EiB1U5KI5voId9q-3" value="UNIVERSIDAD" style="rounded=0;whiteSpace=wrap;html=1;fillColor=#dae8fc;strokeColor=#6c8ebf;" parent="1" vertex="1">
          <mxGeometry x="872.5" y="1590" width="120" height="60" as="geometry" />
        </mxCell>
        <mxCell id="VDzh7EiB1U5KI5voId9q-5" style="edgeStyle=orthogonalEdgeStyle;rounded=0;orthogonalLoop=1;jettySize=auto;html=1;entryX=0;entryY=0.5;entryDx=0;entryDy=0;endArrow=none;endFill=0;" parent="1" source="VDzh7EiB1U5KI5voId9q-4" target="VDzh7EiB1U5KI5voId9q-2" edge="1">
          <mxGeometry relative="1" as="geometry" />
        </mxCell>
        <mxCell id="VDzh7EiB1U5KI5voId9q-6" style="edgeStyle=orthogonalEdgeStyle;rounded=0;orthogonalLoop=1;jettySize=auto;html=1;entryX=1;entryY=0.5;entryDx=0;entryDy=0;endArrow=none;endFill=0;" parent="1" source="VDzh7EiB1U5KI5voId9q-4" target="VDzh7EiB1U5KI5voId9q-3" edge="1">
          <mxGeometry relative="1" as="geometry" />
        </mxCell>
        <mxCell id="VDzh7EiB1U5KI5voId9q-4" value="organiza" style="rhombus;whiteSpace=wrap;html=1;fillColor=#d5e8d4;strokeColor=#82b366;" parent="1" vertex="1">
          <mxGeometry x="1042.5" y="1580" width="80" height="80" as="geometry" />
        </mxCell>
        <mxCell id="VDzh7EiB1U5KI5voId9q-151" value="" style="edgeStyle=orthogonalEdgeStyle;rounded=0;orthogonalLoop=1;jettySize=auto;html=1;endArrow=none;endFill=0;" parent="1" source="VDzh7EiB1U5KI5voId9q-7" target="VDzh7EiB1U5KI5voId9q-150" edge="1">
          <mxGeometry relative="1" as="geometry" />
        </mxCell>
        <mxCell id="VDzh7EiB1U5KI5voId9q-7" value="EVENTO" style="rounded=0;whiteSpace=wrap;html=1;fillColor=#dae8fc;strokeColor=#6c8ebf;" parent="1" vertex="1">
          <mxGeometry x="872.5" y="1792" width="120" height="60" as="geometry" />
        </mxCell>
        <mxCell id="VDzh7EiB1U5KI5voId9q-9" value="EMPRESA ASOCIADA" style="rounded=0;whiteSpace=wrap;html=1;fillColor=#dae8fc;strokeColor=#6c8ebf;" parent="1" vertex="1">
          <mxGeometry x="1172.5" y="1792" width="120" height="60" as="geometry" />
        </mxCell>
        <mxCell id="VDzh7EiB1U5KI5voId9q-11" style="edgeStyle=orthogonalEdgeStyle;rounded=0;orthogonalLoop=1;jettySize=auto;html=1;entryX=1;entryY=0.5;entryDx=0;entryDy=0;endArrow=none;endFill=0;" parent="1" source="VDzh7EiB1U5KI5voId9q-10" target="VDzh7EiB1U5KI5voId9q-7" edge="1">
          <mxGeometry relative="1" as="geometry" />
        </mxCell>
        <mxCell id="VDzh7EiB1U5KI5voId9q-12" style="edgeStyle=orthogonalEdgeStyle;rounded=0;orthogonalLoop=1;jettySize=auto;html=1;endArrow=none;endFill=0;" parent="1" source="VDzh7EiB1U5KI5voId9q-10" target="VDzh7EiB1U5KI5voId9q-9" edge="1">
          <mxGeometry relative="1" as="geometry" />
        </mxCell>
        <mxCell id="VDzh7EiB1U5KI5voId9q-10" value="patrocinan" style="rhombus;whiteSpace=wrap;html=1;fillColor=#d5e8d4;strokeColor=#82b366;" parent="1" vertex="1">
          <mxGeometry x="1042.5" y="1782" width="80" height="80" as="geometry" />
        </mxCell>
        <mxCell id="VDzh7EiB1U5KI5voId9q-14" value="0:N" style="text;html=1;align=center;verticalAlign=middle;resizable=0;points=[];autosize=1;strokeColor=none;fillColor=none;" parent="1" vertex="1">
          <mxGeometry x="1127.5" y="1590" width="40" height="30" as="geometry" />
        </mxCell>
        <mxCell id="VDzh7EiB1U5KI5voId9q-15" value="0:1" style="text;html=1;align=center;verticalAlign=middle;resizable=0;points=[];autosize=1;strokeColor=none;fillColor=none;" parent="1" vertex="1">
          <mxGeometry x="997.5" y="1590" width="40" height="30" as="geometry" />
        </mxCell>
        <mxCell id="VDzh7EiB1U5KI5voId9q-16" value="1:N" style="text;html=1;align=center;verticalAlign=middle;resizable=0;points=[];autosize=1;strokeColor=none;fillColor=none;" parent="1" vertex="1">
          <mxGeometry x="1062.5" y="1560" width="40" height="30" as="geometry" />
        </mxCell>
        <mxCell id="VDzh7EiB1U5KI5voId9q-17" value="1:N" style="text;html=1;align=center;verticalAlign=middle;resizable=0;points=[];autosize=1;strokeColor=none;fillColor=none;" parent="1" vertex="1">
          <mxGeometry x="1127.5" y="1792" width="40" height="30" as="geometry" />
        </mxCell>
        <mxCell id="VDzh7EiB1U5KI5voId9q-18" value="0:N" style="text;html=1;align=center;verticalAlign=middle;resizable=0;points=[];autosize=1;strokeColor=none;fillColor=none;" parent="1" vertex="1">
          <mxGeometry x="997.5" y="1792" width="40" height="30" as="geometry" />
        </mxCell>
        <mxCell id="VDzh7EiB1U5KI5voId9q-19" value="N:M" style="text;html=1;align=center;verticalAlign=middle;resizable=0;points=[];autosize=1;strokeColor=none;fillColor=none;" parent="1" vertex="1">
          <mxGeometry x="1057.5" y="1760" width="50" height="30" as="geometry" />
        </mxCell>
        <mxCell id="VDzh7EiB1U5KI5voId9q-20" value="" style="endArrow=classic;html=1;rounded=0;endFill=1;" parent="1" edge="1">
          <mxGeometry relative="1" as="geometry">
            <mxPoint x="1402.5" y="1821" as="sourcePoint" />
            <mxPoint x="1332.5" y="1820.95" as="targetPoint" />
          </mxGeometry>
        </mxCell>
        <mxCell id="VDzh7EiB1U5KI5voId9q-22" value="Revisar" style="text;html=1;align=center;verticalAlign=middle;resizable=0;points=[];autosize=1;strokeColor=none;fillColor=none;" parent="1" vertex="1">
          <mxGeometry x="1347.5" y="1792" width="60" height="30" as="geometry" />
        </mxCell>
        <mxCell id="VDzh7EiB1U5KI5voId9q-23" value="" style="endArrow=classic;html=1;rounded=0;endFill=1;" parent="1" edge="1">
          <mxGeometry relative="1" as="geometry">
            <mxPoint x="625" y="2759" as="sourcePoint" />
            <mxPoint x="555" y="2758.95" as="targetPoint" />
          </mxGeometry>
        </mxCell>
        <mxCell id="VDzh7EiB1U5KI5voId9q-24" value="Revisar" style="text;html=1;align=center;verticalAlign=middle;resizable=0;points=[];autosize=1;strokeColor=none;fillColor=none;" parent="1" vertex="1">
          <mxGeometry x="570" y="2730" width="60" height="30" as="geometry" />
        </mxCell>
        <mxCell id="VDzh7EiB1U5KI5voId9q-25" value="" style="endArrow=classic;html=1;rounded=0;endFill=1;" parent="1" edge="1">
          <mxGeometry relative="1" as="geometry">
            <mxPoint x="2070" y="392.89" as="sourcePoint" />
            <mxPoint x="2000" y="392.84000000000003" as="targetPoint" />
          </mxGeometry>
        </mxCell>
        <mxCell id="VDzh7EiB1U5KI5voId9q-26" value="Revisar" style="text;html=1;align=center;verticalAlign=middle;resizable=0;points=[];autosize=1;strokeColor=none;fillColor=none;" parent="1" vertex="1">
          <mxGeometry x="2015" y="363.89" width="60" height="30" as="geometry" />
        </mxCell>
        <mxCell id="VDzh7EiB1U5KI5voId9q-30" value="BECA" style="rounded=0;whiteSpace=wrap;html=1;fillColor=#dae8fc;strokeColor=#6c8ebf;" parent="1" vertex="1">
          <mxGeometry x="1170" y="1960" width="120" height="60" as="geometry" />
        </mxCell>
        <mxCell id="VDzh7EiB1U5KI5voId9q-32" style="edgeStyle=orthogonalEdgeStyle;rounded=0;orthogonalLoop=1;jettySize=auto;html=1;entryX=1;entryY=0.5;entryDx=0;entryDy=0;endArrow=none;endFill=0;" parent="1" source="VDzh7EiB1U5KI5voId9q-31" edge="1">
          <mxGeometry relative="1" as="geometry">
            <mxPoint x="990" y="1990" as="targetPoint" />
          </mxGeometry>
        </mxCell>
        <mxCell id="VDzh7EiB1U5KI5voId9q-33" style="edgeStyle=orthogonalEdgeStyle;rounded=0;orthogonalLoop=1;jettySize=auto;html=1;entryX=0;entryY=0.5;entryDx=0;entryDy=0;endArrow=none;endFill=0;" parent="1" source="VDzh7EiB1U5KI5voId9q-31" target="VDzh7EiB1U5KI5voId9q-30" edge="1">
          <mxGeometry relative="1" as="geometry" />
        </mxCell>
        <mxCell id="VDzh7EiB1U5KI5voId9q-31" value="recibe" style="rhombus;whiteSpace=wrap;html=1;fillColor=#d5e8d4;strokeColor=#82b366;" parent="1" vertex="1">
          <mxGeometry x="1040" y="1950" width="80" height="80" as="geometry" />
        </mxCell>
        <mxCell id="VDzh7EiB1U5KI5voId9q-34" value="0:N" style="text;html=1;align=center;verticalAlign=middle;resizable=0;points=[];autosize=1;strokeColor=none;fillColor=none;" parent="1" vertex="1">
          <mxGeometry x="1125" y="1960" width="40" height="30" as="geometry" />
        </mxCell>
        <mxCell id="VDzh7EiB1U5KI5voId9q-35" value="1:N" style="text;html=1;align=center;verticalAlign=middle;resizable=0;points=[];autosize=1;strokeColor=none;fillColor=none;" parent="1" vertex="1">
          <mxGeometry x="995" y="1960" width="40" height="30" as="geometry" />
        </mxCell>
        <mxCell id="VDzh7EiB1U5KI5voId9q-37" value="N:M" style="text;html=1;align=center;verticalAlign=middle;resizable=0;points=[];autosize=1;strokeColor=none;fillColor=none;" parent="1" vertex="1">
          <mxGeometry x="1055" y="1930" width="50" height="30" as="geometry" />
        </mxCell>
        <mxCell id="VDzh7EiB1U5KI5voId9q-38" value="BIBLIOTECA" style="rounded=0;whiteSpace=wrap;html=1;fillColor=#dae8fc;strokeColor=#6c8ebf;" parent="1" vertex="1">
          <mxGeometry x="870" y="2182" width="120" height="60" as="geometry" />
        </mxCell>
        <mxCell id="VDzh7EiB1U5KI5voId9q-39" value="LIBRO" style="rounded=0;whiteSpace=wrap;html=1;fillColor=#dae8fc;strokeColor=#6c8ebf;" parent="1" vertex="1">
          <mxGeometry x="1170" y="2182" width="120" height="60" as="geometry" />
        </mxCell>
        <mxCell id="VDzh7EiB1U5KI5voId9q-41" style="edgeStyle=orthogonalEdgeStyle;rounded=0;orthogonalLoop=1;jettySize=auto;html=1;entryX=0;entryY=0.5;entryDx=0;entryDy=0;endArrow=none;endFill=0;" parent="1" source="VDzh7EiB1U5KI5voId9q-40" target="VDzh7EiB1U5KI5voId9q-39" edge="1">
          <mxGeometry relative="1" as="geometry" />
        </mxCell>
        <mxCell id="VDzh7EiB1U5KI5voId9q-42" style="edgeStyle=orthogonalEdgeStyle;rounded=0;orthogonalLoop=1;jettySize=auto;html=1;entryX=1;entryY=0.5;entryDx=0;entryDy=0;endArrow=none;endFill=0;" parent="1" source="VDzh7EiB1U5KI5voId9q-40" target="VDzh7EiB1U5KI5voId9q-38" edge="1">
          <mxGeometry relative="1" as="geometry" />
        </mxCell>
        <mxCell id="VDzh7EiB1U5KI5voId9q-40" value="tiene" style="rhombus;whiteSpace=wrap;html=1;fillColor=#d5e8d4;strokeColor=#82b366;" parent="1" vertex="1">
          <mxGeometry x="1040" y="2172" width="80" height="80" as="geometry" />
        </mxCell>
        <mxCell id="VDzh7EiB1U5KI5voId9q-43" value="1:N" style="text;html=1;align=center;verticalAlign=middle;resizable=0;points=[];autosize=1;strokeColor=none;fillColor=none;" parent="1" vertex="1">
          <mxGeometry x="1125" y="2182" width="40" height="30" as="geometry" />
        </mxCell>
        <mxCell id="VDzh7EiB1U5KI5voId9q-44" value="0:1" style="text;html=1;align=center;verticalAlign=middle;resizable=0;points=[];autosize=1;strokeColor=none;fillColor=none;" parent="1" vertex="1">
          <mxGeometry x="995" y="2182" width="40" height="30" as="geometry" />
        </mxCell>
        <mxCell id="VDzh7EiB1U5KI5voId9q-45" value="1:N" style="text;html=1;align=center;verticalAlign=middle;resizable=0;points=[];autosize=1;strokeColor=none;fillColor=none;" parent="1" vertex="1">
          <mxGeometry x="1060" y="2152" width="40" height="30" as="geometry" />
        </mxCell>
        <mxCell id="VDzh7EiB1U5KI5voId9q-46" value="LIBRO" style="rounded=0;whiteSpace=wrap;html=1;fillColor=#dae8fc;strokeColor=#6c8ebf;" parent="1" vertex="1">
          <mxGeometry x="870" y="2324" width="120" height="60" as="geometry" />
        </mxCell>
        <mxCell id="VDzh7EiB1U5KI5voId9q-49" value="GÉNERO" style="rounded=0;whiteSpace=wrap;html=1;fillColor=#dae8fc;strokeColor=#6c8ebf;" parent="1" vertex="1">
          <mxGeometry x="1170" y="2324" width="120" height="60" as="geometry" />
        </mxCell>
        <mxCell id="VDzh7EiB1U5KI5voId9q-51" style="edgeStyle=orthogonalEdgeStyle;rounded=0;orthogonalLoop=1;jettySize=auto;html=1;entryX=0;entryY=0.5;entryDx=0;entryDy=0;endArrow=none;endFill=0;" parent="1" source="VDzh7EiB1U5KI5voId9q-50" target="VDzh7EiB1U5KI5voId9q-49" edge="1">
          <mxGeometry relative="1" as="geometry" />
        </mxCell>
        <mxCell id="VDzh7EiB1U5KI5voId9q-52" style="edgeStyle=orthogonalEdgeStyle;rounded=0;orthogonalLoop=1;jettySize=auto;html=1;entryX=1;entryY=0.5;entryDx=0;entryDy=0;endArrow=none;endFill=0;" parent="1" source="VDzh7EiB1U5KI5voId9q-50" target="VDzh7EiB1U5KI5voId9q-46" edge="1">
          <mxGeometry relative="1" as="geometry" />
        </mxCell>
        <mxCell id="VDzh7EiB1U5KI5voId9q-50" value="tiene" style="rhombus;whiteSpace=wrap;html=1;fillColor=#d5e8d4;strokeColor=#82b366;" parent="1" vertex="1">
          <mxGeometry x="1040" y="2314" width="80" height="80" as="geometry" />
        </mxCell>
        <mxCell id="VDzh7EiB1U5KI5voId9q-53" value="1:N" style="text;html=1;align=center;verticalAlign=middle;resizable=0;points=[];autosize=1;strokeColor=none;fillColor=none;" parent="1" vertex="1">
          <mxGeometry x="1125" y="2324" width="40" height="30" as="geometry" />
        </mxCell>
        <mxCell id="VDzh7EiB1U5KI5voId9q-54" value="1:N" style="text;html=1;align=center;verticalAlign=middle;resizable=0;points=[];autosize=1;strokeColor=none;fillColor=none;" parent="1" vertex="1">
          <mxGeometry x="995" y="2324" width="40" height="30" as="geometry" />
        </mxCell>
        <mxCell id="VDzh7EiB1U5KI5voId9q-55" value="N:M" style="text;html=1;align=center;verticalAlign=middle;resizable=0;points=[];autosize=1;strokeColor=none;fillColor=none;" parent="1" vertex="1">
          <mxGeometry x="1055" y="2292" width="50" height="30" as="geometry" />
        </mxCell>
        <mxCell id="VDzh7EiB1U5KI5voId9q-56" value="EMPLEADOS ADMINISTRATIVOS" style="rounded=0;whiteSpace=wrap;html=1;fillColor=#dae8fc;strokeColor=#6c8ebf;" parent="1" vertex="1">
          <mxGeometry x="860" y="2482" width="120" height="60" as="geometry" />
        </mxCell>
        <mxCell id="VDzh7EiB1U5KI5voId9q-57" value="DEPARTAMENTO" style="rounded=0;whiteSpace=wrap;html=1;fillColor=#dae8fc;strokeColor=#6c8ebf;" parent="1" vertex="1">
          <mxGeometry x="1160" y="2482" width="120" height="60" as="geometry" />
        </mxCell>
        <mxCell id="VDzh7EiB1U5KI5voId9q-58" style="edgeStyle=orthogonalEdgeStyle;rounded=0;orthogonalLoop=1;jettySize=auto;html=1;entryX=0;entryY=0.5;entryDx=0;entryDy=0;endArrow=none;endFill=0;" parent="1" source="VDzh7EiB1U5KI5voId9q-60" target="VDzh7EiB1U5KI5voId9q-57" edge="1">
          <mxGeometry relative="1" as="geometry" />
        </mxCell>
        <mxCell id="VDzh7EiB1U5KI5voId9q-59" style="edgeStyle=orthogonalEdgeStyle;rounded=0;orthogonalLoop=1;jettySize=auto;html=1;entryX=1;entryY=0.5;entryDx=0;entryDy=0;endArrow=none;endFill=0;" parent="1" source="VDzh7EiB1U5KI5voId9q-60" target="VDzh7EiB1U5KI5voId9q-56" edge="1">
          <mxGeometry relative="1" as="geometry" />
        </mxCell>
        <mxCell id="VDzh7EiB1U5KI5voId9q-60" value="tiene" style="rhombus;whiteSpace=wrap;html=1;fillColor=#d5e8d4;strokeColor=#82b366;" parent="1" vertex="1">
          <mxGeometry x="1030" y="2472" width="80" height="80" as="geometry" />
        </mxCell>
        <mxCell id="VDzh7EiB1U5KI5voId9q-61" value="1:N" style="text;html=1;align=center;verticalAlign=middle;resizable=0;points=[];autosize=1;strokeColor=none;fillColor=none;" parent="1" vertex="1">
          <mxGeometry x="1115" y="2482" width="40" height="30" as="geometry" />
        </mxCell>
        <mxCell id="VDzh7EiB1U5KI5voId9q-62" value="1:N" style="text;html=1;align=center;verticalAlign=middle;resizable=0;points=[];autosize=1;strokeColor=none;fillColor=none;" parent="1" vertex="1">
          <mxGeometry x="985" y="2482" width="40" height="30" as="geometry" />
        </mxCell>
        <mxCell id="VDzh7EiB1U5KI5voId9q-63" value="N:M" style="text;html=1;align=center;verticalAlign=middle;resizable=0;points=[];autosize=1;strokeColor=none;fillColor=none;" parent="1" vertex="1">
          <mxGeometry x="1045" y="2450" width="50" height="30" as="geometry" />
        </mxCell>
        <mxCell id="VDzh7EiB1U5KI5voId9q-64" value="" style="endArrow=classic;html=1;rounded=0;endFill=1;" parent="1" edge="1">
          <mxGeometry relative="1" as="geometry">
            <mxPoint x="1377" y="2511" as="sourcePoint" />
            <mxPoint x="1307" y="2510.95" as="targetPoint" />
          </mxGeometry>
        </mxCell>
        <mxCell id="VDzh7EiB1U5KI5voId9q-65" value="Revisar" style="text;html=1;align=center;verticalAlign=middle;resizable=0;points=[];autosize=1;strokeColor=none;fillColor=none;" parent="1" vertex="1">
          <mxGeometry x="1322" y="2482" width="60" height="30" as="geometry" />
        </mxCell>
        <mxCell id="VDzh7EiB1U5KI5voId9q-66" value="INSTALACIONES DEPORTIVAS" style="rounded=0;whiteSpace=wrap;html=1;fillColor=#dae8fc;strokeColor=#6c8ebf;" parent="1" vertex="1">
          <mxGeometry x="1160" y="2633" width="120" height="60" as="geometry" />
        </mxCell>
        <mxCell id="VDzh7EiB1U5KI5voId9q-67" value="EVENTO" style="rounded=0;whiteSpace=wrap;html=1;fillColor=#dae8fc;strokeColor=#6c8ebf;" parent="1" vertex="1">
          <mxGeometry x="860" y="2633" width="120" height="60" as="geometry" />
        </mxCell>
        <mxCell id="VDzh7EiB1U5KI5voId9q-69" style="edgeStyle=orthogonalEdgeStyle;rounded=0;orthogonalLoop=1;jettySize=auto;html=1;entryX=0;entryY=0.5;entryDx=0;entryDy=0;endArrow=none;endFill=0;" parent="1" source="VDzh7EiB1U5KI5voId9q-68" target="VDzh7EiB1U5KI5voId9q-66" edge="1">
          <mxGeometry relative="1" as="geometry" />
        </mxCell>
        <mxCell id="VDzh7EiB1U5KI5voId9q-70" style="edgeStyle=orthogonalEdgeStyle;rounded=0;orthogonalLoop=1;jettySize=auto;html=1;entryX=1;entryY=0.5;entryDx=0;entryDy=0;endArrow=none;endFill=0;" parent="1" source="VDzh7EiB1U5KI5voId9q-68" target="VDzh7EiB1U5KI5voId9q-67" edge="1">
          <mxGeometry relative="1" as="geometry" />
        </mxCell>
        <mxCell id="VDzh7EiB1U5KI5voId9q-68" value="utiliza" style="rhombus;whiteSpace=wrap;html=1;fillColor=#d5e8d4;strokeColor=#82b366;" parent="1" vertex="1">
          <mxGeometry x="1030" y="2623" width="80" height="80" as="geometry" />
        </mxCell>
        <mxCell id="VDzh7EiB1U5KI5voId9q-71" value="1:N" style="text;html=1;align=center;verticalAlign=middle;resizable=0;points=[];autosize=1;strokeColor=none;fillColor=none;" parent="1" vertex="1">
          <mxGeometry x="980" y="2633" width="40" height="30" as="geometry" />
        </mxCell>
        <mxCell id="VDzh7EiB1U5KI5voId9q-72" value="1:N" style="text;html=1;align=center;verticalAlign=middle;resizable=0;points=[];autosize=1;strokeColor=none;fillColor=none;" parent="1" vertex="1">
          <mxGeometry x="1115" y="2633" width="40" height="30" as="geometry" />
        </mxCell>
        <mxCell id="VDzh7EiB1U5KI5voId9q-73" value="N:M" style="text;html=1;align=center;verticalAlign=middle;resizable=0;points=[];autosize=1;strokeColor=none;fillColor=none;" parent="1" vertex="1">
          <mxGeometry x="1045" y="2603" width="50" height="30" as="geometry" />
        </mxCell>
        <mxCell id="VDzh7EiB1U5KI5voId9q-74" value="BECA" style="rounded=0;whiteSpace=wrap;html=1;fillColor=#dae8fc;strokeColor=#6c8ebf;" parent="1" vertex="1">
          <mxGeometry x="860" y="2802" width="120" height="60" as="geometry" />
        </mxCell>
        <mxCell id="VDzh7EiB1U5KI5voId9q-75" value="EMPRESA ASOCIADA" style="rounded=0;whiteSpace=wrap;html=1;fillColor=#dae8fc;strokeColor=#6c8ebf;" parent="1" vertex="1">
          <mxGeometry x="1160" y="2802" width="120" height="60" as="geometry" />
        </mxCell>
        <mxCell id="VDzh7EiB1U5KI5voId9q-77" style="edgeStyle=orthogonalEdgeStyle;rounded=0;orthogonalLoop=1;jettySize=auto;html=1;entryX=1;entryY=0.5;entryDx=0;entryDy=0;endArrow=none;endFill=0;" parent="1" source="VDzh7EiB1U5KI5voId9q-76" target="VDzh7EiB1U5KI5voId9q-74" edge="1">
          <mxGeometry relative="1" as="geometry" />
        </mxCell>
        <mxCell id="VDzh7EiB1U5KI5voId9q-78" style="edgeStyle=orthogonalEdgeStyle;rounded=0;orthogonalLoop=1;jettySize=auto;html=1;entryX=0;entryY=0.5;entryDx=0;entryDy=0;endArrow=none;endFill=0;" parent="1" source="VDzh7EiB1U5KI5voId9q-76" target="VDzh7EiB1U5KI5voId9q-75" edge="1">
          <mxGeometry relative="1" as="geometry" />
        </mxCell>
        <mxCell id="VDzh7EiB1U5KI5voId9q-76" value="proporciona" style="rhombus;whiteSpace=wrap;html=1;fillColor=#d5e8d4;strokeColor=#82b366;" parent="1" vertex="1">
          <mxGeometry x="1030" y="2792" width="80" height="80" as="geometry" />
        </mxCell>
        <mxCell id="VDzh7EiB1U5KI5voId9q-79" value="0:N" style="text;html=1;align=center;verticalAlign=middle;resizable=0;points=[];autosize=1;strokeColor=none;fillColor=none;" parent="1" vertex="1">
          <mxGeometry x="985" y="2802" width="40" height="30" as="geometry" />
        </mxCell>
        <mxCell id="VDzh7EiB1U5KI5voId9q-80" value="1:N" style="text;html=1;align=center;verticalAlign=middle;resizable=0;points=[];autosize=1;strokeColor=none;fillColor=none;" parent="1" vertex="1">
          <mxGeometry x="1115" y="2802" width="40" height="30" as="geometry" />
        </mxCell>
        <mxCell id="VDzh7EiB1U5KI5voId9q-81" value="N:M" style="text;html=1;align=center;verticalAlign=middle;resizable=0;points=[];autosize=1;strokeColor=none;fillColor=none;" parent="1" vertex="1">
          <mxGeometry x="1045" y="2772" width="50" height="30" as="geometry" />
        </mxCell>
        <mxCell id="VDzh7EiB1U5KI5voId9q-85" style="edgeStyle=orthogonalEdgeStyle;rounded=0;orthogonalLoop=1;jettySize=auto;html=1;entryX=0.5;entryY=0;entryDx=0;entryDy=0;endArrow=none;endFill=0;" parent="1" source="VDzh7EiB1U5KI5voId9q-82" target="yPODJ5ue4MWIPqrNUil7-1" edge="1">
          <mxGeometry relative="1" as="geometry" />
        </mxCell>
        <mxCell id="VDzh7EiB1U5KI5voId9q-82" value="dni" style="ellipse;whiteSpace=wrap;html=1;align=center;fontStyle=4;fillColor=#e1d5e7;strokeColor=#9673a6;" parent="1" vertex="1">
          <mxGeometry x="190" y="30" width="100" height="40" as="geometry" />
        </mxCell>
        <mxCell id="VDzh7EiB1U5KI5voId9q-83" style="edgeStyle=orthogonalEdgeStyle;rounded=0;orthogonalLoop=1;jettySize=auto;html=1;exitX=0.5;exitY=0;exitDx=0;exitDy=0;endArrow=none;endFill=0;" parent="1" source="VDzh7EiB1U5KI5voId9q-84" edge="1">
          <mxGeometry relative="1" as="geometry">
            <mxPoint x="240" y="170" as="targetPoint" />
          </mxGeometry>
        </mxCell>
        <mxCell id="VDzh7EiB1U5KI5voId9q-84" value="nombre" style="ellipse;whiteSpace=wrap;html=1;align=center;fillColor=#fff2cc;strokeColor=#d6b656;" parent="1" vertex="1">
          <mxGeometry x="182.5" y="200" width="100" height="40" as="geometry" />
        </mxCell>
        <mxCell id="VDzh7EiB1U5KI5voId9q-87" style="edgeStyle=orthogonalEdgeStyle;rounded=0;orthogonalLoop=1;jettySize=auto;html=1;entryX=0;entryY=0.5;entryDx=0;entryDy=0;endArrow=none;endFill=0;" parent="1" source="VDzh7EiB1U5KI5voId9q-86" target="yPODJ5ue4MWIPqrNUil7-1" edge="1">
          <mxGeometry relative="1" as="geometry" />
        </mxCell>
        <mxCell id="VDzh7EiB1U5KI5voId9q-86" value="apellidos" style="ellipse;whiteSpace=wrap;html=1;align=center;fillColor=#fff2cc;strokeColor=#d6b656;" parent="1" vertex="1">
          <mxGeometry x="40" y="120" width="100" height="40" as="geometry" />
        </mxCell>
        <mxCell id="VDzh7EiB1U5KI5voId9q-88" value="ESTUDIANTE" style="rounded=0;whiteSpace=wrap;html=1;fillColor=#dae8fc;strokeColor=#6c8ebf;" parent="1" vertex="1">
          <mxGeometry x="127.5" y="2310" width="120" height="60" as="geometry" />
        </mxCell>
        <mxCell id="VDzh7EiB1U5KI5voId9q-95" value="ESTUDIANTE" style="rounded=0;whiteSpace=wrap;html=1;fillColor=#dae8fc;strokeColor=#6c8ebf;" parent="1" vertex="1">
          <mxGeometry x="115" y="2735" width="120" height="60" as="geometry" />
        </mxCell>
        <mxCell id="VDzh7EiB1U5KI5voId9q-102" value="ESTUDIANTE" style="rounded=0;whiteSpace=wrap;html=1;fillColor=#dae8fc;strokeColor=#6c8ebf;" parent="1" vertex="1">
          <mxGeometry x="875" y="1960" width="120" height="60" as="geometry" />
        </mxCell>
        <mxCell id="VDzh7EiB1U5KI5voId9q-103" style="edgeStyle=orthogonalEdgeStyle;rounded=0;orthogonalLoop=1;jettySize=auto;html=1;entryX=0.5;entryY=0;entryDx=0;entryDy=0;endArrow=none;endFill=0;" parent="1" source="VDzh7EiB1U5KI5voId9q-104" target="VDzh7EiB1U5KI5voId9q-102" edge="1">
          <mxGeometry relative="1" as="geometry" />
        </mxCell>
        <mxCell id="VDzh7EiB1U5KI5voId9q-104" value="dni" style="ellipse;whiteSpace=wrap;html=1;align=center;fontStyle=4;fillColor=#e1d5e7;strokeColor=#9673a6;" parent="1" vertex="1">
          <mxGeometry x="885" y="1880" width="100" height="40" as="geometry" />
        </mxCell>
        <mxCell id="VDzh7EiB1U5KI5voId9q-105" style="edgeStyle=orthogonalEdgeStyle;rounded=0;orthogonalLoop=1;jettySize=auto;html=1;exitX=0.5;exitY=0;exitDx=0;exitDy=0;endArrow=none;endFill=0;" parent="1" source="VDzh7EiB1U5KI5voId9q-106" edge="1">
          <mxGeometry relative="1" as="geometry">
            <mxPoint x="935" y="2020" as="targetPoint" />
          </mxGeometry>
        </mxCell>
        <mxCell id="VDzh7EiB1U5KI5voId9q-106" value="nombre" style="ellipse;whiteSpace=wrap;html=1;align=center;fillColor=#fff2cc;strokeColor=#d6b656;" parent="1" vertex="1">
          <mxGeometry x="885" y="2060" width="100" height="40" as="geometry" />
        </mxCell>
        <mxCell id="VDzh7EiB1U5KI5voId9q-107" style="edgeStyle=orthogonalEdgeStyle;rounded=0;orthogonalLoop=1;jettySize=auto;html=1;entryX=0;entryY=0.5;entryDx=0;entryDy=0;endArrow=none;endFill=0;" parent="1" source="VDzh7EiB1U5KI5voId9q-108" target="VDzh7EiB1U5KI5voId9q-102" edge="1">
          <mxGeometry relative="1" as="geometry" />
        </mxCell>
        <mxCell id="VDzh7EiB1U5KI5voId9q-108" value="apellidos" style="ellipse;whiteSpace=wrap;html=1;align=center;fillColor=#fff2cc;strokeColor=#d6b656;" parent="1" vertex="1">
          <mxGeometry x="735" y="1970" width="100" height="40" as="geometry" />
        </mxCell>
        <mxCell id="VDzh7EiB1U5KI5voId9q-109" value="id_profesor" style="ellipse;whiteSpace=wrap;html=1;align=center;fontStyle=4;fillColor=#e1d5e7;strokeColor=#9673a6;" parent="1" vertex="1">
          <mxGeometry x="212.5" y="796" width="100" height="40" as="geometry" />
        </mxCell>
        <mxCell id="VDzh7EiB1U5KI5voId9q-112" style="edgeStyle=orthogonalEdgeStyle;rounded=0;orthogonalLoop=1;jettySize=auto;html=1;entryX=0;entryY=0.5;entryDx=0;entryDy=0;endArrow=none;endFill=0;" parent="1" source="VDzh7EiB1U5KI5voId9q-111" target="yPODJ5ue4MWIPqrNUil7-18" edge="1">
          <mxGeometry relative="1" as="geometry" />
        </mxCell>
        <mxCell id="VDzh7EiB1U5KI5voId9q-111" value="dni" style="whiteSpace=wrap;html=1;align=center;fillColor=#e1d5e7;strokeColor=#9673a6;shape=ellipse;perimeter=ellipsePerimeter;fontStyle=4;" parent="1" vertex="1">
          <mxGeometry x="52.5" y="888" width="100" height="40" as="geometry" />
        </mxCell>
        <mxCell id="VDzh7EiB1U5KI5voId9q-117" style="edgeStyle=orthogonalEdgeStyle;rounded=0;orthogonalLoop=1;jettySize=auto;html=1;entryX=0.5;entryY=1;entryDx=0;entryDy=0;endArrow=none;endFill=0;" parent="1" source="VDzh7EiB1U5KI5voId9q-114" target="yPODJ5ue4MWIPqrNUil7-18" edge="1">
          <mxGeometry relative="1" as="geometry" />
        </mxCell>
        <mxCell id="VDzh7EiB1U5KI5voId9q-114" value="nombre" style="ellipse;whiteSpace=wrap;html=1;align=center;fillColor=#fff2cc;strokeColor=#d6b656;" parent="1" vertex="1">
          <mxGeometry x="212.5" y="966" width="100" height="40" as="geometry" />
        </mxCell>
        <mxCell id="VDzh7EiB1U5KI5voId9q-116" style="edgeStyle=orthogonalEdgeStyle;rounded=0;orthogonalLoop=1;jettySize=auto;html=1;entryX=0.25;entryY=1;entryDx=0;entryDy=0;endArrow=none;endFill=0;" parent="1" source="VDzh7EiB1U5KI5voId9q-115" target="yPODJ5ue4MWIPqrNUil7-18" edge="1">
          <mxGeometry relative="1" as="geometry">
            <Array as="points">
              <mxPoint x="232.5" y="966" />
            </Array>
          </mxGeometry>
        </mxCell>
        <mxCell id="VDzh7EiB1U5KI5voId9q-115" value="apellidos" style="ellipse;whiteSpace=wrap;html=1;align=center;fillColor=#fff2cc;strokeColor=#d6b656;" parent="1" vertex="1">
          <mxGeometry x="77.5" y="954" width="100" height="40" as="geometry" />
        </mxCell>
        <mxCell id="VDzh7EiB1U5KI5voId9q-118" value="ID" style="ellipse;whiteSpace=wrap;html=1;align=center;fontStyle=4;fillColor=#e1d5e7;strokeColor=#9673a6;" parent="1" vertex="1">
          <mxGeometry x="490" y="50" width="100" height="40" as="geometry" />
        </mxCell>
        <mxCell id="VDzh7EiB1U5KI5voId9q-120" style="edgeStyle=orthogonalEdgeStyle;rounded=0;orthogonalLoop=1;jettySize=auto;html=1;entryX=0.5;entryY=1;entryDx=0;entryDy=0;endArrow=none;endFill=0;" parent="1" edge="1">
          <mxGeometry relative="1" as="geometry">
            <mxPoint x="547.5" y="520" as="sourcePoint" />
            <mxPoint x="547.5" y="490" as="targetPoint" />
          </mxGeometry>
        </mxCell>
        <mxCell id="VDzh7EiB1U5KI5voId9q-121" value="ID" style="ellipse;whiteSpace=wrap;html=1;align=center;fontStyle=4;fillColor=#e1d5e7;strokeColor=#9673a6;" parent="1" vertex="1">
          <mxGeometry x="497.5" y="450" width="100" height="40" as="geometry" />
        </mxCell>
        <mxCell id="VDzh7EiB1U5KI5voId9q-124" style="edgeStyle=orthogonalEdgeStyle;rounded=0;orthogonalLoop=1;jettySize=auto;html=1;entryX=0.5;entryY=0;entryDx=0;entryDy=0;endArrow=none;endFill=0;" parent="1" source="VDzh7EiB1U5KI5voId9q-123" target="yPODJ5ue4MWIPqrNUil7-19" edge="1">
          <mxGeometry relative="1" as="geometry" />
        </mxCell>
        <mxCell id="VDzh7EiB1U5KI5voId9q-123" value="ID" style="ellipse;whiteSpace=wrap;html=1;align=center;fontStyle=4;fillColor=#e1d5e7;strokeColor=#9673a6;" parent="1" vertex="1">
          <mxGeometry x="512.5" y="804" width="100" height="40" as="geometry" />
        </mxCell>
        <mxCell id="VDzh7EiB1U5KI5voId9q-125" style="edgeStyle=orthogonalEdgeStyle;rounded=0;orthogonalLoop=1;jettySize=auto;html=1;entryX=0.5;entryY=0;entryDx=0;entryDy=0;endArrow=none;endFill=0;" parent="1" source="VDzh7EiB1U5KI5voId9q-126" target="yPODJ5ue4MWIPqrNUil7-27" edge="1">
          <mxGeometry relative="1" as="geometry">
            <mxPoint x="460" y="1332" as="targetPoint" />
          </mxGeometry>
        </mxCell>
        <mxCell id="VDzh7EiB1U5KI5voId9q-126" value="ID" style="ellipse;whiteSpace=wrap;html=1;align=center;fontStyle=4;fillColor=#e1d5e7;strokeColor=#9673a6;" parent="1" vertex="1">
          <mxGeometry x="410" y="1258" width="100" height="40" as="geometry" />
        </mxCell>
        <mxCell id="VDzh7EiB1U5KI5voId9q-127" style="edgeStyle=orthogonalEdgeStyle;rounded=0;orthogonalLoop=1;jettySize=auto;html=1;entryX=0.5;entryY=0;entryDx=0;entryDy=0;endArrow=none;endFill=0;" parent="1" source="VDzh7EiB1U5KI5voId9q-128" target="yPODJ5ue4MWIPqrNUil7-52" edge="1">
          <mxGeometry relative="1" as="geometry">
            <mxPoint x="460" y="1662" as="targetPoint" />
          </mxGeometry>
        </mxCell>
        <mxCell id="VDzh7EiB1U5KI5voId9q-128" value="ID" style="ellipse;whiteSpace=wrap;html=1;align=center;fontStyle=4;fillColor=#e1d5e7;strokeColor=#9673a6;" parent="1" vertex="1">
          <mxGeometry x="410" y="1590" width="100" height="40" as="geometry" />
        </mxCell>
        <mxCell id="VDzh7EiB1U5KI5voId9q-129" style="edgeStyle=orthogonalEdgeStyle;rounded=0;orthogonalLoop=1;jettySize=auto;html=1;entryX=0.5;entryY=0;entryDx=0;entryDy=0;endArrow=none;endFill=0;" parent="1" source="VDzh7EiB1U5KI5voId9q-130" edge="1">
          <mxGeometry relative="1" as="geometry">
            <mxPoint x="460" y="2000" as="targetPoint" />
          </mxGeometry>
        </mxCell>
        <mxCell id="VDzh7EiB1U5KI5voId9q-130" value="ID" style="ellipse;whiteSpace=wrap;html=1;align=center;fontStyle=4;fillColor=#e1d5e7;strokeColor=#9673a6;" parent="1" vertex="1">
          <mxGeometry x="410" y="1928" width="100" height="40" as="geometry" />
        </mxCell>
        <mxCell id="VDzh7EiB1U5KI5voId9q-131" style="edgeStyle=orthogonalEdgeStyle;rounded=0;orthogonalLoop=1;jettySize=auto;html=1;entryX=0.5;entryY=0;entryDx=0;entryDy=0;endArrow=none;endFill=0;" parent="1" source="VDzh7EiB1U5KI5voId9q-132" edge="1">
          <mxGeometry relative="1" as="geometry">
            <mxPoint x="497.5" y="2310" as="targetPoint" />
          </mxGeometry>
        </mxCell>
        <mxCell id="VDzh7EiB1U5KI5voId9q-132" value="ID" style="ellipse;whiteSpace=wrap;html=1;align=center;fontStyle=4;fillColor=#e1d5e7;strokeColor=#9673a6;" parent="1" vertex="1">
          <mxGeometry x="447.5" y="2238" width="100" height="40" as="geometry" />
        </mxCell>
        <mxCell id="VDzh7EiB1U5KI5voId9q-133" style="edgeStyle=orthogonalEdgeStyle;rounded=0;orthogonalLoop=1;jettySize=auto;html=1;entryX=0.5;entryY=0;entryDx=0;entryDy=0;endArrow=none;endFill=0;" parent="1" source="VDzh7EiB1U5KI5voId9q-134" edge="1">
          <mxGeometry relative="1" as="geometry">
            <mxPoint x="475" y="2735" as="targetPoint" />
          </mxGeometry>
        </mxCell>
        <mxCell id="VDzh7EiB1U5KI5voId9q-134" value="ID" style="ellipse;whiteSpace=wrap;html=1;align=center;fontStyle=4;fillColor=#e1d5e7;strokeColor=#9673a6;" parent="1" vertex="1">
          <mxGeometry x="425" y="2663" width="100" height="40" as="geometry" />
        </mxCell>
        <mxCell id="VDzh7EiB1U5KI5voId9q-135" style="edgeStyle=orthogonalEdgeStyle;rounded=0;orthogonalLoop=1;jettySize=auto;html=1;entryX=0.5;entryY=0;entryDx=0;entryDy=0;endArrow=none;endFill=0;" parent="1" source="VDzh7EiB1U5KI5voId9q-136" edge="1">
          <mxGeometry relative="1" as="geometry">
            <mxPoint x="1232.5" y="1590" as="targetPoint" />
          </mxGeometry>
        </mxCell>
        <mxCell id="VDzh7EiB1U5KI5voId9q-136" value="ID" style="ellipse;whiteSpace=wrap;html=1;align=center;fontStyle=4;fillColor=#e1d5e7;strokeColor=#9673a6;" parent="1" vertex="1">
          <mxGeometry x="1182.5" y="1518" width="100" height="40" as="geometry" />
        </mxCell>
        <mxCell id="VDzh7EiB1U5KI5voId9q-137" style="edgeStyle=orthogonalEdgeStyle;rounded=0;orthogonalLoop=1;jettySize=auto;html=1;entryX=0.5;entryY=0;entryDx=0;entryDy=0;endArrow=none;endFill=0;" parent="1" source="VDzh7EiB1U5KI5voId9q-138" edge="1">
          <mxGeometry relative="1" as="geometry">
            <mxPoint x="1232.5" y="1792" as="targetPoint" />
          </mxGeometry>
        </mxCell>
        <mxCell id="VDzh7EiB1U5KI5voId9q-138" value="ID" style="ellipse;whiteSpace=wrap;html=1;align=center;fontStyle=4;fillColor=#e1d5e7;strokeColor=#9673a6;" parent="1" vertex="1">
          <mxGeometry x="1182.5" y="1720" width="100" height="40" as="geometry" />
        </mxCell>
        <mxCell id="VDzh7EiB1U5KI5voId9q-139" style="edgeStyle=orthogonalEdgeStyle;rounded=0;orthogonalLoop=1;jettySize=auto;html=1;entryX=0.5;entryY=0;entryDx=0;entryDy=0;endArrow=none;endFill=0;" parent="1" source="VDzh7EiB1U5KI5voId9q-140" edge="1">
          <mxGeometry relative="1" as="geometry">
            <mxPoint x="1230" y="1960" as="targetPoint" />
          </mxGeometry>
        </mxCell>
        <mxCell id="VDzh7EiB1U5KI5voId9q-140" value="ID" style="ellipse;whiteSpace=wrap;html=1;align=center;fontStyle=4;fillColor=#e1d5e7;strokeColor=#9673a6;" parent="1" vertex="1">
          <mxGeometry x="1180" y="1888" width="100" height="40" as="geometry" />
        </mxCell>
        <mxCell id="VDzh7EiB1U5KI5voId9q-141" style="edgeStyle=orthogonalEdgeStyle;rounded=0;orthogonalLoop=1;jettySize=auto;html=1;entryX=0.5;entryY=0;entryDx=0;entryDy=0;endArrow=none;endFill=0;" parent="1" source="VDzh7EiB1U5KI5voId9q-142" edge="1">
          <mxGeometry relative="1" as="geometry">
            <mxPoint x="1230" y="2182" as="targetPoint" />
          </mxGeometry>
        </mxCell>
        <mxCell id="VDzh7EiB1U5KI5voId9q-142" value="ID" style="ellipse;whiteSpace=wrap;html=1;align=center;fontStyle=4;fillColor=#e1d5e7;strokeColor=#9673a6;" parent="1" vertex="1">
          <mxGeometry x="1180" y="2110" width="100" height="40" as="geometry" />
        </mxCell>
        <mxCell id="VDzh7EiB1U5KI5voId9q-143" style="edgeStyle=orthogonalEdgeStyle;rounded=0;orthogonalLoop=1;jettySize=auto;html=1;entryX=0.5;entryY=0;entryDx=0;entryDy=0;endArrow=none;endFill=0;" parent="1" source="VDzh7EiB1U5KI5voId9q-144" edge="1">
          <mxGeometry relative="1" as="geometry">
            <mxPoint x="1230" y="2324" as="targetPoint" />
          </mxGeometry>
        </mxCell>
        <mxCell id="VDzh7EiB1U5KI5voId9q-144" value="ID" style="ellipse;whiteSpace=wrap;html=1;align=center;fontStyle=4;fillColor=#e1d5e7;strokeColor=#9673a6;" parent="1" vertex="1">
          <mxGeometry x="1180" y="2252" width="100" height="40" as="geometry" />
        </mxCell>
        <mxCell id="VDzh7EiB1U5KI5voId9q-145" style="edgeStyle=orthogonalEdgeStyle;rounded=0;orthogonalLoop=1;jettySize=auto;html=1;entryX=0.5;entryY=0;entryDx=0;entryDy=0;endArrow=none;endFill=0;" parent="1" source="VDzh7EiB1U5KI5voId9q-146" edge="1">
          <mxGeometry relative="1" as="geometry">
            <mxPoint x="925" y="2324" as="targetPoint" />
          </mxGeometry>
        </mxCell>
        <mxCell id="VDzh7EiB1U5KI5voId9q-146" value="ID" style="ellipse;whiteSpace=wrap;html=1;align=center;fontStyle=4;fillColor=#e1d5e7;strokeColor=#9673a6;" parent="1" vertex="1">
          <mxGeometry x="875" y="2252" width="100" height="40" as="geometry" />
        </mxCell>
        <mxCell id="VDzh7EiB1U5KI5voId9q-147" style="edgeStyle=orthogonalEdgeStyle;rounded=0;orthogonalLoop=1;jettySize=auto;html=1;entryX=0.5;entryY=0;entryDx=0;entryDy=0;endArrow=none;endFill=0;" parent="1" source="VDzh7EiB1U5KI5voId9q-148" edge="1">
          <mxGeometry relative="1" as="geometry">
            <mxPoint x="925" y="2182" as="targetPoint" />
          </mxGeometry>
        </mxCell>
        <mxCell id="VDzh7EiB1U5KI5voId9q-148" value="ID" style="ellipse;whiteSpace=wrap;html=1;align=center;fontStyle=4;fillColor=#e1d5e7;strokeColor=#9673a6;" parent="1" vertex="1">
          <mxGeometry x="875" y="2110" width="100" height="40" as="geometry" />
        </mxCell>
        <mxCell id="VDzh7EiB1U5KI5voId9q-150" value="ID" style="ellipse;whiteSpace=wrap;html=1;align=center;fontStyle=4;fillColor=#e1d5e7;strokeColor=#9673a6;" parent="1" vertex="1">
          <mxGeometry x="882.5" y="1720" width="100" height="40" as="geometry" />
        </mxCell>
        <mxCell id="VDzh7EiB1U5KI5voId9q-154" style="edgeStyle=orthogonalEdgeStyle;rounded=0;orthogonalLoop=1;jettySize=auto;html=1;exitX=0.5;exitY=0;exitDx=0;exitDy=0;entryX=0.5;entryY=1;entryDx=0;entryDy=0;endArrow=none;endFill=0;" parent="1" source="VDzh7EiB1U5KI5voId9q-153" target="VDzh7EiB1U5KI5voId9q-3" edge="1">
          <mxGeometry relative="1" as="geometry" />
        </mxCell>
        <mxCell id="VDzh7EiB1U5KI5voId9q-153" value="ID" style="ellipse;whiteSpace=wrap;html=1;align=center;fontStyle=4;fillColor=#e1d5e7;strokeColor=#9673a6;" parent="1" vertex="1">
          <mxGeometry x="882.5" y="1670" width="100" height="40" as="geometry" />
        </mxCell>
        <mxCell id="VDzh7EiB1U5KI5voId9q-155" style="edgeStyle=orthogonalEdgeStyle;rounded=0;orthogonalLoop=1;jettySize=auto;html=1;entryX=0.5;entryY=0;entryDx=0;entryDy=0;endArrow=none;endFill=0;" parent="1" source="VDzh7EiB1U5KI5voId9q-156" edge="1">
          <mxGeometry relative="1" as="geometry">
            <mxPoint x="920" y="2482" as="targetPoint" />
          </mxGeometry>
        </mxCell>
        <mxCell id="VDzh7EiB1U5KI5voId9q-156" value="ID" style="ellipse;whiteSpace=wrap;html=1;align=center;fontStyle=4;fillColor=#e1d5e7;strokeColor=#9673a6;" parent="1" vertex="1">
          <mxGeometry x="870" y="2410" width="100" height="40" as="geometry" />
        </mxCell>
        <mxCell id="VDzh7EiB1U5KI5voId9q-157" style="edgeStyle=orthogonalEdgeStyle;rounded=0;orthogonalLoop=1;jettySize=auto;html=1;entryX=0.5;entryY=0;entryDx=0;entryDy=0;endArrow=none;endFill=0;" parent="1" source="VDzh7EiB1U5KI5voId9q-158" edge="1">
          <mxGeometry relative="1" as="geometry">
            <mxPoint x="1222.5" y="2482" as="targetPoint" />
          </mxGeometry>
        </mxCell>
        <mxCell id="VDzh7EiB1U5KI5voId9q-158" value="ID" style="ellipse;whiteSpace=wrap;html=1;align=center;fontStyle=4;fillColor=#e1d5e7;strokeColor=#9673a6;" parent="1" vertex="1">
          <mxGeometry x="1172.5" y="2410" width="100" height="40" as="geometry" />
        </mxCell>
        <mxCell id="VDzh7EiB1U5KI5voId9q-159" style="edgeStyle=orthogonalEdgeStyle;rounded=0;orthogonalLoop=1;jettySize=auto;html=1;entryX=0.5;entryY=0;entryDx=0;entryDy=0;endArrow=none;endFill=0;" parent="1" source="VDzh7EiB1U5KI5voId9q-160" edge="1">
          <mxGeometry relative="1" as="geometry">
            <mxPoint x="920" y="2633" as="targetPoint" />
          </mxGeometry>
        </mxCell>
        <mxCell id="VDzh7EiB1U5KI5voId9q-160" value="ID" style="ellipse;whiteSpace=wrap;html=1;align=center;fontStyle=4;fillColor=#e1d5e7;strokeColor=#9673a6;" parent="1" vertex="1">
          <mxGeometry x="870" y="2561" width="100" height="40" as="geometry" />
        </mxCell>
        <mxCell id="VDzh7EiB1U5KI5voId9q-161" style="edgeStyle=orthogonalEdgeStyle;rounded=0;orthogonalLoop=1;jettySize=auto;html=1;entryX=0.5;entryY=0;entryDx=0;entryDy=0;endArrow=none;endFill=0;" parent="1" source="VDzh7EiB1U5KI5voId9q-162" edge="1">
          <mxGeometry relative="1" as="geometry">
            <mxPoint x="1217.5" y="2633" as="targetPoint" />
          </mxGeometry>
        </mxCell>
        <mxCell id="VDzh7EiB1U5KI5voId9q-162" value="ID" style="ellipse;whiteSpace=wrap;html=1;align=center;fontStyle=4;fillColor=#e1d5e7;strokeColor=#9673a6;" parent="1" vertex="1">
          <mxGeometry x="1167.5" y="2561" width="100" height="40" as="geometry" />
        </mxCell>
        <mxCell id="VDzh7EiB1U5KI5voId9q-163" style="edgeStyle=orthogonalEdgeStyle;rounded=0;orthogonalLoop=1;jettySize=auto;html=1;entryX=0.5;entryY=0;entryDx=0;entryDy=0;endArrow=none;endFill=0;" parent="1" source="VDzh7EiB1U5KI5voId9q-164" edge="1">
          <mxGeometry relative="1" as="geometry">
            <mxPoint x="1222.5" y="2802" as="targetPoint" />
          </mxGeometry>
        </mxCell>
        <mxCell id="VDzh7EiB1U5KI5voId9q-164" value="ID" style="ellipse;whiteSpace=wrap;html=1;align=center;fontStyle=4;fillColor=#e1d5e7;strokeColor=#9673a6;" parent="1" vertex="1">
          <mxGeometry x="1172.5" y="2730" width="100" height="40" as="geometry" />
        </mxCell>
        <mxCell id="VDzh7EiB1U5KI5voId9q-165" style="edgeStyle=orthogonalEdgeStyle;rounded=0;orthogonalLoop=1;jettySize=auto;html=1;entryX=0.5;entryY=0;entryDx=0;entryDy=0;endArrow=none;endFill=0;" parent="1" source="VDzh7EiB1U5KI5voId9q-166" edge="1">
          <mxGeometry relative="1" as="geometry">
            <mxPoint x="920" y="2802" as="targetPoint" />
          </mxGeometry>
        </mxCell>
        <mxCell id="VDzh7EiB1U5KI5voId9q-166" value="ID" style="ellipse;whiteSpace=wrap;html=1;align=center;fontStyle=4;fillColor=#e1d5e7;strokeColor=#9673a6;" parent="1" vertex="1">
          <mxGeometry x="870" y="2730" width="100" height="40" as="geometry" />
        </mxCell>
        <mxCell id="VDzh7EiB1U5KI5voId9q-167" style="edgeStyle=orthogonalEdgeStyle;rounded=0;orthogonalLoop=1;jettySize=auto;html=1;entryX=0.5;entryY=0;entryDx=0;entryDy=0;endArrow=none;endFill=0;" parent="1" source="VDzh7EiB1U5KI5voId9q-168" edge="1">
          <mxGeometry relative="1" as="geometry">
            <mxPoint x="160" y="2000" as="targetPoint" />
          </mxGeometry>
        </mxCell>
        <mxCell id="VDzh7EiB1U5KI5voId9q-168" value="ID" style="ellipse;whiteSpace=wrap;html=1;align=center;fontStyle=4;fillColor=#e1d5e7;strokeColor=#9673a6;" parent="1" vertex="1">
          <mxGeometry x="110" y="1928" width="100" height="40" as="geometry" />
        </mxCell>
        <mxCell id="VDzh7EiB1U5KI5voId9q-169" style="edgeStyle=orthogonalEdgeStyle;rounded=0;orthogonalLoop=1;jettySize=auto;html=1;entryX=0.5;entryY=0;entryDx=0;entryDy=0;endArrow=none;endFill=0;" parent="1" source="VDzh7EiB1U5KI5voId9q-170" edge="1">
          <mxGeometry relative="1" as="geometry">
            <mxPoint x="165" y="1664" as="targetPoint" />
          </mxGeometry>
        </mxCell>
        <mxCell id="VDzh7EiB1U5KI5voId9q-170" value="ID" style="ellipse;whiteSpace=wrap;html=1;align=center;fontStyle=4;fillColor=#e1d5e7;strokeColor=#9673a6;" parent="1" vertex="1">
          <mxGeometry x="115" y="1592" width="100" height="40" as="geometry" />
        </mxCell>
        <mxCell id="VDzh7EiB1U5KI5voId9q-171" style="edgeStyle=orthogonalEdgeStyle;rounded=0;orthogonalLoop=1;jettySize=auto;html=1;entryX=0.5;entryY=0;entryDx=0;entryDy=0;endArrow=none;endFill=0;" parent="1" source="VDzh7EiB1U5KI5voId9q-172" edge="1">
          <mxGeometry relative="1" as="geometry">
            <mxPoint x="160" y="1330" as="targetPoint" />
          </mxGeometry>
        </mxCell>
        <mxCell id="VDzh7EiB1U5KI5voId9q-172" value="ID" style="ellipse;whiteSpace=wrap;html=1;align=center;fontStyle=4;fillColor=#e1d5e7;strokeColor=#9673a6;" parent="1" vertex="1">
          <mxGeometry x="110" y="1258" width="100" height="40" as="geometry" />
        </mxCell>
        <mxCell id="VDzh7EiB1U5KI5voId9q-175" style="edgeStyle=orthogonalEdgeStyle;rounded=0;orthogonalLoop=1;jettySize=auto;html=1;entryX=0;entryY=0.5;entryDx=0;entryDy=0;endArrow=none;endFill=0;" parent="1" source="VDzh7EiB1U5KI5voId9q-174" target="yPODJ5ue4MWIPqrNUil7-100" edge="1">
          <mxGeometry relative="1" as="geometry" />
        </mxCell>
        <mxCell id="VDzh7EiB1U5KI5voId9q-174" value="ID" style="ellipse;whiteSpace=wrap;html=1;align=center;fontStyle=4;fillColor=#e1d5e7;strokeColor=#9673a6;" parent="1" vertex="1">
          <mxGeometry x="1500" y="363.89" width="100" height="40" as="geometry" />
        </mxCell>
        <mxCell id="VDzh7EiB1U5KI5voId9q-176" value="1:N" style="text;html=1;align=center;verticalAlign=middle;resizable=0;points=[];autosize=1;strokeColor=none;fillColor=none;" parent="1" vertex="1">
          <mxGeometry x="1700" y="323.96000000000004" width="40" height="30" as="geometry" />
        </mxCell>
        <mxCell id="VDzh7EiB1U5KI5voId9q-177" value="1:1" style="text;html=1;align=center;verticalAlign=middle;resizable=0;points=[];autosize=1;strokeColor=none;fillColor=none;" parent="1" vertex="1">
          <mxGeometry x="1700" y="413.96000000000004" width="40" height="30" as="geometry" />
        </mxCell>
        <mxCell id="VDzh7EiB1U5KI5voId9q-272" value="ID" style="ellipse;whiteSpace=wrap;html=1;align=center;fontStyle=4;fillColor=#e1d5e7;strokeColor=#9673a6;" parent="1" vertex="1">
          <mxGeometry x="52.5" y="530" width="100" height="40" as="geometry" />
        </mxCell>
        <mxCell id="VDzh7EiB1U5KI5voId9q-305" value="prerrequisito" style="rhombus;whiteSpace=wrap;html=1;fillColor=#d5e8d4;strokeColor=#82b366;" parent="1" vertex="1">
          <mxGeometry x="1860" y="348.89" width="80" height="80" as="geometry" />
        </mxCell>
        <mxCell id="GrhEkzy324thI5kk4Dp7-14" value="ESTUDIANTE" style="shape=table;startSize=30;container=1;collapsible=1;childLayout=tableLayout;fixedRows=1;rowLines=0;fontStyle=1;align=center;resizeLast=1;html=1;whiteSpace=wrap;" vertex="1" parent="1">
          <mxGeometry x="75" y="278" width="180" height="192" as="geometry" />
        </mxCell>
        <mxCell id="GrhEkzy324thI5kk4Dp7-15" value="" style="shape=tableRow;horizontal=0;startSize=0;swimlaneHead=0;swimlaneBody=0;fillColor=none;collapsible=0;dropTarget=0;points=[[0,0.5],[1,0.5]];portConstraint=eastwest;top=0;left=0;right=0;bottom=0;html=1;" vertex="1" parent="GrhEkzy324thI5kk4Dp7-14">
          <mxGeometry y="30" width="180" height="30" as="geometry" />
        </mxCell>
        <mxCell id="GrhEkzy324thI5kk4Dp7-16" value="PK," style="shape=partialRectangle;connectable=0;fillColor=none;top=0;left=0;bottom=0;right=0;fontStyle=1;overflow=hidden;html=1;whiteSpace=wrap;" vertex="1" parent="GrhEkzy324thI5kk4Dp7-15">
          <mxGeometry width="60" height="30" as="geometry">
            <mxRectangle width="60" height="30" as="alternateBounds" />
          </mxGeometry>
        </mxCell>
        <mxCell id="GrhEkzy324thI5kk4Dp7-17" value="DNI" style="shape=partialRectangle;connectable=0;fillColor=none;top=0;left=0;bottom=0;right=0;align=left;spacingLeft=6;fontStyle=5;overflow=hidden;html=1;whiteSpace=wrap;" vertex="1" parent="GrhEkzy324thI5kk4Dp7-15">
          <mxGeometry x="60" width="120" height="30" as="geometry">
            <mxRectangle width="120" height="30" as="alternateBounds" />
          </mxGeometry>
        </mxCell>
        <mxCell id="GrhEkzy324thI5kk4Dp7-18" value="" style="shape=tableRow;horizontal=0;startSize=0;swimlaneHead=0;swimlaneBody=0;fillColor=none;collapsible=0;dropTarget=0;points=[[0,0.5],[1,0.5]];portConstraint=eastwest;top=0;left=0;right=0;bottom=1;html=1;" vertex="1" parent="GrhEkzy324thI5kk4Dp7-14">
          <mxGeometry y="60" width="180" height="20" as="geometry" />
        </mxCell>
        <mxCell id="GrhEkzy324thI5kk4Dp7-19" value="FK" style="shape=partialRectangle;connectable=0;fillColor=none;top=0;left=0;bottom=0;right=0;fontStyle=1;overflow=hidden;html=1;whiteSpace=wrap;" vertex="1" parent="GrhEkzy324thI5kk4Dp7-18">
          <mxGeometry width="60" height="20" as="geometry">
            <mxRectangle width="60" height="20" as="alternateBounds" />
          </mxGeometry>
        </mxCell>
        <mxCell id="GrhEkzy324thI5kk4Dp7-20" value="ID_programa" style="shape=partialRectangle;connectable=0;fillColor=none;top=0;left=0;bottom=0;right=0;align=left;spacingLeft=6;fontStyle=5;overflow=hidden;html=1;whiteSpace=wrap;" vertex="1" parent="GrhEkzy324thI5kk4Dp7-18">
          <mxGeometry x="60" width="120" height="20" as="geometry">
            <mxRectangle width="120" height="20" as="alternateBounds" />
          </mxGeometry>
        </mxCell>
        <mxCell id="GrhEkzy324thI5kk4Dp7-21" value="" style="shape=tableRow;horizontal=0;startSize=0;swimlaneHead=0;swimlaneBody=0;fillColor=none;collapsible=0;dropTarget=0;points=[[0,0.5],[1,0.5]];portConstraint=eastwest;top=0;left=0;right=0;bottom=0;html=1;" vertex="1" parent="GrhEkzy324thI5kk4Dp7-14">
          <mxGeometry y="80" width="180" height="30" as="geometry" />
        </mxCell>
        <mxCell id="GrhEkzy324thI5kk4Dp7-22" value="" style="shape=partialRectangle;connectable=0;fillColor=none;top=0;left=0;bottom=0;right=0;editable=1;overflow=hidden;html=1;whiteSpace=wrap;" vertex="1" parent="GrhEkzy324thI5kk4Dp7-21">
          <mxGeometry width="60" height="30" as="geometry">
            <mxRectangle width="60" height="30" as="alternateBounds" />
          </mxGeometry>
        </mxCell>
        <mxCell id="GrhEkzy324thI5kk4Dp7-23" value="nombre" style="shape=partialRectangle;connectable=0;fillColor=none;top=0;left=0;bottom=0;right=0;align=left;spacingLeft=6;overflow=hidden;html=1;whiteSpace=wrap;" vertex="1" parent="GrhEkzy324thI5kk4Dp7-21">
          <mxGeometry x="60" width="120" height="30" as="geometry">
            <mxRectangle width="120" height="30" as="alternateBounds" />
          </mxGeometry>
        </mxCell>
        <mxCell id="GrhEkzy324thI5kk4Dp7-24" value="" style="shape=tableRow;horizontal=0;startSize=0;swimlaneHead=0;swimlaneBody=0;fillColor=none;collapsible=0;dropTarget=0;points=[[0,0.5],[1,0.5]];portConstraint=eastwest;top=0;left=0;right=0;bottom=0;html=1;" vertex="1" parent="GrhEkzy324thI5kk4Dp7-14">
          <mxGeometry y="110" width="180" height="30" as="geometry" />
        </mxCell>
        <mxCell id="GrhEkzy324thI5kk4Dp7-25" value="" style="shape=partialRectangle;connectable=0;fillColor=none;top=0;left=0;bottom=0;right=0;editable=1;overflow=hidden;html=1;whiteSpace=wrap;" vertex="1" parent="GrhEkzy324thI5kk4Dp7-24">
          <mxGeometry width="60" height="30" as="geometry">
            <mxRectangle width="60" height="30" as="alternateBounds" />
          </mxGeometry>
        </mxCell>
        <mxCell id="GrhEkzy324thI5kk4Dp7-26" value="apellidos" style="shape=partialRectangle;connectable=0;fillColor=none;top=0;left=0;bottom=0;right=0;align=left;spacingLeft=6;overflow=hidden;html=1;whiteSpace=wrap;" vertex="1" parent="GrhEkzy324thI5kk4Dp7-24">
          <mxGeometry x="60" width="120" height="30" as="geometry">
            <mxRectangle width="120" height="30" as="alternateBounds" />
          </mxGeometry>
        </mxCell>
        <mxCell id="GrhEkzy324thI5kk4Dp7-27" value="PROGRAMA ACADÉMICO" style="shape=table;startSize=30;container=1;collapsible=1;childLayout=tableLayout;fixedRows=1;rowLines=0;fontStyle=1;align=center;resizeLast=1;html=1;whiteSpace=wrap;" vertex="1" parent="1">
          <mxGeometry x="405" y="280" width="180" height="120" as="geometry" />
        </mxCell>
        <mxCell id="GrhEkzy324thI5kk4Dp7-28" value="" style="shape=tableRow;horizontal=0;startSize=0;swimlaneHead=0;swimlaneBody=0;fillColor=none;collapsible=0;dropTarget=0;points=[[0,0.5],[1,0.5]];portConstraint=eastwest;top=0;left=0;right=0;bottom=0;html=1;" vertex="1" parent="GrhEkzy324thI5kk4Dp7-27">
          <mxGeometry y="30" width="180" height="30" as="geometry" />
        </mxCell>
        <mxCell id="GrhEkzy324thI5kk4Dp7-29" value="PK" style="shape=partialRectangle;connectable=0;fillColor=none;top=0;left=0;bottom=0;right=0;fontStyle=1;overflow=hidden;html=1;whiteSpace=wrap;" vertex="1" parent="GrhEkzy324thI5kk4Dp7-28">
          <mxGeometry width="60" height="30" as="geometry">
            <mxRectangle width="60" height="30" as="alternateBounds" />
          </mxGeometry>
        </mxCell>
        <mxCell id="GrhEkzy324thI5kk4Dp7-30" value="ID" style="shape=partialRectangle;connectable=0;fillColor=none;top=0;left=0;bottom=0;right=0;align=left;spacingLeft=6;fontStyle=5;overflow=hidden;html=1;whiteSpace=wrap;" vertex="1" parent="GrhEkzy324thI5kk4Dp7-28">
          <mxGeometry x="60" width="120" height="30" as="geometry">
            <mxRectangle width="120" height="30" as="alternateBounds" />
          </mxGeometry>
        </mxCell>
        <mxCell id="GrhEkzy324thI5kk4Dp7-34" value="" style="shape=tableRow;horizontal=0;startSize=0;swimlaneHead=0;swimlaneBody=0;fillColor=none;collapsible=0;dropTarget=0;points=[[0,0.5],[1,0.5]];portConstraint=eastwest;top=0;left=0;right=0;bottom=0;html=1;" vertex="1" parent="GrhEkzy324thI5kk4Dp7-27">
          <mxGeometry y="60" width="180" height="30" as="geometry" />
        </mxCell>
        <mxCell id="GrhEkzy324thI5kk4Dp7-35" value="" style="shape=partialRectangle;connectable=0;fillColor=none;top=0;left=0;bottom=0;right=0;editable=1;overflow=hidden;html=1;whiteSpace=wrap;" vertex="1" parent="GrhEkzy324thI5kk4Dp7-34">
          <mxGeometry width="60" height="30" as="geometry">
            <mxRectangle width="60" height="30" as="alternateBounds" />
          </mxGeometry>
        </mxCell>
        <mxCell id="GrhEkzy324thI5kk4Dp7-36" value="" style="shape=partialRectangle;connectable=0;fillColor=none;top=0;left=0;bottom=0;right=0;align=left;spacingLeft=6;overflow=hidden;html=1;whiteSpace=wrap;" vertex="1" parent="GrhEkzy324thI5kk4Dp7-34">
          <mxGeometry x="60" width="120" height="30" as="geometry">
            <mxRectangle width="120" height="30" as="alternateBounds" />
          </mxGeometry>
        </mxCell>
        <mxCell id="GrhEkzy324thI5kk4Dp7-37" value="" style="shape=tableRow;horizontal=0;startSize=0;swimlaneHead=0;swimlaneBody=0;fillColor=none;collapsible=0;dropTarget=0;points=[[0,0.5],[1,0.5]];portConstraint=eastwest;top=0;left=0;right=0;bottom=0;html=1;" vertex="1" parent="GrhEkzy324thI5kk4Dp7-27">
          <mxGeometry y="90" width="180" height="30" as="geometry" />
        </mxCell>
        <mxCell id="GrhEkzy324thI5kk4Dp7-38" value="" style="shape=partialRectangle;connectable=0;fillColor=none;top=0;left=0;bottom=0;right=0;editable=1;overflow=hidden;html=1;whiteSpace=wrap;" vertex="1" parent="GrhEkzy324thI5kk4Dp7-37">
          <mxGeometry width="60" height="30" as="geometry">
            <mxRectangle width="60" height="30" as="alternateBounds" />
          </mxGeometry>
        </mxCell>
        <mxCell id="GrhEkzy324thI5kk4Dp7-39" value="" style="shape=partialRectangle;connectable=0;fillColor=none;top=0;left=0;bottom=0;right=0;align=left;spacingLeft=6;overflow=hidden;html=1;whiteSpace=wrap;" vertex="1" parent="GrhEkzy324thI5kk4Dp7-37">
          <mxGeometry x="60" width="120" height="30" as="geometry">
            <mxRectangle width="120" height="30" as="alternateBounds" />
          </mxGeometry>
        </mxCell>
        <mxCell id="GrhEkzy324thI5kk4Dp7-40" style="edgeStyle=orthogonalEdgeStyle;rounded=0;orthogonalLoop=1;jettySize=auto;html=1;entryX=0;entryY=0.5;entryDx=0;entryDy=0;endArrow=none;endFill=0;" edge="1" parent="1" source="GrhEkzy324thI5kk4Dp7-18" target="GrhEkzy324thI5kk4Dp7-28">
          <mxGeometry relative="1" as="geometry" />
        </mxCell>
        <mxCell id="GrhEkzy324thI5kk4Dp7-41" value="" style="line;strokeWidth=1;rotatable=0;dashed=0;labelPosition=right;align=left;verticalAlign=middle;spacingTop=0;spacingLeft=6;points=[];portConstraint=eastwest;" vertex="1" parent="1">
          <mxGeometry x="405" y="340" width="180" height="10" as="geometry" />
        </mxCell>
        <mxCell id="GrhEkzy324thI5kk4Dp7-42" value="dirección" style="ellipse;whiteSpace=wrap;html=1;align=center;fillColor=#fff2cc;strokeColor=#d6b656;" vertex="1" parent="1">
          <mxGeometry x="40" y="50" width="100" height="40" as="geometry" />
        </mxCell>
        <mxCell id="GrhEkzy324thI5kk4Dp7-45" style="edgeStyle=orthogonalEdgeStyle;rounded=0;orthogonalLoop=1;jettySize=auto;html=1;entryX=0;entryY=1;entryDx=0;entryDy=0;endArrow=none;endFill=0;" edge="1" parent="1" target="yPODJ5ue4MWIPqrNUil7-1">
          <mxGeometry relative="1" as="geometry">
            <mxPoint x="140" y="210" as="sourcePoint" />
          </mxGeometry>
        </mxCell>
        <mxCell id="GrhEkzy324thI5kk4Dp7-44" style="edgeStyle=orthogonalEdgeStyle;rounded=0;orthogonalLoop=1;jettySize=auto;html=1;entryX=0.156;entryY=-0.012;entryDx=0;entryDy=0;entryPerimeter=0;endArrow=none;endFill=0;" edge="1" parent="1" source="GrhEkzy324thI5kk4Dp7-42" target="yPODJ5ue4MWIPqrNUil7-1">
          <mxGeometry relative="1" as="geometry" />
        </mxCell>
        <mxCell id="GrhEkzy324thI5kk4Dp7-46" value="direcciñon" style="shape=partialRectangle;connectable=0;fillColor=none;top=0;left=0;bottom=0;right=0;align=left;spacingLeft=6;overflow=hidden;html=1;whiteSpace=wrap;" vertex="1" parent="1">
          <mxGeometry x="135" y="413.89" width="120" height="30" as="geometry">
            <mxRectangle width="120" height="30" as="alternateBounds" />
          </mxGeometry>
        </mxCell>
        <mxCell id="GrhEkzy324thI5kk4Dp7-47" value="email" style="shape=partialRectangle;connectable=0;fillColor=none;top=0;left=0;bottom=0;right=0;align=left;spacingLeft=6;overflow=hidden;html=1;whiteSpace=wrap;" vertex="1" parent="1">
          <mxGeometry x="135" y="440" width="120" height="30" as="geometry">
            <mxRectangle width="120" height="30" as="alternateBounds" />
          </mxGeometry>
        </mxCell>
        <mxCell id="GrhEkzy324thI5kk4Dp7-49" value="email" style="ellipse;shape=doubleEllipse;margin=3;whiteSpace=wrap;html=1;align=center;fillColor=#fff2cc;strokeColor=#d6b656;" vertex="1" parent="1">
          <mxGeometry x="40" y="190" width="100" height="40" as="geometry" />
        </mxCell>
        <mxCell id="GrhEkzy324thI5kk4Dp7-53" value="PROGRAMA ACADÉMICO" style="shape=table;startSize=30;container=1;collapsible=1;childLayout=tableLayout;fixedRows=1;rowLines=0;fontStyle=1;align=center;resizeLast=1;html=1;whiteSpace=wrap;" vertex="1" parent="1">
          <mxGeometry x="450" y="636" width="180" height="120" as="geometry" />
        </mxCell>
        <mxCell id="GrhEkzy324thI5kk4Dp7-54" value="" style="shape=tableRow;horizontal=0;startSize=0;swimlaneHead=0;swimlaneBody=0;fillColor=none;collapsible=0;dropTarget=0;points=[[0,0.5],[1,0.5]];portConstraint=eastwest;top=0;left=0;right=0;bottom=0;html=1;" vertex="1" parent="GrhEkzy324thI5kk4Dp7-53">
          <mxGeometry y="30" width="180" height="30" as="geometry" />
        </mxCell>
        <mxCell id="GrhEkzy324thI5kk4Dp7-55" value="PK" style="shape=partialRectangle;connectable=0;fillColor=none;top=0;left=0;bottom=0;right=0;fontStyle=1;overflow=hidden;html=1;whiteSpace=wrap;" vertex="1" parent="GrhEkzy324thI5kk4Dp7-54">
          <mxGeometry width="60" height="30" as="geometry">
            <mxRectangle width="60" height="30" as="alternateBounds" />
          </mxGeometry>
        </mxCell>
        <mxCell id="GrhEkzy324thI5kk4Dp7-56" value="ID" style="shape=partialRectangle;connectable=0;fillColor=none;top=0;left=0;bottom=0;right=0;align=left;spacingLeft=6;fontStyle=5;overflow=hidden;html=1;whiteSpace=wrap;" vertex="1" parent="GrhEkzy324thI5kk4Dp7-54">
          <mxGeometry x="60" width="120" height="30" as="geometry">
            <mxRectangle width="120" height="30" as="alternateBounds" />
          </mxGeometry>
        </mxCell>
        <mxCell id="GrhEkzy324thI5kk4Dp7-57" value="" style="shape=tableRow;horizontal=0;startSize=0;swimlaneHead=0;swimlaneBody=0;fillColor=none;collapsible=0;dropTarget=0;points=[[0,0.5],[1,0.5]];portConstraint=eastwest;top=0;left=0;right=0;bottom=0;html=1;" vertex="1" parent="GrhEkzy324thI5kk4Dp7-53">
          <mxGeometry y="60" width="180" height="30" as="geometry" />
        </mxCell>
        <mxCell id="GrhEkzy324thI5kk4Dp7-58" value="" style="shape=partialRectangle;connectable=0;fillColor=none;top=0;left=0;bottom=0;right=0;editable=1;overflow=hidden;html=1;whiteSpace=wrap;" vertex="1" parent="GrhEkzy324thI5kk4Dp7-57">
          <mxGeometry width="60" height="30" as="geometry">
            <mxRectangle width="60" height="30" as="alternateBounds" />
          </mxGeometry>
        </mxCell>
        <mxCell id="GrhEkzy324thI5kk4Dp7-59" value="" style="shape=partialRectangle;connectable=0;fillColor=none;top=0;left=0;bottom=0;right=0;align=left;spacingLeft=6;overflow=hidden;html=1;whiteSpace=wrap;" vertex="1" parent="GrhEkzy324thI5kk4Dp7-57">
          <mxGeometry x="60" width="120" height="30" as="geometry">
            <mxRectangle width="120" height="30" as="alternateBounds" />
          </mxGeometry>
        </mxCell>
        <mxCell id="GrhEkzy324thI5kk4Dp7-60" value="" style="shape=tableRow;horizontal=0;startSize=0;swimlaneHead=0;swimlaneBody=0;fillColor=none;collapsible=0;dropTarget=0;points=[[0,0.5],[1,0.5]];portConstraint=eastwest;top=0;left=0;right=0;bottom=0;html=1;" vertex="1" parent="GrhEkzy324thI5kk4Dp7-53">
          <mxGeometry y="90" width="180" height="30" as="geometry" />
        </mxCell>
        <mxCell id="GrhEkzy324thI5kk4Dp7-61" value="" style="shape=partialRectangle;connectable=0;fillColor=none;top=0;left=0;bottom=0;right=0;editable=1;overflow=hidden;html=1;whiteSpace=wrap;" vertex="1" parent="GrhEkzy324thI5kk4Dp7-60">
          <mxGeometry width="60" height="30" as="geometry">
            <mxRectangle width="60" height="30" as="alternateBounds" />
          </mxGeometry>
        </mxCell>
        <mxCell id="GrhEkzy324thI5kk4Dp7-62" value="" style="shape=partialRectangle;connectable=0;fillColor=none;top=0;left=0;bottom=0;right=0;align=left;spacingLeft=6;overflow=hidden;html=1;whiteSpace=wrap;" vertex="1" parent="GrhEkzy324thI5kk4Dp7-60">
          <mxGeometry x="60" width="120" height="30" as="geometry">
            <mxRectangle width="120" height="30" as="alternateBounds" />
          </mxGeometry>
        </mxCell>
        <mxCell id="GrhEkzy324thI5kk4Dp7-63" value="" style="line;strokeWidth=1;rotatable=0;dashed=0;labelPosition=right;align=left;verticalAlign=middle;spacingTop=0;spacingLeft=6;points=[];portConstraint=eastwest;" vertex="1" parent="1">
          <mxGeometry x="450" y="696" width="180" height="10" as="geometry" />
        </mxCell>
        <mxCell id="GrhEkzy324thI5kk4Dp7-64" value="CURSO" style="shape=table;startSize=30;container=1;collapsible=1;childLayout=tableLayout;fixedRows=1;rowLines=0;fontStyle=1;align=center;resizeLast=1;html=1;whiteSpace=wrap;" vertex="1" parent="1">
          <mxGeometry x="157.5" y="636" width="180" height="120" as="geometry" />
        </mxCell>
        <mxCell id="GrhEkzy324thI5kk4Dp7-65" value="" style="shape=tableRow;horizontal=0;startSize=0;swimlaneHead=0;swimlaneBody=0;fillColor=none;collapsible=0;dropTarget=0;points=[[0,0.5],[1,0.5]];portConstraint=eastwest;top=0;left=0;right=0;bottom=0;html=1;" vertex="1" parent="GrhEkzy324thI5kk4Dp7-64">
          <mxGeometry y="30" width="180" height="30" as="geometry" />
        </mxCell>
        <mxCell id="GrhEkzy324thI5kk4Dp7-66" value="PK" style="shape=partialRectangle;connectable=0;fillColor=none;top=0;left=0;bottom=0;right=0;fontStyle=1;overflow=hidden;html=1;whiteSpace=wrap;" vertex="1" parent="GrhEkzy324thI5kk4Dp7-65">
          <mxGeometry width="60" height="30" as="geometry">
            <mxRectangle width="60" height="30" as="alternateBounds" />
          </mxGeometry>
        </mxCell>
        <mxCell id="GrhEkzy324thI5kk4Dp7-67" value="ID" style="shape=partialRectangle;connectable=0;fillColor=none;top=0;left=0;bottom=0;right=0;align=left;spacingLeft=6;fontStyle=5;overflow=hidden;html=1;whiteSpace=wrap;" vertex="1" parent="GrhEkzy324thI5kk4Dp7-65">
          <mxGeometry x="60" width="120" height="30" as="geometry">
            <mxRectangle width="120" height="30" as="alternateBounds" />
          </mxGeometry>
        </mxCell>
        <mxCell id="GrhEkzy324thI5kk4Dp7-68" value="" style="shape=tableRow;horizontal=0;startSize=0;swimlaneHead=0;swimlaneBody=0;fillColor=none;collapsible=0;dropTarget=0;points=[[0,0.5],[1,0.5]];portConstraint=eastwest;top=0;left=0;right=0;bottom=0;html=1;" vertex="1" parent="GrhEkzy324thI5kk4Dp7-64">
          <mxGeometry y="60" width="180" height="30" as="geometry" />
        </mxCell>
        <mxCell id="GrhEkzy324thI5kk4Dp7-69" value="" style="shape=partialRectangle;connectable=0;fillColor=none;top=0;left=0;bottom=0;right=0;editable=1;overflow=hidden;html=1;whiteSpace=wrap;" vertex="1" parent="GrhEkzy324thI5kk4Dp7-68">
          <mxGeometry width="60" height="30" as="geometry">
            <mxRectangle width="60" height="30" as="alternateBounds" />
          </mxGeometry>
        </mxCell>
        <mxCell id="GrhEkzy324thI5kk4Dp7-70" value="" style="shape=partialRectangle;connectable=0;fillColor=none;top=0;left=0;bottom=0;right=0;align=left;spacingLeft=6;overflow=hidden;html=1;whiteSpace=wrap;" vertex="1" parent="GrhEkzy324thI5kk4Dp7-68">
          <mxGeometry x="60" width="120" height="30" as="geometry">
            <mxRectangle width="120" height="30" as="alternateBounds" />
          </mxGeometry>
        </mxCell>
        <mxCell id="GrhEkzy324thI5kk4Dp7-71" value="" style="shape=tableRow;horizontal=0;startSize=0;swimlaneHead=0;swimlaneBody=0;fillColor=none;collapsible=0;dropTarget=0;points=[[0,0.5],[1,0.5]];portConstraint=eastwest;top=0;left=0;right=0;bottom=0;html=1;" vertex="1" parent="GrhEkzy324thI5kk4Dp7-64">
          <mxGeometry y="90" width="180" height="30" as="geometry" />
        </mxCell>
        <mxCell id="GrhEkzy324thI5kk4Dp7-72" value="" style="shape=partialRectangle;connectable=0;fillColor=none;top=0;left=0;bottom=0;right=0;editable=1;overflow=hidden;html=1;whiteSpace=wrap;" vertex="1" parent="GrhEkzy324thI5kk4Dp7-71">
          <mxGeometry width="60" height="30" as="geometry">
            <mxRectangle width="60" height="30" as="alternateBounds" />
          </mxGeometry>
        </mxCell>
        <mxCell id="GrhEkzy324thI5kk4Dp7-73" value="" style="shape=partialRectangle;connectable=0;fillColor=none;top=0;left=0;bottom=0;right=0;align=left;spacingLeft=6;overflow=hidden;html=1;whiteSpace=wrap;" vertex="1" parent="GrhEkzy324thI5kk4Dp7-71">
          <mxGeometry x="60" width="120" height="30" as="geometry">
            <mxRectangle width="120" height="30" as="alternateBounds" />
          </mxGeometry>
        </mxCell>
        <mxCell id="GrhEkzy324thI5kk4Dp7-74" value="" style="line;strokeWidth=1;rotatable=0;dashed=0;labelPosition=right;align=left;verticalAlign=middle;spacingTop=0;spacingLeft=6;points=[];portConstraint=eastwest;" vertex="1" parent="1">
          <mxGeometry x="157.5" y="696" width="180" height="10" as="geometry" />
        </mxCell>
        <mxCell id="GrhEkzy324thI5kk4Dp7-75" value="ID_programa" style="shape=partialRectangle;connectable=0;fillColor=none;top=0;left=0;bottom=0;right=0;align=left;spacingLeft=6;fontStyle=5;overflow=hidden;html=1;whiteSpace=wrap;" vertex="1" parent="1">
          <mxGeometry x="217.5" y="702" width="120" height="30" as="geometry">
            <mxRectangle width="120" height="30" as="alternateBounds" />
          </mxGeometry>
        </mxCell>
        <mxCell id="GrhEkzy324thI5kk4Dp7-76" value="FK" style="shape=partialRectangle;connectable=0;fillColor=none;top=0;left=0;bottom=0;right=0;fontStyle=1;overflow=hidden;html=1;whiteSpace=wrap;" vertex="1" parent="1">
          <mxGeometry x="157.5" y="702" width="60" height="30" as="geometry">
            <mxRectangle width="60" height="30" as="alternateBounds" />
          </mxGeometry>
        </mxCell>
        <mxCell id="GrhEkzy324thI5kk4Dp7-77" style="edgeStyle=orthogonalEdgeStyle;rounded=0;orthogonalLoop=1;jettySize=auto;html=1;endArrow=none;endFill=0;" edge="1" parent="1" source="GrhEkzy324thI5kk4Dp7-54">
          <mxGeometry relative="1" as="geometry">
            <mxPoint x="340" y="720" as="targetPoint" />
            <Array as="points">
              <mxPoint x="394" y="681" />
              <mxPoint x="394" y="720" />
              <mxPoint x="341" y="720" />
            </Array>
          </mxGeometry>
        </mxCell>
        <mxCell id="GrhEkzy324thI5kk4Dp7-88" value="CURSO" style="shape=table;startSize=30;container=1;collapsible=1;childLayout=tableLayout;fixedRows=1;rowLines=0;fontStyle=1;align=center;resizeLast=1;html=1;whiteSpace=wrap;" vertex="1" parent="1">
          <mxGeometry x="520" y="1085" width="180" height="120" as="geometry" />
        </mxCell>
        <mxCell id="GrhEkzy324thI5kk4Dp7-89" value="" style="shape=tableRow;horizontal=0;startSize=0;swimlaneHead=0;swimlaneBody=0;fillColor=none;collapsible=0;dropTarget=0;points=[[0,0.5],[1,0.5]];portConstraint=eastwest;top=0;left=0;right=0;bottom=0;html=1;" vertex="1" parent="GrhEkzy324thI5kk4Dp7-88">
          <mxGeometry y="30" width="180" height="30" as="geometry" />
        </mxCell>
        <mxCell id="GrhEkzy324thI5kk4Dp7-90" value="PK" style="shape=partialRectangle;connectable=0;fillColor=none;top=0;left=0;bottom=0;right=0;fontStyle=1;overflow=hidden;html=1;whiteSpace=wrap;" vertex="1" parent="GrhEkzy324thI5kk4Dp7-89">
          <mxGeometry width="60" height="30" as="geometry">
            <mxRectangle width="60" height="30" as="alternateBounds" />
          </mxGeometry>
        </mxCell>
        <mxCell id="GrhEkzy324thI5kk4Dp7-91" value="ID" style="shape=partialRectangle;connectable=0;fillColor=none;top=0;left=0;bottom=0;right=0;align=left;spacingLeft=6;fontStyle=5;overflow=hidden;html=1;whiteSpace=wrap;" vertex="1" parent="GrhEkzy324thI5kk4Dp7-89">
          <mxGeometry x="60" width="120" height="30" as="geometry">
            <mxRectangle width="120" height="30" as="alternateBounds" />
          </mxGeometry>
        </mxCell>
        <mxCell id="GrhEkzy324thI5kk4Dp7-92" value="" style="shape=tableRow;horizontal=0;startSize=0;swimlaneHead=0;swimlaneBody=0;fillColor=none;collapsible=0;dropTarget=0;points=[[0,0.5],[1,0.5]];portConstraint=eastwest;top=0;left=0;right=0;bottom=0;html=1;" vertex="1" parent="GrhEkzy324thI5kk4Dp7-88">
          <mxGeometry y="60" width="180" height="30" as="geometry" />
        </mxCell>
        <mxCell id="GrhEkzy324thI5kk4Dp7-93" value="" style="shape=partialRectangle;connectable=0;fillColor=none;top=0;left=0;bottom=0;right=0;editable=1;overflow=hidden;html=1;whiteSpace=wrap;" vertex="1" parent="GrhEkzy324thI5kk4Dp7-92">
          <mxGeometry width="60" height="30" as="geometry">
            <mxRectangle width="60" height="30" as="alternateBounds" />
          </mxGeometry>
        </mxCell>
        <mxCell id="GrhEkzy324thI5kk4Dp7-94" value="" style="shape=partialRectangle;connectable=0;fillColor=none;top=0;left=0;bottom=0;right=0;align=left;spacingLeft=6;overflow=hidden;html=1;whiteSpace=wrap;" vertex="1" parent="GrhEkzy324thI5kk4Dp7-92">
          <mxGeometry x="60" width="120" height="30" as="geometry">
            <mxRectangle width="120" height="30" as="alternateBounds" />
          </mxGeometry>
        </mxCell>
        <mxCell id="GrhEkzy324thI5kk4Dp7-95" value="" style="shape=tableRow;horizontal=0;startSize=0;swimlaneHead=0;swimlaneBody=0;fillColor=none;collapsible=0;dropTarget=0;points=[[0,0.5],[1,0.5]];portConstraint=eastwest;top=0;left=0;right=0;bottom=0;html=1;" vertex="1" parent="GrhEkzy324thI5kk4Dp7-88">
          <mxGeometry y="90" width="180" height="30" as="geometry" />
        </mxCell>
        <mxCell id="GrhEkzy324thI5kk4Dp7-96" value="" style="shape=partialRectangle;connectable=0;fillColor=none;top=0;left=0;bottom=0;right=0;editable=1;overflow=hidden;html=1;whiteSpace=wrap;" vertex="1" parent="GrhEkzy324thI5kk4Dp7-95">
          <mxGeometry width="60" height="30" as="geometry">
            <mxRectangle width="60" height="30" as="alternateBounds" />
          </mxGeometry>
        </mxCell>
        <mxCell id="GrhEkzy324thI5kk4Dp7-97" value="" style="shape=partialRectangle;connectable=0;fillColor=none;top=0;left=0;bottom=0;right=0;align=left;spacingLeft=6;overflow=hidden;html=1;whiteSpace=wrap;" vertex="1" parent="GrhEkzy324thI5kk4Dp7-95">
          <mxGeometry x="60" width="120" height="30" as="geometry">
            <mxRectangle width="120" height="30" as="alternateBounds" />
          </mxGeometry>
        </mxCell>
        <mxCell id="GrhEkzy324thI5kk4Dp7-98" value="" style="line;strokeWidth=1;rotatable=0;dashed=0;labelPosition=right;align=left;verticalAlign=middle;spacingTop=0;spacingLeft=6;points=[];portConstraint=eastwest;" vertex="1" parent="1">
          <mxGeometry x="520" y="1145" width="180" height="10" as="geometry" />
        </mxCell>
        <mxCell id="GrhEkzy324thI5kk4Dp7-99" value="PROGRAMA ACADÉMICO" style="shape=table;startSize=30;container=1;collapsible=1;childLayout=tableLayout;fixedRows=1;rowLines=0;fontStyle=1;align=center;resizeLast=1;html=1;whiteSpace=wrap;" vertex="1" parent="1">
          <mxGeometry x="22.5" y="1080" width="180" height="160" as="geometry" />
        </mxCell>
        <mxCell id="GrhEkzy324thI5kk4Dp7-100" value="" style="shape=tableRow;horizontal=0;startSize=0;swimlaneHead=0;swimlaneBody=0;fillColor=none;collapsible=0;dropTarget=0;points=[[0,0.5],[1,0.5]];portConstraint=eastwest;top=0;left=0;right=0;bottom=0;html=1;" vertex="1" parent="GrhEkzy324thI5kk4Dp7-99">
          <mxGeometry y="30" width="180" height="30" as="geometry" />
        </mxCell>
        <mxCell id="GrhEkzy324thI5kk4Dp7-101" value="PK" style="shape=partialRectangle;connectable=0;fillColor=none;top=0;left=0;bottom=0;right=0;fontStyle=1;overflow=hidden;html=1;whiteSpace=wrap;" vertex="1" parent="GrhEkzy324thI5kk4Dp7-100">
          <mxGeometry width="60" height="30" as="geometry">
            <mxRectangle width="60" height="30" as="alternateBounds" />
          </mxGeometry>
        </mxCell>
        <mxCell id="GrhEkzy324thI5kk4Dp7-102" value="ID_profesor" style="shape=partialRectangle;connectable=0;fillColor=none;top=0;left=0;bottom=0;right=0;align=left;spacingLeft=6;fontStyle=5;overflow=hidden;html=1;whiteSpace=wrap;" vertex="1" parent="GrhEkzy324thI5kk4Dp7-100">
          <mxGeometry x="60" width="120" height="30" as="geometry">
            <mxRectangle width="120" height="30" as="alternateBounds" />
          </mxGeometry>
        </mxCell>
        <mxCell id="GrhEkzy324thI5kk4Dp7-103" value="" style="shape=tableRow;horizontal=0;startSize=0;swimlaneHead=0;swimlaneBody=0;fillColor=none;collapsible=0;dropTarget=0;points=[[0,0.5],[1,0.5]];portConstraint=eastwest;top=0;left=0;right=0;bottom=0;html=1;" vertex="1" parent="GrhEkzy324thI5kk4Dp7-99">
          <mxGeometry y="60" width="180" height="20" as="geometry" />
        </mxCell>
        <mxCell id="GrhEkzy324thI5kk4Dp7-104" value="" style="shape=partialRectangle;connectable=0;fillColor=none;top=0;left=0;bottom=0;right=0;editable=1;overflow=hidden;html=1;whiteSpace=wrap;" vertex="1" parent="GrhEkzy324thI5kk4Dp7-103">
          <mxGeometry width="60" height="20" as="geometry">
            <mxRectangle width="60" height="20" as="alternateBounds" />
          </mxGeometry>
        </mxCell>
        <mxCell id="GrhEkzy324thI5kk4Dp7-105" value="" style="shape=partialRectangle;connectable=0;fillColor=none;top=0;left=0;bottom=0;right=0;align=left;spacingLeft=6;overflow=hidden;html=1;whiteSpace=wrap;" vertex="1" parent="GrhEkzy324thI5kk4Dp7-103">
          <mxGeometry x="60" width="120" height="20" as="geometry">
            <mxRectangle width="120" height="20" as="alternateBounds" />
          </mxGeometry>
        </mxCell>
        <mxCell id="GrhEkzy324thI5kk4Dp7-106" value="" style="shape=tableRow;horizontal=0;startSize=0;swimlaneHead=0;swimlaneBody=0;fillColor=none;collapsible=0;dropTarget=0;points=[[0,0.5],[1,0.5]];portConstraint=eastwest;top=0;left=0;right=0;bottom=0;html=1;" vertex="1" parent="GrhEkzy324thI5kk4Dp7-99">
          <mxGeometry y="80" width="180" height="80" as="geometry" />
        </mxCell>
        <mxCell id="GrhEkzy324thI5kk4Dp7-107" value="" style="shape=partialRectangle;connectable=0;fillColor=none;top=0;left=0;bottom=0;right=0;editable=1;overflow=hidden;html=1;whiteSpace=wrap;" vertex="1" parent="GrhEkzy324thI5kk4Dp7-106">
          <mxGeometry width="60" height="80" as="geometry">
            <mxRectangle width="60" height="80" as="alternateBounds" />
          </mxGeometry>
        </mxCell>
        <mxCell id="GrhEkzy324thI5kk4Dp7-108" value="" style="shape=partialRectangle;connectable=0;fillColor=none;top=0;left=0;bottom=0;right=0;align=left;spacingLeft=6;overflow=hidden;html=1;whiteSpace=wrap;" vertex="1" parent="GrhEkzy324thI5kk4Dp7-106">
          <mxGeometry x="60" width="120" height="80" as="geometry">
            <mxRectangle width="120" height="80" as="alternateBounds" />
          </mxGeometry>
        </mxCell>
        <mxCell id="GrhEkzy324thI5kk4Dp7-109" value="" style="line;strokeWidth=1;rotatable=0;dashed=0;labelPosition=right;align=left;verticalAlign=middle;spacingTop=0;spacingLeft=6;points=[];portConstraint=eastwest;" vertex="1" parent="1">
          <mxGeometry x="22.5" y="1140" width="180" height="10" as="geometry" />
        </mxCell>
        <mxCell id="GrhEkzy324thI5kk4Dp7-110" value="imparte" style="shape=table;startSize=30;container=1;collapsible=1;childLayout=tableLayout;fixedRows=1;rowLines=0;fontStyle=1;align=center;resizeLast=1;html=1;whiteSpace=wrap;" vertex="1" parent="1">
          <mxGeometry x="290" y="1080" width="180" height="120" as="geometry" />
        </mxCell>
        <mxCell id="GrhEkzy324thI5kk4Dp7-111" value="" style="shape=tableRow;horizontal=0;startSize=0;swimlaneHead=0;swimlaneBody=0;fillColor=none;collapsible=0;dropTarget=0;points=[[0,0.5],[1,0.5]];portConstraint=eastwest;top=0;left=0;right=0;bottom=0;html=1;" vertex="1" parent="GrhEkzy324thI5kk4Dp7-110">
          <mxGeometry y="30" width="180" height="30" as="geometry" />
        </mxCell>
        <mxCell id="GrhEkzy324thI5kk4Dp7-112" value="PK, FK" style="shape=partialRectangle;connectable=0;fillColor=none;top=0;left=0;bottom=0;right=0;fontStyle=1;overflow=hidden;html=1;whiteSpace=wrap;" vertex="1" parent="GrhEkzy324thI5kk4Dp7-111">
          <mxGeometry width="60" height="30" as="geometry">
            <mxRectangle width="60" height="30" as="alternateBounds" />
          </mxGeometry>
        </mxCell>
        <mxCell id="GrhEkzy324thI5kk4Dp7-113" value="ID_profesor" style="shape=partialRectangle;connectable=0;fillColor=none;top=0;left=0;bottom=0;right=0;align=left;spacingLeft=6;fontStyle=5;overflow=hidden;html=1;whiteSpace=wrap;" vertex="1" parent="GrhEkzy324thI5kk4Dp7-111">
          <mxGeometry x="60" width="120" height="30" as="geometry">
            <mxRectangle width="120" height="30" as="alternateBounds" />
          </mxGeometry>
        </mxCell>
        <mxCell id="GrhEkzy324thI5kk4Dp7-114" value="" style="shape=tableRow;horizontal=0;startSize=0;swimlaneHead=0;swimlaneBody=0;fillColor=none;collapsible=0;dropTarget=0;points=[[0,0.5],[1,0.5]];portConstraint=eastwest;top=0;left=0;right=0;bottom=0;html=1;" vertex="1" parent="GrhEkzy324thI5kk4Dp7-110">
          <mxGeometry y="60" width="180" height="30" as="geometry" />
        </mxCell>
        <mxCell id="GrhEkzy324thI5kk4Dp7-115" value="" style="shape=partialRectangle;connectable=0;fillColor=none;top=0;left=0;bottom=0;right=0;editable=1;overflow=hidden;html=1;whiteSpace=wrap;" vertex="1" parent="GrhEkzy324thI5kk4Dp7-114">
          <mxGeometry width="60" height="30" as="geometry">
            <mxRectangle width="60" height="30" as="alternateBounds" />
          </mxGeometry>
        </mxCell>
        <mxCell id="GrhEkzy324thI5kk4Dp7-116" value="" style="shape=partialRectangle;connectable=0;fillColor=none;top=0;left=0;bottom=0;right=0;align=left;spacingLeft=6;overflow=hidden;html=1;whiteSpace=wrap;" vertex="1" parent="GrhEkzy324thI5kk4Dp7-114">
          <mxGeometry x="60" width="120" height="30" as="geometry">
            <mxRectangle width="120" height="30" as="alternateBounds" />
          </mxGeometry>
        </mxCell>
        <mxCell id="GrhEkzy324thI5kk4Dp7-117" value="" style="shape=tableRow;horizontal=0;startSize=0;swimlaneHead=0;swimlaneBody=0;fillColor=none;collapsible=0;dropTarget=0;points=[[0,0.5],[1,0.5]];portConstraint=eastwest;top=0;left=0;right=0;bottom=0;html=1;" vertex="1" parent="GrhEkzy324thI5kk4Dp7-110">
          <mxGeometry y="90" width="180" height="30" as="geometry" />
        </mxCell>
        <mxCell id="GrhEkzy324thI5kk4Dp7-118" value="" style="shape=partialRectangle;connectable=0;fillColor=none;top=0;left=0;bottom=0;right=0;editable=1;overflow=hidden;html=1;whiteSpace=wrap;" vertex="1" parent="GrhEkzy324thI5kk4Dp7-117">
          <mxGeometry width="60" height="30" as="geometry">
            <mxRectangle width="60" height="30" as="alternateBounds" />
          </mxGeometry>
        </mxCell>
        <mxCell id="GrhEkzy324thI5kk4Dp7-119" value="" style="shape=partialRectangle;connectable=0;fillColor=none;top=0;left=0;bottom=0;right=0;align=left;spacingLeft=6;overflow=hidden;html=1;whiteSpace=wrap;" vertex="1" parent="GrhEkzy324thI5kk4Dp7-117">
          <mxGeometry x="60" width="120" height="30" as="geometry">
            <mxRectangle width="120" height="30" as="alternateBounds" />
          </mxGeometry>
        </mxCell>
        <mxCell id="GrhEkzy324thI5kk4Dp7-120" value="" style="line;strokeWidth=1;rotatable=0;dashed=0;labelPosition=right;align=left;verticalAlign=middle;spacingTop=0;spacingLeft=6;points=[];portConstraint=eastwest;" vertex="1" parent="1">
          <mxGeometry x="290" y="1145" width="180" height="10" as="geometry" />
        </mxCell>
        <mxCell id="GrhEkzy324thI5kk4Dp7-121" value="nombre" style="shape=partialRectangle;connectable=0;fillColor=none;top=0;left=0;bottom=0;right=0;align=left;spacingLeft=6;overflow=hidden;html=1;whiteSpace=wrap;" vertex="1" parent="1">
          <mxGeometry x="79.5" y="1175" width="120" height="30" as="geometry">
            <mxRectangle width="120" height="30" as="alternateBounds" />
          </mxGeometry>
        </mxCell>
        <mxCell id="GrhEkzy324thI5kk4Dp7-122" value="apellido" style="shape=partialRectangle;connectable=0;fillColor=none;top=0;left=0;bottom=0;right=0;align=left;spacingLeft=6;overflow=hidden;html=1;whiteSpace=wrap;" vertex="1" parent="1">
          <mxGeometry x="80.5" y="1200" width="120" height="30" as="geometry">
            <mxRectangle width="120" height="30" as="alternateBounds" />
          </mxGeometry>
        </mxCell>
        <mxCell id="GrhEkzy324thI5kk4Dp7-123" value="DNI" style="shape=partialRectangle;connectable=0;fillColor=none;top=0;left=0;bottom=0;right=0;align=left;spacingLeft=6;overflow=hidden;html=1;whiteSpace=wrap;" vertex="1" parent="1">
          <mxGeometry x="82.5" y="1150" width="120" height="30" as="geometry">
            <mxRectangle width="120" height="30" as="alternateBounds" />
          </mxGeometry>
        </mxCell>
        <mxCell id="GrhEkzy324thI5kk4Dp7-124" value="PK, FK" style="shape=partialRectangle;connectable=0;fillColor=none;top=0;left=0;bottom=0;right=0;fontStyle=1;overflow=hidden;html=1;whiteSpace=wrap;" vertex="1" parent="1">
          <mxGeometry x="290" y="1155" width="60" height="30" as="geometry">
            <mxRectangle width="60" height="30" as="alternateBounds" />
          </mxGeometry>
        </mxCell>
        <mxCell id="GrhEkzy324thI5kk4Dp7-125" value="ID_curso" style="shape=partialRectangle;connectable=0;fillColor=none;top=0;left=0;bottom=0;right=0;align=left;spacingLeft=6;fontStyle=5;overflow=hidden;html=1;whiteSpace=wrap;" vertex="1" parent="1">
          <mxGeometry x="350" y="1155" width="120" height="30" as="geometry">
            <mxRectangle width="120" height="30" as="alternateBounds" />
          </mxGeometry>
        </mxCell>
        <mxCell id="GrhEkzy324thI5kk4Dp7-126" style="edgeStyle=orthogonalEdgeStyle;rounded=0;orthogonalLoop=1;jettySize=auto;html=1;endArrow=none;endFill=0;" edge="1" parent="1" source="GrhEkzy324thI5kk4Dp7-89">
          <mxGeometry relative="1" as="geometry">
            <mxPoint x="472" y="1170" as="targetPoint" />
            <Array as="points">
              <mxPoint x="495" y="1130" />
              <mxPoint x="495" y="1180" />
              <mxPoint x="470" y="1180" />
              <mxPoint x="470" y="1170" />
            </Array>
          </mxGeometry>
        </mxCell>
        <mxCell id="GrhEkzy324thI5kk4Dp7-127" style="edgeStyle=orthogonalEdgeStyle;rounded=0;orthogonalLoop=1;jettySize=auto;html=1;endArrow=none;endFill=0;" edge="1" parent="1" source="GrhEkzy324thI5kk4Dp7-111" target="GrhEkzy324thI5kk4Dp7-100">
          <mxGeometry relative="1" as="geometry" />
        </mxCell>
        <mxCell id="GrhEkzy324thI5kk4Dp7-128" value="2 pk???" style="text;strokeColor=none;fillColor=none;spacingLeft=4;spacingRight=4;overflow=hidden;rotatable=0;points=[[0,0.5],[1,0.5]];portConstraint=eastwest;fontSize=12;whiteSpace=wrap;html=1;" vertex="1" parent="1">
          <mxGeometry x="217.5" y="1138" width="110" height="30" as="geometry" />
        </mxCell>
        <mxCell id="GrhEkzy324thI5kk4Dp7-143" value="CURSO" style="shape=table;startSize=30;container=1;collapsible=1;childLayout=tableLayout;fixedRows=1;rowLines=0;fontStyle=1;align=center;resizeLast=1;html=1;whiteSpace=wrap;" vertex="1" parent="1">
          <mxGeometry x="520" y="1425" width="180" height="120" as="geometry" />
        </mxCell>
        <mxCell id="GrhEkzy324thI5kk4Dp7-144" value="" style="shape=tableRow;horizontal=0;startSize=0;swimlaneHead=0;swimlaneBody=0;fillColor=none;collapsible=0;dropTarget=0;points=[[0,0.5],[1,0.5]];portConstraint=eastwest;top=0;left=0;right=0;bottom=0;html=1;" vertex="1" parent="GrhEkzy324thI5kk4Dp7-143">
          <mxGeometry y="30" width="180" height="30" as="geometry" />
        </mxCell>
        <mxCell id="GrhEkzy324thI5kk4Dp7-145" value="PK" style="shape=partialRectangle;connectable=0;fillColor=none;top=0;left=0;bottom=0;right=0;fontStyle=1;overflow=hidden;html=1;whiteSpace=wrap;" vertex="1" parent="GrhEkzy324thI5kk4Dp7-144">
          <mxGeometry width="60" height="30" as="geometry">
            <mxRectangle width="60" height="30" as="alternateBounds" />
          </mxGeometry>
        </mxCell>
        <mxCell id="GrhEkzy324thI5kk4Dp7-146" value="ID" style="shape=partialRectangle;connectable=0;fillColor=none;top=0;left=0;bottom=0;right=0;align=left;spacingLeft=6;fontStyle=5;overflow=hidden;html=1;whiteSpace=wrap;" vertex="1" parent="GrhEkzy324thI5kk4Dp7-144">
          <mxGeometry x="60" width="120" height="30" as="geometry">
            <mxRectangle width="120" height="30" as="alternateBounds" />
          </mxGeometry>
        </mxCell>
        <mxCell id="GrhEkzy324thI5kk4Dp7-147" value="" style="shape=tableRow;horizontal=0;startSize=0;swimlaneHead=0;swimlaneBody=0;fillColor=none;collapsible=0;dropTarget=0;points=[[0,0.5],[1,0.5]];portConstraint=eastwest;top=0;left=0;right=0;bottom=0;html=1;" vertex="1" parent="GrhEkzy324thI5kk4Dp7-143">
          <mxGeometry y="60" width="180" height="30" as="geometry" />
        </mxCell>
        <mxCell id="GrhEkzy324thI5kk4Dp7-148" value="" style="shape=partialRectangle;connectable=0;fillColor=none;top=0;left=0;bottom=0;right=0;editable=1;overflow=hidden;html=1;whiteSpace=wrap;" vertex="1" parent="GrhEkzy324thI5kk4Dp7-147">
          <mxGeometry width="60" height="30" as="geometry">
            <mxRectangle width="60" height="30" as="alternateBounds" />
          </mxGeometry>
        </mxCell>
        <mxCell id="GrhEkzy324thI5kk4Dp7-149" value="" style="shape=partialRectangle;connectable=0;fillColor=none;top=0;left=0;bottom=0;right=0;align=left;spacingLeft=6;overflow=hidden;html=1;whiteSpace=wrap;" vertex="1" parent="GrhEkzy324thI5kk4Dp7-147">
          <mxGeometry x="60" width="120" height="30" as="geometry">
            <mxRectangle width="120" height="30" as="alternateBounds" />
          </mxGeometry>
        </mxCell>
        <mxCell id="GrhEkzy324thI5kk4Dp7-150" value="" style="shape=tableRow;horizontal=0;startSize=0;swimlaneHead=0;swimlaneBody=0;fillColor=none;collapsible=0;dropTarget=0;points=[[0,0.5],[1,0.5]];portConstraint=eastwest;top=0;left=0;right=0;bottom=0;html=1;" vertex="1" parent="GrhEkzy324thI5kk4Dp7-143">
          <mxGeometry y="90" width="180" height="30" as="geometry" />
        </mxCell>
        <mxCell id="GrhEkzy324thI5kk4Dp7-151" value="" style="shape=partialRectangle;connectable=0;fillColor=none;top=0;left=0;bottom=0;right=0;editable=1;overflow=hidden;html=1;whiteSpace=wrap;" vertex="1" parent="GrhEkzy324thI5kk4Dp7-150">
          <mxGeometry width="60" height="30" as="geometry">
            <mxRectangle width="60" height="30" as="alternateBounds" />
          </mxGeometry>
        </mxCell>
        <mxCell id="GrhEkzy324thI5kk4Dp7-152" value="" style="shape=partialRectangle;connectable=0;fillColor=none;top=0;left=0;bottom=0;right=0;align=left;spacingLeft=6;overflow=hidden;html=1;whiteSpace=wrap;" vertex="1" parent="GrhEkzy324thI5kk4Dp7-150">
          <mxGeometry x="60" width="120" height="30" as="geometry">
            <mxRectangle width="120" height="30" as="alternateBounds" />
          </mxGeometry>
        </mxCell>
        <mxCell id="GrhEkzy324thI5kk4Dp7-153" value="" style="line;strokeWidth=1;rotatable=0;dashed=0;labelPosition=right;align=left;verticalAlign=middle;spacingTop=0;spacingLeft=6;points=[];portConstraint=eastwest;" vertex="1" parent="1">
          <mxGeometry x="520" y="1480" width="180" height="10" as="geometry" />
        </mxCell>
        <mxCell id="GrhEkzy324thI5kk4Dp7-154" value="ASIGNATURA" style="shape=table;startSize=30;container=1;collapsible=1;childLayout=tableLayout;fixedRows=1;rowLines=0;fontStyle=1;align=center;resizeLast=1;html=1;whiteSpace=wrap;" vertex="1" parent="1">
          <mxGeometry x="19.5" y="1430" width="180" height="120" as="geometry" />
        </mxCell>
        <mxCell id="GrhEkzy324thI5kk4Dp7-155" value="" style="shape=tableRow;horizontal=0;startSize=0;swimlaneHead=0;swimlaneBody=0;fillColor=none;collapsible=0;dropTarget=0;points=[[0,0.5],[1,0.5]];portConstraint=eastwest;top=0;left=0;right=0;bottom=0;html=1;" vertex="1" parent="GrhEkzy324thI5kk4Dp7-154">
          <mxGeometry y="30" width="180" height="30" as="geometry" />
        </mxCell>
        <mxCell id="GrhEkzy324thI5kk4Dp7-156" value="PK" style="shape=partialRectangle;connectable=0;fillColor=none;top=0;left=0;bottom=0;right=0;fontStyle=1;overflow=hidden;html=1;whiteSpace=wrap;" vertex="1" parent="GrhEkzy324thI5kk4Dp7-155">
          <mxGeometry width="60" height="30" as="geometry">
            <mxRectangle width="60" height="30" as="alternateBounds" />
          </mxGeometry>
        </mxCell>
        <mxCell id="GrhEkzy324thI5kk4Dp7-157" value="ID" style="shape=partialRectangle;connectable=0;fillColor=none;top=0;left=0;bottom=0;right=0;align=left;spacingLeft=6;fontStyle=5;overflow=hidden;html=1;whiteSpace=wrap;" vertex="1" parent="GrhEkzy324thI5kk4Dp7-155">
          <mxGeometry x="60" width="120" height="30" as="geometry">
            <mxRectangle width="120" height="30" as="alternateBounds" />
          </mxGeometry>
        </mxCell>
        <mxCell id="GrhEkzy324thI5kk4Dp7-158" value="" style="shape=tableRow;horizontal=0;startSize=0;swimlaneHead=0;swimlaneBody=0;fillColor=none;collapsible=0;dropTarget=0;points=[[0,0.5],[1,0.5]];portConstraint=eastwest;top=0;left=0;right=0;bottom=0;html=1;" vertex="1" parent="GrhEkzy324thI5kk4Dp7-154">
          <mxGeometry y="60" width="180" height="30" as="geometry" />
        </mxCell>
        <mxCell id="GrhEkzy324thI5kk4Dp7-159" value="" style="shape=partialRectangle;connectable=0;fillColor=none;top=0;left=0;bottom=0;right=0;editable=1;overflow=hidden;html=1;whiteSpace=wrap;" vertex="1" parent="GrhEkzy324thI5kk4Dp7-158">
          <mxGeometry width="60" height="30" as="geometry">
            <mxRectangle width="60" height="30" as="alternateBounds" />
          </mxGeometry>
        </mxCell>
        <mxCell id="GrhEkzy324thI5kk4Dp7-160" value="" style="shape=partialRectangle;connectable=0;fillColor=none;top=0;left=0;bottom=0;right=0;align=left;spacingLeft=6;overflow=hidden;html=1;whiteSpace=wrap;" vertex="1" parent="GrhEkzy324thI5kk4Dp7-158">
          <mxGeometry x="60" width="120" height="30" as="geometry">
            <mxRectangle width="120" height="30" as="alternateBounds" />
          </mxGeometry>
        </mxCell>
        <mxCell id="GrhEkzy324thI5kk4Dp7-161" value="" style="shape=tableRow;horizontal=0;startSize=0;swimlaneHead=0;swimlaneBody=0;fillColor=none;collapsible=0;dropTarget=0;points=[[0,0.5],[1,0.5]];portConstraint=eastwest;top=0;left=0;right=0;bottom=0;html=1;" vertex="1" parent="GrhEkzy324thI5kk4Dp7-154">
          <mxGeometry y="90" width="180" height="30" as="geometry" />
        </mxCell>
        <mxCell id="GrhEkzy324thI5kk4Dp7-162" value="" style="shape=partialRectangle;connectable=0;fillColor=none;top=0;left=0;bottom=0;right=0;editable=1;overflow=hidden;html=1;whiteSpace=wrap;" vertex="1" parent="GrhEkzy324thI5kk4Dp7-161">
          <mxGeometry width="60" height="30" as="geometry">
            <mxRectangle width="60" height="30" as="alternateBounds" />
          </mxGeometry>
        </mxCell>
        <mxCell id="GrhEkzy324thI5kk4Dp7-163" value="" style="shape=partialRectangle;connectable=0;fillColor=none;top=0;left=0;bottom=0;right=0;align=left;spacingLeft=6;overflow=hidden;html=1;whiteSpace=wrap;" vertex="1" parent="GrhEkzy324thI5kk4Dp7-161">
          <mxGeometry x="60" width="120" height="30" as="geometry">
            <mxRectangle width="120" height="30" as="alternateBounds" />
          </mxGeometry>
        </mxCell>
        <mxCell id="GrhEkzy324thI5kk4Dp7-164" value="" style="line;strokeWidth=1;rotatable=0;dashed=0;labelPosition=right;align=left;verticalAlign=middle;spacingTop=0;spacingLeft=6;points=[];portConstraint=eastwest;" vertex="1" parent="1">
          <mxGeometry x="19.5" y="1490" width="180" height="10" as="geometry" />
        </mxCell>
        <mxCell id="GrhEkzy324thI5kk4Dp7-165" value="relacionada" style="shape=table;startSize=30;container=1;collapsible=1;childLayout=tableLayout;fixedRows=1;rowLines=0;fontStyle=1;align=center;resizeLast=1;html=1;whiteSpace=wrap;" vertex="1" parent="1">
          <mxGeometry x="262.5" y="1430" width="180" height="120" as="geometry" />
        </mxCell>
        <mxCell id="GrhEkzy324thI5kk4Dp7-166" value="" style="shape=tableRow;horizontal=0;startSize=0;swimlaneHead=0;swimlaneBody=0;fillColor=none;collapsible=0;dropTarget=0;points=[[0,0.5],[1,0.5]];portConstraint=eastwest;top=0;left=0;right=0;bottom=0;html=1;" vertex="1" parent="GrhEkzy324thI5kk4Dp7-165">
          <mxGeometry y="30" width="180" height="30" as="geometry" />
        </mxCell>
        <mxCell id="GrhEkzy324thI5kk4Dp7-167" value="" style="shape=partialRectangle;connectable=0;fillColor=none;top=0;left=0;bottom=0;right=0;fontStyle=1;overflow=hidden;html=1;whiteSpace=wrap;" vertex="1" parent="GrhEkzy324thI5kk4Dp7-166">
          <mxGeometry width="60" height="30" as="geometry">
            <mxRectangle width="60" height="30" as="alternateBounds" />
          </mxGeometry>
        </mxCell>
        <mxCell id="GrhEkzy324thI5kk4Dp7-168" value="ID_asignatura" style="shape=partialRectangle;connectable=0;fillColor=none;top=0;left=0;bottom=0;right=0;align=left;spacingLeft=6;fontStyle=5;overflow=hidden;html=1;whiteSpace=wrap;" vertex="1" parent="GrhEkzy324thI5kk4Dp7-166">
          <mxGeometry x="60" width="120" height="30" as="geometry">
            <mxRectangle width="120" height="30" as="alternateBounds" />
          </mxGeometry>
        </mxCell>
        <mxCell id="GrhEkzy324thI5kk4Dp7-169" value="" style="shape=tableRow;horizontal=0;startSize=0;swimlaneHead=0;swimlaneBody=0;fillColor=none;collapsible=0;dropTarget=0;points=[[0,0.5],[1,0.5]];portConstraint=eastwest;top=0;left=0;right=0;bottom=0;html=1;" vertex="1" parent="GrhEkzy324thI5kk4Dp7-165">
          <mxGeometry y="60" width="180" height="30" as="geometry" />
        </mxCell>
        <mxCell id="GrhEkzy324thI5kk4Dp7-170" value="" style="shape=partialRectangle;connectable=0;fillColor=none;top=0;left=0;bottom=0;right=0;editable=1;overflow=hidden;html=1;whiteSpace=wrap;" vertex="1" parent="GrhEkzy324thI5kk4Dp7-169">
          <mxGeometry width="60" height="30" as="geometry">
            <mxRectangle width="60" height="30" as="alternateBounds" />
          </mxGeometry>
        </mxCell>
        <mxCell id="GrhEkzy324thI5kk4Dp7-171" value="" style="shape=partialRectangle;connectable=0;fillColor=none;top=0;left=0;bottom=0;right=0;align=left;spacingLeft=6;overflow=hidden;html=1;whiteSpace=wrap;" vertex="1" parent="GrhEkzy324thI5kk4Dp7-169">
          <mxGeometry x="60" width="120" height="30" as="geometry">
            <mxRectangle width="120" height="30" as="alternateBounds" />
          </mxGeometry>
        </mxCell>
        <mxCell id="GrhEkzy324thI5kk4Dp7-172" value="" style="shape=tableRow;horizontal=0;startSize=0;swimlaneHead=0;swimlaneBody=0;fillColor=none;collapsible=0;dropTarget=0;points=[[0,0.5],[1,0.5]];portConstraint=eastwest;top=0;left=0;right=0;bottom=0;html=1;" vertex="1" parent="GrhEkzy324thI5kk4Dp7-165">
          <mxGeometry y="90" width="180" height="30" as="geometry" />
        </mxCell>
        <mxCell id="GrhEkzy324thI5kk4Dp7-173" value="" style="shape=partialRectangle;connectable=0;fillColor=none;top=0;left=0;bottom=0;right=0;editable=1;overflow=hidden;html=1;whiteSpace=wrap;" vertex="1" parent="GrhEkzy324thI5kk4Dp7-172">
          <mxGeometry width="60" height="30" as="geometry">
            <mxRectangle width="60" height="30" as="alternateBounds" />
          </mxGeometry>
        </mxCell>
        <mxCell id="GrhEkzy324thI5kk4Dp7-174" value="" style="shape=partialRectangle;connectable=0;fillColor=none;top=0;left=0;bottom=0;right=0;align=left;spacingLeft=6;overflow=hidden;html=1;whiteSpace=wrap;" vertex="1" parent="GrhEkzy324thI5kk4Dp7-172">
          <mxGeometry x="60" width="120" height="30" as="geometry">
            <mxRectangle width="120" height="30" as="alternateBounds" />
          </mxGeometry>
        </mxCell>
        <mxCell id="GrhEkzy324thI5kk4Dp7-175" value="" style="line;strokeWidth=1;rotatable=0;dashed=0;labelPosition=right;align=left;verticalAlign=middle;spacingTop=0;spacingLeft=6;points=[];portConstraint=eastwest;" vertex="1" parent="1">
          <mxGeometry x="262.5" y="1490" width="180" height="10" as="geometry" />
        </mxCell>
        <mxCell id="GrhEkzy324thI5kk4Dp7-176" value="PK, FK" style="shape=partialRectangle;connectable=0;fillColor=none;top=0;left=0;bottom=0;right=0;fontStyle=1;overflow=hidden;html=1;whiteSpace=wrap;" vertex="1" parent="1">
          <mxGeometry x="262.5" y="1460" width="60" height="30" as="geometry">
            <mxRectangle width="60" height="30" as="alternateBounds" />
          </mxGeometry>
        </mxCell>
        <mxCell id="GrhEkzy324thI5kk4Dp7-177" value="PK, FK" style="shape=partialRectangle;connectable=0;fillColor=none;top=0;left=0;bottom=0;right=0;fontStyle=1;overflow=hidden;html=1;whiteSpace=wrap;" vertex="1" parent="1">
          <mxGeometry x="262.5" y="1503" width="60" height="30" as="geometry">
            <mxRectangle width="60" height="30" as="alternateBounds" />
          </mxGeometry>
        </mxCell>
        <mxCell id="GrhEkzy324thI5kk4Dp7-178" value="ID_curso" style="shape=partialRectangle;connectable=0;fillColor=none;top=0;left=0;bottom=0;right=0;align=left;spacingLeft=6;fontStyle=5;overflow=hidden;html=1;whiteSpace=wrap;" vertex="1" parent="1">
          <mxGeometry x="322.5" y="1508" width="120" height="30" as="geometry">
            <mxRectangle width="120" height="30" as="alternateBounds" />
          </mxGeometry>
        </mxCell>
        <mxCell id="GrhEkzy324thI5kk4Dp7-179" style="edgeStyle=orthogonalEdgeStyle;rounded=0;orthogonalLoop=1;jettySize=auto;html=1;endArrow=none;endFill=0;" edge="1" parent="1" source="GrhEkzy324thI5kk4Dp7-155">
          <mxGeometry relative="1" as="geometry">
            <mxPoint x="260" y="1475" as="targetPoint" />
          </mxGeometry>
        </mxCell>
        <mxCell id="GrhEkzy324thI5kk4Dp7-180" style="edgeStyle=orthogonalEdgeStyle;rounded=0;orthogonalLoop=1;jettySize=auto;html=1;endArrow=none;endFill=0;" edge="1" parent="1" source="GrhEkzy324thI5kk4Dp7-144">
          <mxGeometry relative="1" as="geometry">
            <mxPoint x="440" y="1520" as="targetPoint" />
            <Array as="points">
              <mxPoint x="481" y="1470" />
              <mxPoint x="481" y="1520" />
              <mxPoint x="443" y="1520" />
            </Array>
          </mxGeometry>
        </mxCell>
        <mxCell id="GrhEkzy324thI5kk4Dp7-192" value="CURSO" style="shape=table;startSize=30;container=1;collapsible=1;childLayout=tableLayout;fixedRows=1;rowLines=0;fontStyle=1;align=center;resizeLast=1;html=1;whiteSpace=wrap;" vertex="1" parent="1">
          <mxGeometry x="480" y="1768" width="180" height="120" as="geometry" />
        </mxCell>
        <mxCell id="GrhEkzy324thI5kk4Dp7-193" value="" style="shape=tableRow;horizontal=0;startSize=0;swimlaneHead=0;swimlaneBody=0;fillColor=none;collapsible=0;dropTarget=0;points=[[0,0.5],[1,0.5]];portConstraint=eastwest;top=0;left=0;right=0;bottom=0;html=1;" vertex="1" parent="GrhEkzy324thI5kk4Dp7-192">
          <mxGeometry y="30" width="180" height="30" as="geometry" />
        </mxCell>
        <mxCell id="GrhEkzy324thI5kk4Dp7-194" value="PK" style="shape=partialRectangle;connectable=0;fillColor=none;top=0;left=0;bottom=0;right=0;fontStyle=1;overflow=hidden;html=1;whiteSpace=wrap;" vertex="1" parent="GrhEkzy324thI5kk4Dp7-193">
          <mxGeometry width="60" height="30" as="geometry">
            <mxRectangle width="60" height="30" as="alternateBounds" />
          </mxGeometry>
        </mxCell>
        <mxCell id="GrhEkzy324thI5kk4Dp7-195" value="ID" style="shape=partialRectangle;connectable=0;fillColor=none;top=0;left=0;bottom=0;right=0;align=left;spacingLeft=6;fontStyle=5;overflow=hidden;html=1;whiteSpace=wrap;" vertex="1" parent="GrhEkzy324thI5kk4Dp7-193">
          <mxGeometry x="60" width="120" height="30" as="geometry">
            <mxRectangle width="120" height="30" as="alternateBounds" />
          </mxGeometry>
        </mxCell>
        <mxCell id="GrhEkzy324thI5kk4Dp7-196" value="" style="shape=tableRow;horizontal=0;startSize=0;swimlaneHead=0;swimlaneBody=0;fillColor=none;collapsible=0;dropTarget=0;points=[[0,0.5],[1,0.5]];portConstraint=eastwest;top=0;left=0;right=0;bottom=0;html=1;" vertex="1" parent="GrhEkzy324thI5kk4Dp7-192">
          <mxGeometry y="60" width="180" height="30" as="geometry" />
        </mxCell>
        <mxCell id="GrhEkzy324thI5kk4Dp7-197" value="" style="shape=partialRectangle;connectable=0;fillColor=none;top=0;left=0;bottom=0;right=0;editable=1;overflow=hidden;html=1;whiteSpace=wrap;" vertex="1" parent="GrhEkzy324thI5kk4Dp7-196">
          <mxGeometry width="60" height="30" as="geometry">
            <mxRectangle width="60" height="30" as="alternateBounds" />
          </mxGeometry>
        </mxCell>
        <mxCell id="GrhEkzy324thI5kk4Dp7-198" value="" style="shape=partialRectangle;connectable=0;fillColor=none;top=0;left=0;bottom=0;right=0;align=left;spacingLeft=6;overflow=hidden;html=1;whiteSpace=wrap;" vertex="1" parent="GrhEkzy324thI5kk4Dp7-196">
          <mxGeometry x="60" width="120" height="30" as="geometry">
            <mxRectangle width="120" height="30" as="alternateBounds" />
          </mxGeometry>
        </mxCell>
        <mxCell id="GrhEkzy324thI5kk4Dp7-199" value="" style="shape=tableRow;horizontal=0;startSize=0;swimlaneHead=0;swimlaneBody=0;fillColor=none;collapsible=0;dropTarget=0;points=[[0,0.5],[1,0.5]];portConstraint=eastwest;top=0;left=0;right=0;bottom=0;html=1;" vertex="1" parent="GrhEkzy324thI5kk4Dp7-192">
          <mxGeometry y="90" width="180" height="30" as="geometry" />
        </mxCell>
        <mxCell id="GrhEkzy324thI5kk4Dp7-200" value="" style="shape=partialRectangle;connectable=0;fillColor=none;top=0;left=0;bottom=0;right=0;editable=1;overflow=hidden;html=1;whiteSpace=wrap;" vertex="1" parent="GrhEkzy324thI5kk4Dp7-199">
          <mxGeometry width="60" height="30" as="geometry">
            <mxRectangle width="60" height="30" as="alternateBounds" />
          </mxGeometry>
        </mxCell>
        <mxCell id="GrhEkzy324thI5kk4Dp7-201" value="" style="shape=partialRectangle;connectable=0;fillColor=none;top=0;left=0;bottom=0;right=0;align=left;spacingLeft=6;overflow=hidden;html=1;whiteSpace=wrap;" vertex="1" parent="GrhEkzy324thI5kk4Dp7-199">
          <mxGeometry x="60" width="120" height="30" as="geometry">
            <mxRectangle width="120" height="30" as="alternateBounds" />
          </mxGeometry>
        </mxCell>
        <mxCell id="GrhEkzy324thI5kk4Dp7-202" value="" style="line;strokeWidth=1;rotatable=0;dashed=0;labelPosition=right;align=left;verticalAlign=middle;spacingTop=0;spacingLeft=6;points=[];portConstraint=eastwest;" vertex="1" parent="1">
          <mxGeometry x="480" y="1823" width="180" height="10" as="geometry" />
        </mxCell>
        <mxCell id="GrhEkzy324thI5kk4Dp7-203" value="AULA" style="shape=table;startSize=30;container=1;collapsible=1;childLayout=tableLayout;fixedRows=1;rowLines=0;fontStyle=1;align=center;resizeLast=1;html=1;whiteSpace=wrap;" vertex="1" parent="1">
          <mxGeometry x="30" y="1768" width="180" height="120" as="geometry" />
        </mxCell>
        <mxCell id="GrhEkzy324thI5kk4Dp7-204" value="" style="shape=tableRow;horizontal=0;startSize=0;swimlaneHead=0;swimlaneBody=0;fillColor=none;collapsible=0;dropTarget=0;points=[[0,0.5],[1,0.5]];portConstraint=eastwest;top=0;left=0;right=0;bottom=0;html=1;" vertex="1" parent="GrhEkzy324thI5kk4Dp7-203">
          <mxGeometry y="30" width="180" height="30" as="geometry" />
        </mxCell>
        <mxCell id="GrhEkzy324thI5kk4Dp7-205" value="PK" style="shape=partialRectangle;connectable=0;fillColor=none;top=0;left=0;bottom=0;right=0;fontStyle=1;overflow=hidden;html=1;whiteSpace=wrap;" vertex="1" parent="GrhEkzy324thI5kk4Dp7-204">
          <mxGeometry width="60" height="30" as="geometry">
            <mxRectangle width="60" height="30" as="alternateBounds" />
          </mxGeometry>
        </mxCell>
        <mxCell id="GrhEkzy324thI5kk4Dp7-206" value="ID" style="shape=partialRectangle;connectable=0;fillColor=none;top=0;left=0;bottom=0;right=0;align=left;spacingLeft=6;fontStyle=5;overflow=hidden;html=1;whiteSpace=wrap;" vertex="1" parent="GrhEkzy324thI5kk4Dp7-204">
          <mxGeometry x="60" width="120" height="30" as="geometry">
            <mxRectangle width="120" height="30" as="alternateBounds" />
          </mxGeometry>
        </mxCell>
        <mxCell id="GrhEkzy324thI5kk4Dp7-207" value="" style="shape=tableRow;horizontal=0;startSize=0;swimlaneHead=0;swimlaneBody=0;fillColor=none;collapsible=0;dropTarget=0;points=[[0,0.5],[1,0.5]];portConstraint=eastwest;top=0;left=0;right=0;bottom=0;html=1;" vertex="1" parent="GrhEkzy324thI5kk4Dp7-203">
          <mxGeometry y="60" width="180" height="30" as="geometry" />
        </mxCell>
        <mxCell id="GrhEkzy324thI5kk4Dp7-208" value="" style="shape=partialRectangle;connectable=0;fillColor=none;top=0;left=0;bottom=0;right=0;editable=1;overflow=hidden;html=1;whiteSpace=wrap;" vertex="1" parent="GrhEkzy324thI5kk4Dp7-207">
          <mxGeometry width="60" height="30" as="geometry">
            <mxRectangle width="60" height="30" as="alternateBounds" />
          </mxGeometry>
        </mxCell>
        <mxCell id="GrhEkzy324thI5kk4Dp7-209" value="" style="shape=partialRectangle;connectable=0;fillColor=none;top=0;left=0;bottom=0;right=0;align=left;spacingLeft=6;overflow=hidden;html=1;whiteSpace=wrap;" vertex="1" parent="GrhEkzy324thI5kk4Dp7-207">
          <mxGeometry x="60" width="120" height="30" as="geometry">
            <mxRectangle width="120" height="30" as="alternateBounds" />
          </mxGeometry>
        </mxCell>
        <mxCell id="GrhEkzy324thI5kk4Dp7-210" value="" style="shape=tableRow;horizontal=0;startSize=0;swimlaneHead=0;swimlaneBody=0;fillColor=none;collapsible=0;dropTarget=0;points=[[0,0.5],[1,0.5]];portConstraint=eastwest;top=0;left=0;right=0;bottom=0;html=1;" vertex="1" parent="GrhEkzy324thI5kk4Dp7-203">
          <mxGeometry y="90" width="180" height="30" as="geometry" />
        </mxCell>
        <mxCell id="GrhEkzy324thI5kk4Dp7-211" value="" style="shape=partialRectangle;connectable=0;fillColor=none;top=0;left=0;bottom=0;right=0;editable=1;overflow=hidden;html=1;whiteSpace=wrap;" vertex="1" parent="GrhEkzy324thI5kk4Dp7-210">
          <mxGeometry width="60" height="30" as="geometry">
            <mxRectangle width="60" height="30" as="alternateBounds" />
          </mxGeometry>
        </mxCell>
        <mxCell id="GrhEkzy324thI5kk4Dp7-212" value="" style="shape=partialRectangle;connectable=0;fillColor=none;top=0;left=0;bottom=0;right=0;align=left;spacingLeft=6;overflow=hidden;html=1;whiteSpace=wrap;" vertex="1" parent="GrhEkzy324thI5kk4Dp7-210">
          <mxGeometry x="60" width="120" height="30" as="geometry">
            <mxRectangle width="120" height="30" as="alternateBounds" />
          </mxGeometry>
        </mxCell>
        <mxCell id="GrhEkzy324thI5kk4Dp7-213" value="lleva a cabo" style="shape=table;startSize=30;container=1;collapsible=1;childLayout=tableLayout;fixedRows=1;rowLines=0;fontStyle=1;align=center;resizeLast=1;html=1;whiteSpace=wrap;" vertex="1" parent="1">
          <mxGeometry x="250" y="1768" width="180" height="120" as="geometry" />
        </mxCell>
        <mxCell id="GrhEkzy324thI5kk4Dp7-214" value="" style="shape=tableRow;horizontal=0;startSize=0;swimlaneHead=0;swimlaneBody=0;fillColor=none;collapsible=0;dropTarget=0;points=[[0,0.5],[1,0.5]];portConstraint=eastwest;top=0;left=0;right=0;bottom=0;html=1;" vertex="1" parent="GrhEkzy324thI5kk4Dp7-213">
          <mxGeometry y="30" width="180" height="30" as="geometry" />
        </mxCell>
        <mxCell id="GrhEkzy324thI5kk4Dp7-215" value="PK, FK" style="shape=partialRectangle;connectable=0;fillColor=none;top=0;left=0;bottom=0;right=0;fontStyle=1;overflow=hidden;html=1;whiteSpace=wrap;" vertex="1" parent="GrhEkzy324thI5kk4Dp7-214">
          <mxGeometry width="60" height="30" as="geometry">
            <mxRectangle width="60" height="30" as="alternateBounds" />
          </mxGeometry>
        </mxCell>
        <mxCell id="GrhEkzy324thI5kk4Dp7-216" value="ID_aula" style="shape=partialRectangle;connectable=0;fillColor=none;top=0;left=0;bottom=0;right=0;align=left;spacingLeft=6;fontStyle=5;overflow=hidden;html=1;whiteSpace=wrap;" vertex="1" parent="GrhEkzy324thI5kk4Dp7-214">
          <mxGeometry x="60" width="120" height="30" as="geometry">
            <mxRectangle width="120" height="30" as="alternateBounds" />
          </mxGeometry>
        </mxCell>
        <mxCell id="GrhEkzy324thI5kk4Dp7-217" value="" style="shape=tableRow;horizontal=0;startSize=0;swimlaneHead=0;swimlaneBody=0;fillColor=none;collapsible=0;dropTarget=0;points=[[0,0.5],[1,0.5]];portConstraint=eastwest;top=0;left=0;right=0;bottom=0;html=1;" vertex="1" parent="GrhEkzy324thI5kk4Dp7-213">
          <mxGeometry y="60" width="180" height="30" as="geometry" />
        </mxCell>
        <mxCell id="GrhEkzy324thI5kk4Dp7-218" value="" style="shape=partialRectangle;connectable=0;fillColor=none;top=0;left=0;bottom=0;right=0;editable=1;overflow=hidden;html=1;whiteSpace=wrap;" vertex="1" parent="GrhEkzy324thI5kk4Dp7-217">
          <mxGeometry width="60" height="30" as="geometry">
            <mxRectangle width="60" height="30" as="alternateBounds" />
          </mxGeometry>
        </mxCell>
        <mxCell id="GrhEkzy324thI5kk4Dp7-219" value="" style="shape=partialRectangle;connectable=0;fillColor=none;top=0;left=0;bottom=0;right=0;align=left;spacingLeft=6;overflow=hidden;html=1;whiteSpace=wrap;" vertex="1" parent="GrhEkzy324thI5kk4Dp7-217">
          <mxGeometry x="60" width="120" height="30" as="geometry">
            <mxRectangle width="120" height="30" as="alternateBounds" />
          </mxGeometry>
        </mxCell>
        <mxCell id="GrhEkzy324thI5kk4Dp7-220" value="" style="shape=tableRow;horizontal=0;startSize=0;swimlaneHead=0;swimlaneBody=0;fillColor=none;collapsible=0;dropTarget=0;points=[[0,0.5],[1,0.5]];portConstraint=eastwest;top=0;left=0;right=0;bottom=0;html=1;" vertex="1" parent="GrhEkzy324thI5kk4Dp7-213">
          <mxGeometry y="90" width="180" height="30" as="geometry" />
        </mxCell>
        <mxCell id="GrhEkzy324thI5kk4Dp7-221" value="" style="shape=partialRectangle;connectable=0;fillColor=none;top=0;left=0;bottom=0;right=0;editable=1;overflow=hidden;html=1;whiteSpace=wrap;" vertex="1" parent="GrhEkzy324thI5kk4Dp7-220">
          <mxGeometry width="60" height="30" as="geometry">
            <mxRectangle width="60" height="30" as="alternateBounds" />
          </mxGeometry>
        </mxCell>
        <mxCell id="GrhEkzy324thI5kk4Dp7-222" value="" style="shape=partialRectangle;connectable=0;fillColor=none;top=0;left=0;bottom=0;right=0;align=left;spacingLeft=6;overflow=hidden;html=1;whiteSpace=wrap;" vertex="1" parent="GrhEkzy324thI5kk4Dp7-220">
          <mxGeometry x="60" width="120" height="30" as="geometry">
            <mxRectangle width="120" height="30" as="alternateBounds" />
          </mxGeometry>
        </mxCell>
        <mxCell id="GrhEkzy324thI5kk4Dp7-223" value="PK, FK" style="shape=partialRectangle;connectable=0;fillColor=none;top=0;left=0;bottom=0;right=0;fontStyle=1;overflow=hidden;html=1;whiteSpace=wrap;" vertex="1" parent="1">
          <mxGeometry x="250" y="1832" width="60" height="30" as="geometry">
            <mxRectangle width="60" height="30" as="alternateBounds" />
          </mxGeometry>
        </mxCell>
        <mxCell id="GrhEkzy324thI5kk4Dp7-224" value="" style="line;strokeWidth=1;rotatable=0;dashed=0;labelPosition=right;align=left;verticalAlign=middle;spacingTop=0;spacingLeft=6;points=[];portConstraint=eastwest;" vertex="1" parent="1">
          <mxGeometry x="250" y="1823" width="180" height="10" as="geometry" />
        </mxCell>
        <mxCell id="GrhEkzy324thI5kk4Dp7-225" value="" style="line;strokeWidth=1;rotatable=0;dashed=0;labelPosition=right;align=left;verticalAlign=middle;spacingTop=0;spacingLeft=6;points=[];portConstraint=eastwest;" vertex="1" parent="1">
          <mxGeometry x="30" y="1823" width="180" height="10" as="geometry" />
        </mxCell>
        <mxCell id="GrhEkzy324thI5kk4Dp7-226" value="ID_curso" style="shape=partialRectangle;connectable=0;fillColor=none;top=0;left=0;bottom=0;right=0;align=left;spacingLeft=6;fontStyle=5;overflow=hidden;html=1;whiteSpace=wrap;" vertex="1" parent="1">
          <mxGeometry x="307.5" y="1832" width="120" height="30" as="geometry">
            <mxRectangle width="120" height="30" as="alternateBounds" />
          </mxGeometry>
        </mxCell>
        <mxCell id="GrhEkzy324thI5kk4Dp7-228" style="edgeStyle=orthogonalEdgeStyle;rounded=0;orthogonalLoop=1;jettySize=auto;html=1;entryX=0;entryY=0.5;entryDx=0;entryDy=0;endArrow=none;endFill=0;" edge="1" parent="1" source="GrhEkzy324thI5kk4Dp7-204" target="GrhEkzy324thI5kk4Dp7-214">
          <mxGeometry relative="1" as="geometry" />
        </mxCell>
        <mxCell id="GrhEkzy324thI5kk4Dp7-230" style="edgeStyle=orthogonalEdgeStyle;rounded=0;orthogonalLoop=1;jettySize=auto;html=1;endArrow=none;endFill=0;" edge="1" parent="1" source="GrhEkzy324thI5kk4Dp7-193">
          <mxGeometry relative="1" as="geometry">
            <mxPoint x="430" y="1850" as="targetPoint" />
            <Array as="points">
              <mxPoint x="455" y="1813" />
              <mxPoint x="455" y="1850" />
              <mxPoint x="434" y="1850" />
            </Array>
          </mxGeometry>
        </mxCell>
        <mxCell id="GrhEkzy324thI5kk4Dp7-242" value="PROGRAMA ACADÉMICO" style="shape=table;startSize=30;container=1;collapsible=1;childLayout=tableLayout;fixedRows=1;rowLines=0;fontStyle=1;align=center;resizeLast=1;html=1;whiteSpace=wrap;" vertex="1" parent="1">
          <mxGeometry x="490" y="2092" width="180" height="120" as="geometry" />
        </mxCell>
        <mxCell id="GrhEkzy324thI5kk4Dp7-243" value="" style="shape=tableRow;horizontal=0;startSize=0;swimlaneHead=0;swimlaneBody=0;fillColor=none;collapsible=0;dropTarget=0;points=[[0,0.5],[1,0.5]];portConstraint=eastwest;top=0;left=0;right=0;bottom=0;html=1;" vertex="1" parent="GrhEkzy324thI5kk4Dp7-242">
          <mxGeometry y="30" width="180" height="30" as="geometry" />
        </mxCell>
        <mxCell id="GrhEkzy324thI5kk4Dp7-244" value="PK" style="shape=partialRectangle;connectable=0;fillColor=none;top=0;left=0;bottom=0;right=0;fontStyle=1;overflow=hidden;html=1;whiteSpace=wrap;" vertex="1" parent="GrhEkzy324thI5kk4Dp7-243">
          <mxGeometry width="60" height="30" as="geometry">
            <mxRectangle width="60" height="30" as="alternateBounds" />
          </mxGeometry>
        </mxCell>
        <mxCell id="GrhEkzy324thI5kk4Dp7-245" value="ID" style="shape=partialRectangle;connectable=0;fillColor=none;top=0;left=0;bottom=0;right=0;align=left;spacingLeft=6;fontStyle=5;overflow=hidden;html=1;whiteSpace=wrap;" vertex="1" parent="GrhEkzy324thI5kk4Dp7-243">
          <mxGeometry x="60" width="120" height="30" as="geometry">
            <mxRectangle width="120" height="30" as="alternateBounds" />
          </mxGeometry>
        </mxCell>
        <mxCell id="GrhEkzy324thI5kk4Dp7-246" value="" style="shape=tableRow;horizontal=0;startSize=0;swimlaneHead=0;swimlaneBody=0;fillColor=none;collapsible=0;dropTarget=0;points=[[0,0.5],[1,0.5]];portConstraint=eastwest;top=0;left=0;right=0;bottom=0;html=1;" vertex="1" parent="GrhEkzy324thI5kk4Dp7-242">
          <mxGeometry y="60" width="180" height="30" as="geometry" />
        </mxCell>
        <mxCell id="GrhEkzy324thI5kk4Dp7-247" value="" style="shape=partialRectangle;connectable=0;fillColor=none;top=0;left=0;bottom=0;right=0;editable=1;overflow=hidden;html=1;whiteSpace=wrap;" vertex="1" parent="GrhEkzy324thI5kk4Dp7-246">
          <mxGeometry width="60" height="30" as="geometry">
            <mxRectangle width="60" height="30" as="alternateBounds" />
          </mxGeometry>
        </mxCell>
        <mxCell id="GrhEkzy324thI5kk4Dp7-248" value="" style="shape=partialRectangle;connectable=0;fillColor=none;top=0;left=0;bottom=0;right=0;align=left;spacingLeft=6;overflow=hidden;html=1;whiteSpace=wrap;" vertex="1" parent="GrhEkzy324thI5kk4Dp7-246">
          <mxGeometry x="60" width="120" height="30" as="geometry">
            <mxRectangle width="120" height="30" as="alternateBounds" />
          </mxGeometry>
        </mxCell>
        <mxCell id="GrhEkzy324thI5kk4Dp7-249" value="" style="shape=tableRow;horizontal=0;startSize=0;swimlaneHead=0;swimlaneBody=0;fillColor=none;collapsible=0;dropTarget=0;points=[[0,0.5],[1,0.5]];portConstraint=eastwest;top=0;left=0;right=0;bottom=0;html=1;" vertex="1" parent="GrhEkzy324thI5kk4Dp7-242">
          <mxGeometry y="90" width="180" height="30" as="geometry" />
        </mxCell>
        <mxCell id="GrhEkzy324thI5kk4Dp7-250" value="" style="shape=partialRectangle;connectable=0;fillColor=none;top=0;left=0;bottom=0;right=0;editable=1;overflow=hidden;html=1;whiteSpace=wrap;" vertex="1" parent="GrhEkzy324thI5kk4Dp7-249">
          <mxGeometry width="60" height="30" as="geometry">
            <mxRectangle width="60" height="30" as="alternateBounds" />
          </mxGeometry>
        </mxCell>
        <mxCell id="GrhEkzy324thI5kk4Dp7-251" value="" style="shape=partialRectangle;connectable=0;fillColor=none;top=0;left=0;bottom=0;right=0;align=left;spacingLeft=6;overflow=hidden;html=1;whiteSpace=wrap;" vertex="1" parent="GrhEkzy324thI5kk4Dp7-249">
          <mxGeometry x="60" width="120" height="30" as="geometry">
            <mxRectangle width="120" height="30" as="alternateBounds" />
          </mxGeometry>
        </mxCell>
        <mxCell id="GrhEkzy324thI5kk4Dp7-252" value="" style="line;strokeWidth=1;rotatable=0;dashed=0;labelPosition=right;align=left;verticalAlign=middle;spacingTop=0;spacingLeft=6;points=[];portConstraint=eastwest;" vertex="1" parent="1">
          <mxGeometry x="490" y="2147" width="180" height="10" as="geometry" />
        </mxCell>
        <mxCell id="GrhEkzy324thI5kk4Dp7-253" value="DEPARTAMENTO" style="shape=table;startSize=30;container=1;collapsible=1;childLayout=tableLayout;fixedRows=1;rowLines=0;fontStyle=1;align=center;resizeLast=1;html=1;whiteSpace=wrap;" vertex="1" parent="1">
          <mxGeometry x="40" y="2092" width="180" height="120" as="geometry" />
        </mxCell>
        <mxCell id="GrhEkzy324thI5kk4Dp7-254" value="" style="shape=tableRow;horizontal=0;startSize=0;swimlaneHead=0;swimlaneBody=0;fillColor=none;collapsible=0;dropTarget=0;points=[[0,0.5],[1,0.5]];portConstraint=eastwest;top=0;left=0;right=0;bottom=0;html=1;" vertex="1" parent="GrhEkzy324thI5kk4Dp7-253">
          <mxGeometry y="30" width="180" height="30" as="geometry" />
        </mxCell>
        <mxCell id="GrhEkzy324thI5kk4Dp7-255" value="PK" style="shape=partialRectangle;connectable=0;fillColor=none;top=0;left=0;bottom=0;right=0;fontStyle=1;overflow=hidden;html=1;whiteSpace=wrap;" vertex="1" parent="GrhEkzy324thI5kk4Dp7-254">
          <mxGeometry width="60" height="30" as="geometry">
            <mxRectangle width="60" height="30" as="alternateBounds" />
          </mxGeometry>
        </mxCell>
        <mxCell id="GrhEkzy324thI5kk4Dp7-256" value="ID" style="shape=partialRectangle;connectable=0;fillColor=none;top=0;left=0;bottom=0;right=0;align=left;spacingLeft=6;fontStyle=5;overflow=hidden;html=1;whiteSpace=wrap;" vertex="1" parent="GrhEkzy324thI5kk4Dp7-254">
          <mxGeometry x="60" width="120" height="30" as="geometry">
            <mxRectangle width="120" height="30" as="alternateBounds" />
          </mxGeometry>
        </mxCell>
        <mxCell id="GrhEkzy324thI5kk4Dp7-257" value="" style="shape=tableRow;horizontal=0;startSize=0;swimlaneHead=0;swimlaneBody=0;fillColor=none;collapsible=0;dropTarget=0;points=[[0,0.5],[1,0.5]];portConstraint=eastwest;top=0;left=0;right=0;bottom=0;html=1;" vertex="1" parent="GrhEkzy324thI5kk4Dp7-253">
          <mxGeometry y="60" width="180" height="30" as="geometry" />
        </mxCell>
        <mxCell id="GrhEkzy324thI5kk4Dp7-258" value="" style="shape=partialRectangle;connectable=0;fillColor=none;top=0;left=0;bottom=0;right=0;editable=1;overflow=hidden;html=1;whiteSpace=wrap;" vertex="1" parent="GrhEkzy324thI5kk4Dp7-257">
          <mxGeometry width="60" height="30" as="geometry">
            <mxRectangle width="60" height="30" as="alternateBounds" />
          </mxGeometry>
        </mxCell>
        <mxCell id="GrhEkzy324thI5kk4Dp7-259" value="" style="shape=partialRectangle;connectable=0;fillColor=none;top=0;left=0;bottom=0;right=0;align=left;spacingLeft=6;overflow=hidden;html=1;whiteSpace=wrap;" vertex="1" parent="GrhEkzy324thI5kk4Dp7-257">
          <mxGeometry x="60" width="120" height="30" as="geometry">
            <mxRectangle width="120" height="30" as="alternateBounds" />
          </mxGeometry>
        </mxCell>
        <mxCell id="GrhEkzy324thI5kk4Dp7-260" value="" style="shape=tableRow;horizontal=0;startSize=0;swimlaneHead=0;swimlaneBody=0;fillColor=none;collapsible=0;dropTarget=0;points=[[0,0.5],[1,0.5]];portConstraint=eastwest;top=0;left=0;right=0;bottom=0;html=1;" vertex="1" parent="GrhEkzy324thI5kk4Dp7-253">
          <mxGeometry y="90" width="180" height="30" as="geometry" />
        </mxCell>
        <mxCell id="GrhEkzy324thI5kk4Dp7-261" value="" style="shape=partialRectangle;connectable=0;fillColor=none;top=0;left=0;bottom=0;right=0;editable=1;overflow=hidden;html=1;whiteSpace=wrap;" vertex="1" parent="GrhEkzy324thI5kk4Dp7-260">
          <mxGeometry width="60" height="30" as="geometry">
            <mxRectangle width="60" height="30" as="alternateBounds" />
          </mxGeometry>
        </mxCell>
        <mxCell id="GrhEkzy324thI5kk4Dp7-262" value="" style="shape=partialRectangle;connectable=0;fillColor=none;top=0;left=0;bottom=0;right=0;align=left;spacingLeft=6;overflow=hidden;html=1;whiteSpace=wrap;" vertex="1" parent="GrhEkzy324thI5kk4Dp7-260">
          <mxGeometry x="60" width="120" height="30" as="geometry">
            <mxRectangle width="120" height="30" as="alternateBounds" />
          </mxGeometry>
        </mxCell>
        <mxCell id="GrhEkzy324thI5kk4Dp7-263" value="asociada" style="shape=table;startSize=30;container=1;collapsible=1;childLayout=tableLayout;fixedRows=1;rowLines=0;fontStyle=1;align=center;resizeLast=1;html=1;whiteSpace=wrap;" vertex="1" parent="1">
          <mxGeometry x="260" y="2092" width="180" height="120" as="geometry" />
        </mxCell>
        <mxCell id="GrhEkzy324thI5kk4Dp7-264" value="" style="shape=tableRow;horizontal=0;startSize=0;swimlaneHead=0;swimlaneBody=0;fillColor=none;collapsible=0;dropTarget=0;points=[[0,0.5],[1,0.5]];portConstraint=eastwest;top=0;left=0;right=0;bottom=0;html=1;" vertex="1" parent="GrhEkzy324thI5kk4Dp7-263">
          <mxGeometry y="30" width="180" height="30" as="geometry" />
        </mxCell>
        <mxCell id="GrhEkzy324thI5kk4Dp7-265" value="PK, FK" style="shape=partialRectangle;connectable=0;fillColor=none;top=0;left=0;bottom=0;right=0;fontStyle=1;overflow=hidden;html=1;whiteSpace=wrap;" vertex="1" parent="GrhEkzy324thI5kk4Dp7-264">
          <mxGeometry width="60" height="30" as="geometry">
            <mxRectangle width="60" height="30" as="alternateBounds" />
          </mxGeometry>
        </mxCell>
        <mxCell id="GrhEkzy324thI5kk4Dp7-266" value="ID_departamento" style="shape=partialRectangle;connectable=0;fillColor=none;top=0;left=0;bottom=0;right=0;align=left;spacingLeft=6;fontStyle=5;overflow=hidden;html=1;whiteSpace=wrap;" vertex="1" parent="GrhEkzy324thI5kk4Dp7-264">
          <mxGeometry x="60" width="120" height="30" as="geometry">
            <mxRectangle width="120" height="30" as="alternateBounds" />
          </mxGeometry>
        </mxCell>
        <mxCell id="GrhEkzy324thI5kk4Dp7-267" value="" style="shape=tableRow;horizontal=0;startSize=0;swimlaneHead=0;swimlaneBody=0;fillColor=none;collapsible=0;dropTarget=0;points=[[0,0.5],[1,0.5]];portConstraint=eastwest;top=0;left=0;right=0;bottom=0;html=1;" vertex="1" parent="GrhEkzy324thI5kk4Dp7-263">
          <mxGeometry y="60" width="180" height="30" as="geometry" />
        </mxCell>
        <mxCell id="GrhEkzy324thI5kk4Dp7-268" value="" style="shape=partialRectangle;connectable=0;fillColor=none;top=0;left=0;bottom=0;right=0;editable=1;overflow=hidden;html=1;whiteSpace=wrap;" vertex="1" parent="GrhEkzy324thI5kk4Dp7-267">
          <mxGeometry width="60" height="30" as="geometry">
            <mxRectangle width="60" height="30" as="alternateBounds" />
          </mxGeometry>
        </mxCell>
        <mxCell id="GrhEkzy324thI5kk4Dp7-269" value="" style="shape=partialRectangle;connectable=0;fillColor=none;top=0;left=0;bottom=0;right=0;align=left;spacingLeft=6;overflow=hidden;html=1;whiteSpace=wrap;" vertex="1" parent="GrhEkzy324thI5kk4Dp7-267">
          <mxGeometry x="60" width="120" height="30" as="geometry">
            <mxRectangle width="120" height="30" as="alternateBounds" />
          </mxGeometry>
        </mxCell>
        <mxCell id="GrhEkzy324thI5kk4Dp7-270" value="" style="shape=tableRow;horizontal=0;startSize=0;swimlaneHead=0;swimlaneBody=0;fillColor=none;collapsible=0;dropTarget=0;points=[[0,0.5],[1,0.5]];portConstraint=eastwest;top=0;left=0;right=0;bottom=0;html=1;" vertex="1" parent="GrhEkzy324thI5kk4Dp7-263">
          <mxGeometry y="90" width="180" height="30" as="geometry" />
        </mxCell>
        <mxCell id="GrhEkzy324thI5kk4Dp7-271" value="" style="shape=partialRectangle;connectable=0;fillColor=none;top=0;left=0;bottom=0;right=0;editable=1;overflow=hidden;html=1;whiteSpace=wrap;" vertex="1" parent="GrhEkzy324thI5kk4Dp7-270">
          <mxGeometry width="60" height="30" as="geometry">
            <mxRectangle width="60" height="30" as="alternateBounds" />
          </mxGeometry>
        </mxCell>
        <mxCell id="GrhEkzy324thI5kk4Dp7-272" value="" style="shape=partialRectangle;connectable=0;fillColor=none;top=0;left=0;bottom=0;right=0;align=left;spacingLeft=6;overflow=hidden;html=1;whiteSpace=wrap;" vertex="1" parent="GrhEkzy324thI5kk4Dp7-270">
          <mxGeometry x="60" width="120" height="30" as="geometry">
            <mxRectangle width="120" height="30" as="alternateBounds" />
          </mxGeometry>
        </mxCell>
        <mxCell id="GrhEkzy324thI5kk4Dp7-273" value="PK, FK" style="shape=partialRectangle;connectable=0;fillColor=none;top=0;left=0;bottom=0;right=0;fontStyle=1;overflow=hidden;html=1;whiteSpace=wrap;" vertex="1" parent="1">
          <mxGeometry x="260" y="2156" width="60" height="30" as="geometry">
            <mxRectangle width="60" height="30" as="alternateBounds" />
          </mxGeometry>
        </mxCell>
        <mxCell id="GrhEkzy324thI5kk4Dp7-274" value="" style="line;strokeWidth=1;rotatable=0;dashed=0;labelPosition=right;align=left;verticalAlign=middle;spacingTop=0;spacingLeft=6;points=[];portConstraint=eastwest;" vertex="1" parent="1">
          <mxGeometry x="260" y="2147" width="180" height="10" as="geometry" />
        </mxCell>
        <mxCell id="GrhEkzy324thI5kk4Dp7-275" value="" style="line;strokeWidth=1;rotatable=0;dashed=0;labelPosition=right;align=left;verticalAlign=middle;spacingTop=0;spacingLeft=6;points=[];portConstraint=eastwest;" vertex="1" parent="1">
          <mxGeometry x="40" y="2147" width="180" height="10" as="geometry" />
        </mxCell>
        <mxCell id="GrhEkzy324thI5kk4Dp7-276" value="ID_programa" style="shape=partialRectangle;connectable=0;fillColor=none;top=0;left=0;bottom=0;right=0;align=left;spacingLeft=6;fontStyle=5;overflow=hidden;html=1;whiteSpace=wrap;" vertex="1" parent="1">
          <mxGeometry x="317.5" y="2156" width="120" height="30" as="geometry">
            <mxRectangle width="120" height="30" as="alternateBounds" />
          </mxGeometry>
        </mxCell>
        <mxCell id="GrhEkzy324thI5kk4Dp7-277" style="edgeStyle=orthogonalEdgeStyle;rounded=0;orthogonalLoop=1;jettySize=auto;html=1;entryX=0;entryY=0.5;entryDx=0;entryDy=0;endArrow=none;endFill=0;" edge="1" parent="1" source="GrhEkzy324thI5kk4Dp7-254" target="GrhEkzy324thI5kk4Dp7-264">
          <mxGeometry relative="1" as="geometry" />
        </mxCell>
        <mxCell id="GrhEkzy324thI5kk4Dp7-278" style="edgeStyle=orthogonalEdgeStyle;rounded=0;orthogonalLoop=1;jettySize=auto;html=1;endArrow=none;endFill=0;" edge="1" parent="1" source="GrhEkzy324thI5kk4Dp7-243">
          <mxGeometry relative="1" as="geometry">
            <mxPoint x="440" y="2174" as="targetPoint" />
            <Array as="points">
              <mxPoint x="465" y="2137" />
              <mxPoint x="465" y="2174" />
              <mxPoint x="444" y="2174" />
            </Array>
          </mxGeometry>
        </mxCell>
        <mxCell id="GrhEkzy324thI5kk4Dp7-279" value="CURSO" style="shape=table;startSize=30;container=1;collapsible=1;childLayout=tableLayout;fixedRows=1;rowLines=0;fontStyle=1;align=center;resizeLast=1;html=1;whiteSpace=wrap;" vertex="1" parent="1">
          <mxGeometry x="480" y="2441" width="180" height="120" as="geometry" />
        </mxCell>
        <mxCell id="GrhEkzy324thI5kk4Dp7-280" value="" style="shape=tableRow;horizontal=0;startSize=0;swimlaneHead=0;swimlaneBody=0;fillColor=none;collapsible=0;dropTarget=0;points=[[0,0.5],[1,0.5]];portConstraint=eastwest;top=0;left=0;right=0;bottom=0;html=1;" vertex="1" parent="GrhEkzy324thI5kk4Dp7-279">
          <mxGeometry y="30" width="180" height="30" as="geometry" />
        </mxCell>
        <mxCell id="GrhEkzy324thI5kk4Dp7-281" value="PK" style="shape=partialRectangle;connectable=0;fillColor=none;top=0;left=0;bottom=0;right=0;fontStyle=1;overflow=hidden;html=1;whiteSpace=wrap;" vertex="1" parent="GrhEkzy324thI5kk4Dp7-280">
          <mxGeometry width="60" height="30" as="geometry">
            <mxRectangle width="60" height="30" as="alternateBounds" />
          </mxGeometry>
        </mxCell>
        <mxCell id="GrhEkzy324thI5kk4Dp7-282" value="ID" style="shape=partialRectangle;connectable=0;fillColor=none;top=0;left=0;bottom=0;right=0;align=left;spacingLeft=6;fontStyle=5;overflow=hidden;html=1;whiteSpace=wrap;" vertex="1" parent="GrhEkzy324thI5kk4Dp7-280">
          <mxGeometry x="60" width="120" height="30" as="geometry">
            <mxRectangle width="120" height="30" as="alternateBounds" />
          </mxGeometry>
        </mxCell>
        <mxCell id="GrhEkzy324thI5kk4Dp7-283" value="" style="shape=tableRow;horizontal=0;startSize=0;swimlaneHead=0;swimlaneBody=0;fillColor=none;collapsible=0;dropTarget=0;points=[[0,0.5],[1,0.5]];portConstraint=eastwest;top=0;left=0;right=0;bottom=0;html=1;" vertex="1" parent="GrhEkzy324thI5kk4Dp7-279">
          <mxGeometry y="60" width="180" height="30" as="geometry" />
        </mxCell>
        <mxCell id="GrhEkzy324thI5kk4Dp7-284" value="" style="shape=partialRectangle;connectable=0;fillColor=none;top=0;left=0;bottom=0;right=0;editable=1;overflow=hidden;html=1;whiteSpace=wrap;" vertex="1" parent="GrhEkzy324thI5kk4Dp7-283">
          <mxGeometry width="60" height="30" as="geometry">
            <mxRectangle width="60" height="30" as="alternateBounds" />
          </mxGeometry>
        </mxCell>
        <mxCell id="GrhEkzy324thI5kk4Dp7-285" value="" style="shape=partialRectangle;connectable=0;fillColor=none;top=0;left=0;bottom=0;right=0;align=left;spacingLeft=6;overflow=hidden;html=1;whiteSpace=wrap;" vertex="1" parent="GrhEkzy324thI5kk4Dp7-283">
          <mxGeometry x="60" width="120" height="30" as="geometry">
            <mxRectangle width="120" height="30" as="alternateBounds" />
          </mxGeometry>
        </mxCell>
        <mxCell id="GrhEkzy324thI5kk4Dp7-286" value="" style="shape=tableRow;horizontal=0;startSize=0;swimlaneHead=0;swimlaneBody=0;fillColor=none;collapsible=0;dropTarget=0;points=[[0,0.5],[1,0.5]];portConstraint=eastwest;top=0;left=0;right=0;bottom=0;html=1;" vertex="1" parent="GrhEkzy324thI5kk4Dp7-279">
          <mxGeometry y="90" width="180" height="30" as="geometry" />
        </mxCell>
        <mxCell id="GrhEkzy324thI5kk4Dp7-287" value="" style="shape=partialRectangle;connectable=0;fillColor=none;top=0;left=0;bottom=0;right=0;editable=1;overflow=hidden;html=1;whiteSpace=wrap;" vertex="1" parent="GrhEkzy324thI5kk4Dp7-286">
          <mxGeometry width="60" height="30" as="geometry">
            <mxRectangle width="60" height="30" as="alternateBounds" />
          </mxGeometry>
        </mxCell>
        <mxCell id="GrhEkzy324thI5kk4Dp7-288" value="" style="shape=partialRectangle;connectable=0;fillColor=none;top=0;left=0;bottom=0;right=0;align=left;spacingLeft=6;overflow=hidden;html=1;whiteSpace=wrap;" vertex="1" parent="GrhEkzy324thI5kk4Dp7-286">
          <mxGeometry x="60" width="120" height="30" as="geometry">
            <mxRectangle width="120" height="30" as="alternateBounds" />
          </mxGeometry>
        </mxCell>
        <mxCell id="GrhEkzy324thI5kk4Dp7-289" value="" style="line;strokeWidth=1;rotatable=0;dashed=0;labelPosition=right;align=left;verticalAlign=middle;spacingTop=0;spacingLeft=6;points=[];portConstraint=eastwest;" vertex="1" parent="1">
          <mxGeometry x="480" y="2496" width="180" height="10" as="geometry" />
        </mxCell>
        <mxCell id="GrhEkzy324thI5kk4Dp7-290" value="ESTUDIANTE" style="shape=table;startSize=30;container=1;collapsible=1;childLayout=tableLayout;fixedRows=1;rowLines=0;fontStyle=1;align=center;resizeLast=1;html=1;whiteSpace=wrap;" vertex="1" parent="1">
          <mxGeometry x="30" y="2441" width="180" height="189" as="geometry" />
        </mxCell>
        <mxCell id="GrhEkzy324thI5kk4Dp7-291" value="" style="shape=tableRow;horizontal=0;startSize=0;swimlaneHead=0;swimlaneBody=0;fillColor=none;collapsible=0;dropTarget=0;points=[[0,0.5],[1,0.5]];portConstraint=eastwest;top=0;left=0;right=0;bottom=0;html=1;" vertex="1" parent="GrhEkzy324thI5kk4Dp7-290">
          <mxGeometry y="30" width="180" height="30" as="geometry" />
        </mxCell>
        <mxCell id="GrhEkzy324thI5kk4Dp7-292" value="PK" style="shape=partialRectangle;connectable=0;fillColor=none;top=0;left=0;bottom=0;right=0;fontStyle=1;overflow=hidden;html=1;whiteSpace=wrap;" vertex="1" parent="GrhEkzy324thI5kk4Dp7-291">
          <mxGeometry width="60" height="30" as="geometry">
            <mxRectangle width="60" height="30" as="alternateBounds" />
          </mxGeometry>
        </mxCell>
        <mxCell id="GrhEkzy324thI5kk4Dp7-293" value="ID" style="shape=partialRectangle;connectable=0;fillColor=none;top=0;left=0;bottom=0;right=0;align=left;spacingLeft=6;fontStyle=5;overflow=hidden;html=1;whiteSpace=wrap;" vertex="1" parent="GrhEkzy324thI5kk4Dp7-291">
          <mxGeometry x="60" width="120" height="30" as="geometry">
            <mxRectangle width="120" height="30" as="alternateBounds" />
          </mxGeometry>
        </mxCell>
        <mxCell id="GrhEkzy324thI5kk4Dp7-294" value="" style="shape=tableRow;horizontal=0;startSize=0;swimlaneHead=0;swimlaneBody=0;fillColor=none;collapsible=0;dropTarget=0;points=[[0,0.5],[1,0.5]];portConstraint=eastwest;top=0;left=0;right=0;bottom=0;html=1;" vertex="1" parent="GrhEkzy324thI5kk4Dp7-290">
          <mxGeometry y="60" width="180" height="30" as="geometry" />
        </mxCell>
        <mxCell id="GrhEkzy324thI5kk4Dp7-295" value="" style="shape=partialRectangle;connectable=0;fillColor=none;top=0;left=0;bottom=0;right=0;editable=1;overflow=hidden;html=1;whiteSpace=wrap;" vertex="1" parent="GrhEkzy324thI5kk4Dp7-294">
          <mxGeometry width="60" height="30" as="geometry">
            <mxRectangle width="60" height="30" as="alternateBounds" />
          </mxGeometry>
        </mxCell>
        <mxCell id="GrhEkzy324thI5kk4Dp7-296" value="" style="shape=partialRectangle;connectable=0;fillColor=none;top=0;left=0;bottom=0;right=0;align=left;spacingLeft=6;overflow=hidden;html=1;whiteSpace=wrap;" vertex="1" parent="GrhEkzy324thI5kk4Dp7-294">
          <mxGeometry x="60" width="120" height="30" as="geometry">
            <mxRectangle width="120" height="30" as="alternateBounds" />
          </mxGeometry>
        </mxCell>
        <mxCell id="GrhEkzy324thI5kk4Dp7-297" value="" style="shape=tableRow;horizontal=0;startSize=0;swimlaneHead=0;swimlaneBody=0;fillColor=none;collapsible=0;dropTarget=0;points=[[0,0.5],[1,0.5]];portConstraint=eastwest;top=0;left=0;right=0;bottom=0;html=1;" vertex="1" parent="GrhEkzy324thI5kk4Dp7-290">
          <mxGeometry y="90" width="180" height="99" as="geometry" />
        </mxCell>
        <mxCell id="GrhEkzy324thI5kk4Dp7-298" value="" style="shape=partialRectangle;connectable=0;fillColor=none;top=0;left=0;bottom=0;right=0;editable=1;overflow=hidden;html=1;whiteSpace=wrap;" vertex="1" parent="GrhEkzy324thI5kk4Dp7-297">
          <mxGeometry width="60" height="99" as="geometry">
            <mxRectangle width="60" height="99" as="alternateBounds" />
          </mxGeometry>
        </mxCell>
        <mxCell id="GrhEkzy324thI5kk4Dp7-299" value="" style="shape=partialRectangle;connectable=0;fillColor=none;top=0;left=0;bottom=0;right=0;align=left;spacingLeft=6;overflow=hidden;html=1;whiteSpace=wrap;" vertex="1" parent="GrhEkzy324thI5kk4Dp7-297">
          <mxGeometry x="60" width="120" height="99" as="geometry">
            <mxRectangle width="120" height="99" as="alternateBounds" />
          </mxGeometry>
        </mxCell>
        <mxCell id="GrhEkzy324thI5kk4Dp7-300" value="matriculado" style="shape=table;startSize=30;container=1;collapsible=1;childLayout=tableLayout;fixedRows=1;rowLines=0;fontStyle=1;align=center;resizeLast=1;html=1;whiteSpace=wrap;" vertex="1" parent="1">
          <mxGeometry x="250" y="2441" width="180" height="120" as="geometry" />
        </mxCell>
        <mxCell id="GrhEkzy324thI5kk4Dp7-301" value="" style="shape=tableRow;horizontal=0;startSize=0;swimlaneHead=0;swimlaneBody=0;fillColor=none;collapsible=0;dropTarget=0;points=[[0,0.5],[1,0.5]];portConstraint=eastwest;top=0;left=0;right=0;bottom=0;html=1;" vertex="1" parent="GrhEkzy324thI5kk4Dp7-300">
          <mxGeometry y="30" width="180" height="30" as="geometry" />
        </mxCell>
        <mxCell id="GrhEkzy324thI5kk4Dp7-302" value="PK, FK" style="shape=partialRectangle;connectable=0;fillColor=none;top=0;left=0;bottom=0;right=0;fontStyle=1;overflow=hidden;html=1;whiteSpace=wrap;" vertex="1" parent="GrhEkzy324thI5kk4Dp7-301">
          <mxGeometry width="60" height="30" as="geometry">
            <mxRectangle width="60" height="30" as="alternateBounds" />
          </mxGeometry>
        </mxCell>
        <mxCell id="GrhEkzy324thI5kk4Dp7-303" value="DNI_estudiante" style="shape=partialRectangle;connectable=0;fillColor=none;top=0;left=0;bottom=0;right=0;align=left;spacingLeft=6;fontStyle=5;overflow=hidden;html=1;whiteSpace=wrap;" vertex="1" parent="GrhEkzy324thI5kk4Dp7-301">
          <mxGeometry x="60" width="120" height="30" as="geometry">
            <mxRectangle width="120" height="30" as="alternateBounds" />
          </mxGeometry>
        </mxCell>
        <mxCell id="GrhEkzy324thI5kk4Dp7-304" value="" style="shape=tableRow;horizontal=0;startSize=0;swimlaneHead=0;swimlaneBody=0;fillColor=none;collapsible=0;dropTarget=0;points=[[0,0.5],[1,0.5]];portConstraint=eastwest;top=0;left=0;right=0;bottom=0;html=1;" vertex="1" parent="GrhEkzy324thI5kk4Dp7-300">
          <mxGeometry y="60" width="180" height="30" as="geometry" />
        </mxCell>
        <mxCell id="GrhEkzy324thI5kk4Dp7-305" value="" style="shape=partialRectangle;connectable=0;fillColor=none;top=0;left=0;bottom=0;right=0;editable=1;overflow=hidden;html=1;whiteSpace=wrap;" vertex="1" parent="GrhEkzy324thI5kk4Dp7-304">
          <mxGeometry width="60" height="30" as="geometry">
            <mxRectangle width="60" height="30" as="alternateBounds" />
          </mxGeometry>
        </mxCell>
        <mxCell id="GrhEkzy324thI5kk4Dp7-306" value="" style="shape=partialRectangle;connectable=0;fillColor=none;top=0;left=0;bottom=0;right=0;align=left;spacingLeft=6;overflow=hidden;html=1;whiteSpace=wrap;" vertex="1" parent="GrhEkzy324thI5kk4Dp7-304">
          <mxGeometry x="60" width="120" height="30" as="geometry">
            <mxRectangle width="120" height="30" as="alternateBounds" />
          </mxGeometry>
        </mxCell>
        <mxCell id="GrhEkzy324thI5kk4Dp7-307" value="" style="shape=tableRow;horizontal=0;startSize=0;swimlaneHead=0;swimlaneBody=0;fillColor=none;collapsible=0;dropTarget=0;points=[[0,0.5],[1,0.5]];portConstraint=eastwest;top=0;left=0;right=0;bottom=0;html=1;" vertex="1" parent="GrhEkzy324thI5kk4Dp7-300">
          <mxGeometry y="90" width="180" height="30" as="geometry" />
        </mxCell>
        <mxCell id="GrhEkzy324thI5kk4Dp7-308" value="" style="shape=partialRectangle;connectable=0;fillColor=none;top=0;left=0;bottom=0;right=0;editable=1;overflow=hidden;html=1;whiteSpace=wrap;" vertex="1" parent="GrhEkzy324thI5kk4Dp7-307">
          <mxGeometry width="60" height="30" as="geometry">
            <mxRectangle width="60" height="30" as="alternateBounds" />
          </mxGeometry>
        </mxCell>
        <mxCell id="GrhEkzy324thI5kk4Dp7-309" value="" style="shape=partialRectangle;connectable=0;fillColor=none;top=0;left=0;bottom=0;right=0;align=left;spacingLeft=6;overflow=hidden;html=1;whiteSpace=wrap;" vertex="1" parent="GrhEkzy324thI5kk4Dp7-307">
          <mxGeometry x="60" width="120" height="30" as="geometry">
            <mxRectangle width="120" height="30" as="alternateBounds" />
          </mxGeometry>
        </mxCell>
        <mxCell id="GrhEkzy324thI5kk4Dp7-310" value="PK, FK" style="shape=partialRectangle;connectable=0;fillColor=none;top=0;left=0;bottom=0;right=0;fontStyle=1;overflow=hidden;html=1;whiteSpace=wrap;" vertex="1" parent="1">
          <mxGeometry x="250" y="2505" width="60" height="30" as="geometry">
            <mxRectangle width="60" height="30" as="alternateBounds" />
          </mxGeometry>
        </mxCell>
        <mxCell id="GrhEkzy324thI5kk4Dp7-311" value="" style="line;strokeWidth=1;rotatable=0;dashed=0;labelPosition=right;align=left;verticalAlign=middle;spacingTop=0;spacingLeft=6;points=[];portConstraint=eastwest;" vertex="1" parent="1">
          <mxGeometry x="250" y="2496" width="180" height="10" as="geometry" />
        </mxCell>
        <mxCell id="GrhEkzy324thI5kk4Dp7-312" value="" style="line;strokeWidth=1;rotatable=0;dashed=0;labelPosition=right;align=left;verticalAlign=middle;spacingTop=0;spacingLeft=6;points=[];portConstraint=eastwest;" vertex="1" parent="1">
          <mxGeometry x="30" y="2496" width="180" height="10" as="geometry" />
        </mxCell>
        <mxCell id="GrhEkzy324thI5kk4Dp7-313" value="ID_curso" style="shape=partialRectangle;connectable=0;fillColor=none;top=0;left=0;bottom=0;right=0;align=left;spacingLeft=6;fontStyle=5;overflow=hidden;html=1;whiteSpace=wrap;" vertex="1" parent="1">
          <mxGeometry x="307.5" y="2505" width="120" height="30" as="geometry">
            <mxRectangle width="120" height="30" as="alternateBounds" />
          </mxGeometry>
        </mxCell>
        <mxCell id="GrhEkzy324thI5kk4Dp7-314" style="edgeStyle=orthogonalEdgeStyle;rounded=0;orthogonalLoop=1;jettySize=auto;html=1;entryX=0;entryY=0.5;entryDx=0;entryDy=0;endArrow=none;endFill=0;" edge="1" parent="1" source="GrhEkzy324thI5kk4Dp7-291" target="GrhEkzy324thI5kk4Dp7-301">
          <mxGeometry relative="1" as="geometry" />
        </mxCell>
        <mxCell id="GrhEkzy324thI5kk4Dp7-315" style="edgeStyle=orthogonalEdgeStyle;rounded=0;orthogonalLoop=1;jettySize=auto;html=1;endArrow=none;endFill=0;" edge="1" parent="1" source="GrhEkzy324thI5kk4Dp7-280">
          <mxGeometry relative="1" as="geometry">
            <mxPoint x="430" y="2523" as="targetPoint" />
            <Array as="points">
              <mxPoint x="455" y="2486" />
              <mxPoint x="455" y="2523" />
              <mxPoint x="434" y="2523" />
            </Array>
          </mxGeometry>
        </mxCell>
        <mxCell id="GrhEkzy324thI5kk4Dp7-316" style="edgeStyle=orthogonalEdgeStyle;rounded=0;orthogonalLoop=1;jettySize=auto;html=1;entryX=0.5;entryY=0;entryDx=0;entryDy=0;endArrow=none;endFill=0;" edge="1" parent="1" source="GrhEkzy324thI5kk4Dp7-317">
          <mxGeometry relative="1" as="geometry">
            <mxPoint x="187.5" y="2311" as="targetPoint" />
          </mxGeometry>
        </mxCell>
        <mxCell id="GrhEkzy324thI5kk4Dp7-317" value="dni" style="ellipse;whiteSpace=wrap;html=1;align=center;fontStyle=4;fillColor=#e1d5e7;strokeColor=#9673a6;" vertex="1" parent="1">
          <mxGeometry x="137.5" y="2231" width="100" height="40" as="geometry" />
        </mxCell>
        <mxCell id="GrhEkzy324thI5kk4Dp7-318" style="edgeStyle=orthogonalEdgeStyle;rounded=0;orthogonalLoop=1;jettySize=auto;html=1;exitX=0.5;exitY=0;exitDx=0;exitDy=0;endArrow=none;endFill=0;" edge="1" parent="1" source="GrhEkzy324thI5kk4Dp7-319">
          <mxGeometry relative="1" as="geometry">
            <mxPoint x="187.5" y="2371" as="targetPoint" />
          </mxGeometry>
        </mxCell>
        <mxCell id="GrhEkzy324thI5kk4Dp7-319" value="nombre" style="ellipse;whiteSpace=wrap;html=1;align=center;fillColor=#fff2cc;strokeColor=#d6b656;" vertex="1" parent="1">
          <mxGeometry x="140" y="2394" width="100" height="40" as="geometry" />
        </mxCell>
        <mxCell id="GrhEkzy324thI5kk4Dp7-320" style="edgeStyle=orthogonalEdgeStyle;rounded=0;orthogonalLoop=1;jettySize=auto;html=1;entryX=0;entryY=0.5;entryDx=0;entryDy=0;endArrow=none;endFill=0;" edge="1" parent="1" source="GrhEkzy324thI5kk4Dp7-321">
          <mxGeometry relative="1" as="geometry">
            <mxPoint x="127.5" y="2341" as="targetPoint" />
          </mxGeometry>
        </mxCell>
        <mxCell id="GrhEkzy324thI5kk4Dp7-321" value="apellidos" style="ellipse;whiteSpace=wrap;html=1;align=center;fillColor=#fff2cc;strokeColor=#d6b656;" vertex="1" parent="1">
          <mxGeometry x="-12.5" y="2321" width="100" height="40" as="geometry" />
        </mxCell>
        <mxCell id="GrhEkzy324thI5kk4Dp7-322" value="dirección" style="ellipse;whiteSpace=wrap;html=1;align=center;fillColor=#fff2cc;strokeColor=#d6b656;" vertex="1" parent="1">
          <mxGeometry x="-12.5" y="2251" width="100" height="40" as="geometry" />
        </mxCell>
        <mxCell id="GrhEkzy324thI5kk4Dp7-323" style="edgeStyle=orthogonalEdgeStyle;rounded=0;orthogonalLoop=1;jettySize=auto;html=1;endArrow=none;endFill=0;" edge="1" parent="1" target="VDzh7EiB1U5KI5voId9q-88">
          <mxGeometry relative="1" as="geometry">
            <mxPoint x="94.5" y="2401" as="sourcePoint" />
            <mxPoint x="134.5" y="2361" as="targetPoint" />
            <Array as="points">
              <mxPoint x="95" y="2402" />
              <mxPoint x="136" y="2402" />
            </Array>
          </mxGeometry>
        </mxCell>
        <mxCell id="GrhEkzy324thI5kk4Dp7-324" style="edgeStyle=orthogonalEdgeStyle;rounded=0;orthogonalLoop=1;jettySize=auto;html=1;entryX=0.156;entryY=-0.012;entryDx=0;entryDy=0;entryPerimeter=0;endArrow=none;endFill=0;" edge="1" parent="1" source="GrhEkzy324thI5kk4Dp7-322">
          <mxGeometry relative="1" as="geometry">
            <mxPoint x="146.5" y="2310" as="targetPoint" />
          </mxGeometry>
        </mxCell>
        <mxCell id="GrhEkzy324thI5kk4Dp7-325" value="email" style="ellipse;shape=doubleEllipse;margin=3;whiteSpace=wrap;html=1;align=center;fillColor=#fff2cc;strokeColor=#d6b656;" vertex="1" parent="1">
          <mxGeometry y="2384" width="100" height="40" as="geometry" />
        </mxCell>
        <mxCell id="GrhEkzy324thI5kk4Dp7-326" value="nombre" style="shape=partialRectangle;connectable=0;fillColor=none;top=0;left=0;bottom=0;right=0;align=left;spacingLeft=6;overflow=hidden;html=1;whiteSpace=wrap;" vertex="1" parent="1">
          <mxGeometry x="159.5" y="3695" width="120" height="30" as="geometry">
            <mxRectangle width="120" height="30" as="alternateBounds" />
          </mxGeometry>
        </mxCell>
        <mxCell id="GrhEkzy324thI5kk4Dp7-327" value="apellido" style="shape=partialRectangle;connectable=0;fillColor=none;top=0;left=0;bottom=0;right=0;align=left;spacingLeft=6;overflow=hidden;html=1;whiteSpace=wrap;" vertex="1" parent="1">
          <mxGeometry x="160.5" y="3720" width="120" height="30" as="geometry">
            <mxRectangle width="120" height="30" as="alternateBounds" />
          </mxGeometry>
        </mxCell>
        <mxCell id="GrhEkzy324thI5kk4Dp7-328" value="DNI" style="shape=partialRectangle;connectable=0;fillColor=none;top=0;left=0;bottom=0;right=0;align=left;spacingLeft=6;overflow=hidden;html=1;whiteSpace=wrap;" vertex="1" parent="1">
          <mxGeometry x="162.5" y="3670" width="120" height="30" as="geometry">
            <mxRectangle width="120" height="30" as="alternateBounds" />
          </mxGeometry>
        </mxCell>
        <mxCell id="GrhEkzy324thI5kk4Dp7-329" value="nombre" style="shape=partialRectangle;connectable=0;fillColor=none;top=0;left=0;bottom=0;right=0;align=left;spacingLeft=6;overflow=hidden;html=1;whiteSpace=wrap;" vertex="1" parent="1">
          <mxGeometry x="90" y="2505" width="120" height="30" as="geometry">
            <mxRectangle width="120" height="30" as="alternateBounds" />
          </mxGeometry>
        </mxCell>
        <mxCell id="GrhEkzy324thI5kk4Dp7-330" value="apellidos" style="shape=partialRectangle;connectable=0;fillColor=none;top=0;left=0;bottom=0;right=0;align=left;spacingLeft=6;overflow=hidden;html=1;whiteSpace=wrap;" vertex="1" parent="1">
          <mxGeometry x="90" y="2535" width="120" height="30" as="geometry">
            <mxRectangle width="120" height="30" as="alternateBounds" />
          </mxGeometry>
        </mxCell>
        <mxCell id="GrhEkzy324thI5kk4Dp7-331" value="direcciñon" style="shape=partialRectangle;connectable=0;fillColor=none;top=0;left=0;bottom=0;right=0;align=left;spacingLeft=6;overflow=hidden;html=1;whiteSpace=wrap;" vertex="1" parent="1">
          <mxGeometry x="90" y="2560.89" width="120" height="30" as="geometry">
            <mxRectangle width="120" height="30" as="alternateBounds" />
          </mxGeometry>
        </mxCell>
        <mxCell id="GrhEkzy324thI5kk4Dp7-332" value="email" style="shape=partialRectangle;connectable=0;fillColor=none;top=0;left=0;bottom=0;right=0;align=left;spacingLeft=6;overflow=hidden;html=1;whiteSpace=wrap;" vertex="1" parent="1">
          <mxGeometry x="90" y="2587" width="120" height="30" as="geometry">
            <mxRectangle width="120" height="30" as="alternateBounds" />
          </mxGeometry>
        </mxCell>
        <mxCell id="GrhEkzy324thI5kk4Dp7-333" value="dni" style="ellipse;whiteSpace=wrap;html=1;align=center;fontStyle=4;fillColor=#e1d5e7;strokeColor=#9673a6;" vertex="1" parent="1">
          <mxGeometry x="137.5" y="2659" width="100" height="40" as="geometry" />
        </mxCell>
        <mxCell id="GrhEkzy324thI5kk4Dp7-334" value="nombre" style="ellipse;whiteSpace=wrap;html=1;align=center;fillColor=#fff2cc;strokeColor=#d6b656;" vertex="1" parent="1">
          <mxGeometry x="140" y="2822" width="100" height="40" as="geometry" />
        </mxCell>
        <mxCell id="GrhEkzy324thI5kk4Dp7-335" value="apellidos" style="ellipse;whiteSpace=wrap;html=1;align=center;fillColor=#fff2cc;strokeColor=#d6b656;" vertex="1" parent="1">
          <mxGeometry x="-12.5" y="2749" width="100" height="40" as="geometry" />
        </mxCell>
        <mxCell id="GrhEkzy324thI5kk4Dp7-336" value="dirección" style="ellipse;whiteSpace=wrap;html=1;align=center;fillColor=#fff2cc;strokeColor=#d6b656;" vertex="1" parent="1">
          <mxGeometry x="-12.5" y="2679" width="100" height="40" as="geometry" />
        </mxCell>
        <mxCell id="GrhEkzy324thI5kk4Dp7-337" value="email" style="ellipse;shape=doubleEllipse;margin=3;whiteSpace=wrap;html=1;align=center;fillColor=#fff2cc;strokeColor=#d6b656;" vertex="1" parent="1">
          <mxGeometry y="2812" width="100" height="40" as="geometry" />
        </mxCell>
      </root>
    </mxGraphModel>
  </diagram>
</mxfile>
